{
.appVersion = "3257";
copyright = "Copyright (c) 2011 by vernon adams. All rights reserved.";
customParameters = (
{
name = license;

glyphs = (
{
glyphname = A;
layers = (
{
layerId = "DC66AB0F-19FD-4F06-8C39-5D32AA939720";
paths = (
{
closed = 1;
nodes = (
"1071 266 OFFCURVE",
"1060 217 OFFCURVE",
"1060 195 QCURVE",
"1060 175 OFFCURVE",
"1072 147 OFFCURVE",
"1092 147 QCURVE",
"1119 147 OFFCURVE",
"1194 186 OFFCURVE",
"1280 251 OFFCURVE",
"1372 336 OFFCURVE",
"1462 427 OFFCURVE",
"1544 519 OFFCURVE",
"1576 559 QCURVE",
"1613 426 LINE",
"1547 338 OFFCURVE",
"1407 176 OFFCURVE",
"1262 52 OFFCURVE",
"1116 -22 OFFCURVE",
"1044 -22 QCURVE",
"1002 -22 OFFCURVE",
"943 5 OFFCURVE",
"907 52 OFFCURVE",
"890 113 OFFCURVE",
"890 147 QCURVE",
"890 160 OFFCURVE",
"892 208 OFFCURVE",
"895 259 OFFCURVE",
"898 301 OFFCURVE",
"898 307 QCURVE",
"543 285 LINE",
"378 283 LINE",
"336 192 OFFCURVE",
"295 122 QCURVE",
"277 92 OFFCURVE",
"237 34 OFFCURVE",
"197 -11 OFFCURVE",
"157 -38 OFFCURVE",
"138 -38 QCURVE",
"108 -38 OFFCURVE",
"70 -20 OFFCURVE",
"48 7 OFFCURVE",
"39 41 OFFCURVE",
"39 56 QCURVE",
"39 82 OFFCURVE",
"53 133 OFFCURVE",
"66 156 QCURVE",
"198 378 LINE",
"207 392 OFFCURVE",
"262 498 OFFCURVE",
"349 653 OFFCURVE",
"463 841 OFFCURVE",
"596 1034 OFFCURVE",
"745 1216 OFFCURVE",
"902 1357 OFFCURVE",
"1062 1442 OFFCURVE",
"1141 1442 QCURVE",
"1215 1442 OFFCURVE",
"1358 1350 OFFCURVE",
"1423 1245 QCURVE",
"1430 1231 OFFCURVE",
"1430 1221 QCURVE",
"1430 1208 OFFCURVE",
"1416 1182 OFFCURVE",
"1393 1162 OFFCURVE",
"1365 1150 OFFCURVE",
"1350 1150 QCURVE",
"1332 1150 OFFCURVE",
"1285 1166 OFFCURVE",
"1264 1192 QCURVE",
"1233 1228 OFFCURVE",
"1166 1261 OFFCURVE",
"1133 1261 QCURVE",
"1086 1261 OFFCURVE",
"988 1208 OFFCURVE",
"889 1117 OFFCURVE",
"791 998 OFFCURVE",
"699 866 OFFCURVE",
"613 728 OFFCURVE",
"537 602 OFFCURVE",
"474 496 OFFCURVE",
"450 460 QCURVE",
"633 460 LINE",
"942 483 LINE",
"951 503 OFFCURVE",
"981 572 OFFCURVE",
"1018 658 OFFCURVE",
"1062 758 OFFCURVE",
"1107 859 OFFCURVE",
"1151 958 OFFCURVE",
"1170 1000 QCURVE",
"1183 1038 OFFCURVE",
"1234 1070 OFFCURVE",
"1263 1070 QCURVE",
"1278 1070 OFFCURVE",
"1308 1061 OFFCURVE",
"1333 1042 OFFCURVE",
"1349 1013 OFFCURVE",
"1350 993 QCURVE",
"1350 974 OFFCURVE",
"1317 882 OFFCURVE",
"1266 758 OFFCURVE",
"1203 613 OFFCURVE",
"1142 468 OFFCURVE",
"1090 335 OFFCURVE",
"1076 285 QCURVE"
);
}
);
width = 1323;
}
);
unicode = 0041;
},
{
glyphname = AE;
layers = (
{
layerId = "DC66AB0F-19FD-4F06-8C39-5D32AA939720";
paths = (
{
closed = 1;
nodes = (
"1817 825 LINE SMOOTH",
"1893 825 OFFCURVE",
"1931 802 OFFCURVE",
"1931 774 CURVE SMOOTH",
"1931 721 OFFCURVE",
"1871 701 OFFCURVE",
"1803 688 CURVE SMOOTH",
"1768 681 OFFCURVE",
"1675 679 OFFCURVE",
"1536 679 CURVE",
"1480 581 OFFCURVE",
"1428 488 OFFCURVE",
"1381 399 CURVE SMOOTH",
"1340 322 OFFCURVE",
"1323 268 OFFCURVE",
"1323 229 CURVE SMOOTH",
"1323 137 OFFCURVE",
"1415 128 OFFCURVE",
"1519 128 CURVE SMOOTH",
"1543 128 OFFCURVE",
"1566 129 OFFCURVE",
"1590 129 CURVE SMOOTH",
"2081 129 OFFCURVE",
"2099 509 OFFCURVE",
"2296 509 CURVE SMOOTH",
"2347 509 OFFCURVE",
"2374 486 OFFCURVE",
"2374 446 CURVE SMOOTH",
"2374 281 OFFCURVE",
"1975 -38 OFFCURVE",
"1555 -38 CURVE SMOOTH",
"1344 -38 OFFCURVE",
"1074 -8 OFFCURVE",
"1074 176 CURVE SMOOTH",
"1074 215 OFFCURVE",
"1086 259 OFFCURVE",
"1111 309 CURVE",
"1086 309 OFFCURVE",
"1065 307 OFFCURVE",
"1060 307 CURVE",
"732 285 LINE",
"566 283 LINE",
"529 222 OFFCURVE",
"492 169 OFFCURVE",
"457 122 CURVE SMOOTH",
"395 41 OFFCURVE",
"324 -38 OFFCURVE",
"274 -38 CURVE SMOOTH",
"206 -38 OFFCURVE",
"188 1 OFFCURVE",
"188 37 CURVE SMOOTH",
"188 76 OFFCURVE",
"207 121 OFFCURVE",
"234 156 CURVE SMOOTH",
"403 378 LINE",
"463 455 OFFCURVE",
"1106 1469 OFFCURVE",
"1527 1469 CURVE SMOOTH",
"1619 1469 OFFCURVE",
"1722 1422 OFFCURVE",
"1759 1268 CURVE",
"1892 1418 OFFCURVE",
"2119 1504 OFFCURVE",
"2305 1504 CURVE SMOOTH",
"2531 1504 OFFCURVE",
"2684 1413 OFFCURVE",
"2684 1213 CURVE",
"2682 1202 LINE SMOOTH",
"2669 1134 OFFCURVE",
"2590 1058 OFFCURVE",
"2499 1058 CURVE SMOOTH",
"2458 1058 OFFCURVE",
"2447 1076 OFFCURVE",
"2447 1105 CURVE SMOOTH",
"2447 1137 OFFCURVE",
"2462 1184 OFFCURVE",
"2462 1228 CURVE SMOOTH",
"2462 1304 OFFCURVE",
"2378 1335 OFFCURVE",
"2267 1335 CURVE SMOOTH",
"2109 1335 OFFCURVE",
"1861 1238 OFFCURVE",
"1781 1099 CURVE SMOOTH",
"1621 825 LINE"
);
},
{
closed = 1;
nodes = (
"1551 1105 OFFCURVE",
"1610 1188 OFFCURVE",
"1610 1214 CURVE SMOOTH",
"1610 1217 OFFCURVE",
"1610 1218 OFFCURVE",
"1609 1219 CURVE",
"1577 1268 OFFCURVE",
"1536 1288 OFFCURVE",
"1489 1288 CURVE SMOOTH",
"1239 1288 OFFCURVE",
"827 656 OFFCURVE",
"668 460 CURVE",
"851 460 LINE",
"1164 483 LINE",
"1212 563 OFFCURVE",
"1371 820 OFFCURVE",
"1476 985 CURVE SMOOTH"
);
}
);
width = 2029;
}
);
unicode = 00C6;
},
{
glyphname = B;
layers = (
{
layerId = "DC66AB0F-19FD-4F06-8C39-5D32AA939720";
paths = (
{
closed = 1;
nodes = (
"963 960 OFFCURVE",
"1097 1036 OFFCURVE",
"1187 1111 OFFCURVE",
"1233 1181 OFFCURVE",
"1233 1210 QCURVE",
"1233 1220 OFFCURVE",
"1213 1246 OFFCURVE",
"1172 1268 OFFCURVE",
"1110 1283 OFFCURVE",
"1069 1283 QCURVE",
"959 1283 OFFCURVE",
"771 1230 OFFCURVE",
"617 1154 OFFCURVE",
"499 1071 OFFCURVE",
"459 1040 QCURVE",
"434 1021 OFFCURVE",
"397 984 OFFCURVE",
"362 955 OFFCURVE",
"322 937 OFFCURVE",
"294 937 QCURVE",
"252 937 OFFCURVE",
"205 977 OFFCURVE",
"205 1013 QCURVE",
"205 1056 OFFCURVE",
"273 1153 OFFCURVE",
"393 1249 OFFCURVE",
"555 1336 OFFCURVE",
"742 1402 OFFCURVE",
"945 1442 OFFCURVE",
"1047 1442 QCURVE",
"1152 1442 OFFCURVE",
"1304 1408 OFFCURVE",
"1401 1348 OFFCURVE",
"1448 1266 OFFCURVE",
"1448 1170 OFFCURVE",
"1384 1066 OFFCURVE",
"1265 962 OFFCURVE",
"1094 867 OFFCURVE",
"987 828 QCURVE",
"1093 793 OFFCURVE",
"1226 716 OFFCURVE",
"1301 633 OFFCURVE",
"1327 544 OFFCURVE",
"1327 497 QCURVE",
"1327 428 OFFCURVE",
"1251 294 OFFCURVE",
"1116 175 OFFCURVE",
"931 74 OFFCURVE",
"713 1 OFFCURVE",
"471 -40 OFFCURVE",
"347 -40 QCURVE",
"303 -40 OFFCURVE",
"213 -30 OFFCURVE",
"138 -4 OFFCURVE",
"91 40 OFFCURVE",
"91 75 QCURVE",
"91 79 OFFCURVE",
"92 86 OFFCURVE",
"93 91 QCURVE",
"97 99 OFFCURVE",
"107 122 OFFCURVE",
"143 144 OFFCURVE",
"220 159 OFFCURVE",
"292 159 QCURVE",
"417 388 OFFCURVE",
"580 719 OFFCURVE",
"690 933 OFFCURVE",
"765 1035 OFFCURVE",
"801 1035 QCURVE",
"817 1035 OFFCURVE",
"847 1025 OFFCURVE",
"870 1008 OFFCURVE",
"884 983 OFFCURVE",
"884 968 QCURVE",
"876 958 OFFCURVE",
"874 937 OFFCURVE",
"874 924 QCURVE"
);
},
{
closed = 1;
nodes = (
"774 631 OFFCURVE",
"695 469 OFFCURVE",
"625 334 OFFCURVE",
"562 217 OFFCURVE",
"532 161 QCURVE",
"648 171 OFFCURVE",
"849 232 OFFCURVE",
"998 322 OFFCURVE",
"1083 434 OFFCURVE",
"1083 496 QCURVE",
"1083 524 OFFCURVE",
"1058 586 OFFCURVE",
"998 648 OFFCURVE",
"896 708 OFFCURVE",
"819 733 QCURVE"
);
}
);
width = 1293;
}
);
unicode = 0042;
},
{
glyphname = C;
layers = (
{
layerId = "DC66AB0F-19FD-4F06-8C39-5D32AA939720";
paths = (
{
closed = 1;
nodes = (
"1364 1236 OFFCURVE",
"1347 1160 OFFCURVE",
"1315 1078 OFFCURVE",
"1270 997 OFFCURVE",
"1212 932 OFFCURVE",
"1144 892 OFFCURVE",
"1105 892 QCURVE",
"1096 892 OFFCURVE",
"1067 895 OFFCURVE",
"1038 906 OFFCURVE",
"1017 928 OFFCURVE",
"1017 946 QCURVE",
"1017 958 OFFCURVE",
"1030 990 OFFCURVE",
"1047 1011 QCURVE",
"1065 1031 OFFCURVE",
"1107 1086 OFFCURVE",
"1141 1146 OFFCURVE",
"1164 1204 OFFCURVE",
"1164 1227 QCURVE",
"1164 1256 OFFCURVE",
"1137 1291 OFFCURVE",
"1104 1291 QCURVE",
"1061 1291 OFFCURVE",
"953 1235 OFFCURVE",
"835 1137 OFFCURVE",
"713 1006 OFFCURVE",
"599 857 OFFCURVE",
"498 696 OFFCURVE",
"423 539 OFFCURVE",
"380 394 OFFCURVE",
"380 335 QCURVE",
"380 262 OFFCURVE",
"458 174 OFFCURVE",
"548 174 QCURVE",
"590 174 OFFCURVE",
"756 239 OFFCURVE",
"867 304 OFFCURVE",
"980 383 OFFCURVE",
"1082 456 OFFCURVE",
"1166 515 OFFCURVE",
"1193 527 QCURVE",
"1198 531 OFFCURVE",
"1205 531 QCURVE",
"1220 531 OFFCURVE",
"1231 482 OFFCURVE",
"1231 451 QCURVE",
"1231 434 OFFCURVE",
"1222 385 OFFCURVE",
"1198 353 QCURVE",
"1187 340 OFFCURVE",
"1127 278 OFFCURVE",
"1037 200 OFFCURVE",
"921 116 OFFCURVE",
"786 46 OFFCURVE",
"573 -22 OFFCURVE",
"494 -22 QCURVE",
"401 -22 OFFCURVE",
"269 23 OFFCURVE",
"185 103 OFFCURVE",
"146 214 OFFCURVE",
"146 280 QCURVE",
"146 362 OFFCURVE",
"196 550 OFFCURVE",
"285 744 OFFCURVE",
"408 938 OFFCURVE",
"555 1115 OFFCURVE",
"721 1267 OFFCURVE",
"895 1379 OFFCURVE",
"1071 1443 OFFCURVE",
"1156 1443 QCURVE",
"1198 1443 OFFCURVE",
"1274 1424 OFFCURVE",
"1331 1382 OFFCURVE",
"1364 1313 OFFCURVE",
"1364 1263 QCURVE"
);
}
);
width = 1039;
}
);
unicode = 0043;
},
{
glyphname = D;
layers = (
{
layerId = "DC66AB0F-19FD-4F06-8C39-5D32AA939720";
paths = (
{
closed = 1;
nodes = (
"911 870 OFFCURVE",
"856 768 OFFCURVE",
"785 642 OFFCURVE",
"702 497 OFFCURVE",
"613 351 OFFCURVE",
"520 210 OFFCURVE",
"476 150 QCURVE",
"584 161 OFFCURVE",
"784 249 OFFCURVE",
"959 380 OFFCURVE",
"1104 543 OFFCURVE",
"1207 718 OFFCURVE",
"1264 894 OFFCURVE",
"1264 972 QCURVE",
"1264 1038 OFFCURVE",
"1231 1150 OFFCURVE",
"1164 1232 OFFCURVE",
"1060 1278 OFFCURVE",
"990 1278 QCURVE",
"925 1278 OFFCURVE",
"794 1253 OFFCURVE",
"674 1211 OFFCURVE",
"573 1154 OFFCURVE",
"537 1121 QCURVE",
"497 1077 OFFCURVE",
"436 989 OFFCURVE",
"377 919 OFFCURVE",
"309 875 OFFCURVE",
"263 875 QCURVE",
"177 875 OFFCURVE",
"177 951 QCURVE",
"177 999 OFFCURVE",
"239 1110 OFFCURVE",
"350 1219 OFFCURVE",
"503 1320 OFFCURVE",
"687 1397 OFFCURVE",
"895 1443 OFFCURVE",
"1005 1443 QCURVE",
"1133 1443 OFFCURVE",
"1323 1367 OFFCURVE",
"1448 1234 OFFCURVE",
"1509 1054 OFFCURVE",
"1509 846 OFFCURVE",
"1438 618 OFFCURVE",
"1301 398 OFFCURVE",
"1100 200 OFFCURVE",
"839 50 OFFCURVE",
"522 -38 OFFCURVE",
"338 -38 QCURVE",
"298 -38 OFFCURVE",
"252 13 OFFCURVE",
"252 50 QCURVE",
"252 79 OFFCURVE",
"272 133 OFFCURVE",
"288 156 QCURVE",
"699 973 LINE",
"728 1018 OFFCURVE",
"785 1072 OFFCURVE",
"834 1102 OFFCURVE",
"872 1111 OFFCURVE",
"882 1111 QCURVE",
"927 1111 OFFCURVE",
"965 1059 OFFCURVE",
"965 1023 QCURVE",
"965 994 OFFCURVE",
"945 930 OFFCURVE",
"928 901 QCURVE"
);
}
);
width = 1397;
}
);
unicode = 0044;
},
{
glyphname = Eth;
layers = (
{
layerId = "DC66AB0F-19FD-4F06-8C39-5D32AA939720";
paths = (
{
closed = 1;
nodes = (
"911 735 LINE",
"928 735 OFFCURVE",
"948 706 OFFCURVE",
"948 687 QCURVE",
"948 662 OFFCURVE",
"910 617 OFFCURVE",
"866 617 QCURVE",
"718 617 LINE",
"685 559 OFFCURVE",
"613 436 OFFCURVE",
"538 315 OFFCURVE",
"461 200 OFFCURVE",
"424 150 QCURVE",
"532 161 OFFCURVE",
"732 249 OFFCURVE",
"907 380 OFFCURVE",
"1052 543 OFFCURVE",
"1155 718 OFFCURVE",
"1212 894 OFFCURVE",
"1212 972 QCURVE",
"1212 1038 OFFCURVE",
"1179 1150 OFFCURVE",
"1112 1232 OFFCURVE",
"1008 1278 OFFCURVE",
"938 1278 QCURVE",
"873 1278 OFFCURVE",
"742 1253 OFFCURVE",
"622 1211 OFFCURVE",
"521 1154 OFFCURVE",
"485 1121 QCURVE",
"445 1077 OFFCURVE",
"384 989 OFFCURVE",
"325 919 OFFCURVE",
"257 875 OFFCURVE",
"211 875 QCURVE",
"125 875 OFFCURVE",
"125 951 QCURVE",
"125 999 OFFCURVE",
"187 1110 OFFCURVE",
"298 1219 OFFCURVE",
"451 1320 OFFCURVE",
"635 1397 OFFCURVE",
"843 1443 OFFCURVE",
"953 1443 QCURVE",
"1081 1443 OFFCURVE",
"1271 1367 OFFCURVE",
"1396 1234 OFFCURVE",
"1457 1054 OFFCURVE",
"1457 846 OFFCURVE",
"1386 618 OFFCURVE",
"1249 398 OFFCURVE",
"1048 200 OFFCURVE",
"787 50 OFFCURVE",
"470 -38 OFFCURVE",
"286 -38 QCURVE",
"246 -38 OFFCURVE",
"200 13 OFFCURVE",
"200 50 QCURVE",
"200 79 OFFCURVE",
"220 133 OFFCURVE",
"236 156 QCURVE",
"468 617 LINE",
"271 617 LINE",
"254 617 OFFCURVE",
"237 641 OFFCURVE",
"237 658 QCURVE",
"237 671 OFFCURVE",
"248 698 OFFCURVE",
"271 720 OFFCURVE",
"307 735 OFFCURVE",
"333 735 QCURVE",
"527 735 LINE",
"647 973 LINE",
"676 1018 OFFCURVE",
"733 1072 OFFCURVE",
"782 1102 OFFCURVE",
"820 1111 OFFCURVE",
"830 1111 QCURVE",
"875 1111 OFFCURVE",
"913 1059 OFFCURVE",
"913 1023 QCURVE",
"913 994 OFFCURVE",
"893 930 OFFCURVE",
"876 901 QCURVE",
"785 735 LINE"
);
}
);
width = 1216;
}
);
unicode = 00D0;
},
{
glyphname = E;
layers = (
{
layerId = "DC66AB0F-19FD-4F06-8C39-5D32AA939720";
paths = (
{
closed = 1;
nodes = (
"1094 825 OFFCURVE",
"1124 817 OFFCURVE",
"1148 803 OFFCURVE",
"1162 784 OFFCURVE",
"1162 774 QCURVE",
"1162 758 OFFCURVE",
"1122 725 OFFCURVE",
"1024 697 OFFCURVE",
"861 679 OFFCURVE",
"737 679 QCURVE",
"670 679 OFFCURVE",
"538 642 OFFCURVE",
"434 570 OFFCURVE",
"369 466 OFFCURVE",
"369 399 QCURVE",
"369 345 OFFCURVE",
"400 247 OFFCURVE",
"463 173 OFFCURVE",
"558 129 OFFCURVE",
"623 129 QCURVE",
"754 129 OFFCURVE",
"928 160 OFFCURVE",
"1045 207 OFFCURVE",
"1120 261 OFFCURVE",
"1185 308 OFFCURVE",
"1254 339 OFFCURVE",
"1306 339 QCURVE",
"1348 339 OFFCURVE",
"1396 298 OFFCURVE",
"1396 260 QCURVE",
"1396 234 OFFCURVE",
"1341 170 OFFCURVE",
"1240 103 OFFCURVE",
"1098 41 OFFCURVE",
"924 -8 OFFCURVE",
"724 -38 OFFCURVE",
"616 -38 QCURVE",
"517 -38 OFFCURVE",
"343 15 OFFCURVE",
"213 121 OFFCURVE",
"138 280 OFFCURVE",
"138 387 QCURVE",
"138 479 OFFCURVE",
"222 630 OFFCURVE",
"367 744 OFFCURVE",
"560 818 OFFCURVE",
"669 832 QCURVE",
"585 895 OFFCURVE",
"517 1016 OFFCURVE",
"517 1075 QCURVE",
"517 1133 OFFCURVE",
"575 1232 OFFCURVE",
"676 1314 OFFCURVE",
"810 1377 OFFCURVE",
"964 1420 OFFCURVE",
"1129 1443 OFFCURVE",
"1209 1443 QCURVE",
"1291 1443 OFFCURVE",
"1438 1409 OFFCURVE",
"1554 1337 OFFCURVE",
"1628 1227 OFFCURVE",
"1636 1152 QCURVE",
"1636 1131 OFFCURVE",
"1616 1087 OFFCURVE",
"1575 1050 OFFCURVE",
"1516 1027 OFFCURVE",
"1477 1027 QCURVE",
"1456 1027 OFFCURVE",
"1431 1037 OFFCURVE",
"1418 1055 OFFCURVE",
"1415 1080 OFFCURVE",
"1415 1095 QCURVE",
"1415 1142 OFFCURVE",
"1393 1210 OFFCURVE",
"1342 1253 OFFCURVE",
"1260 1274 OFFCURVE",
"1199 1274 QCURVE",
"1126 1274 OFFCURVE",
"968 1243 OFFCURVE",
"836 1184 OFFCURVE",
"751 1102 OFFCURVE",
"751 1051 QCURVE",
"751 991 OFFCURVE",
"806 905 OFFCURVE",
"897 850 OFFCURVE",
"1015 825 OFFCURVE",
"1078 825 QCURVE"
);
}
);
width = 1155;
}
);
unicode = 0045;
},
{
glyphname = F;
layers = (
{
layerId = "DC66AB0F-19FD-4F06-8C39-5D32AA939720";
paths = (
{
closed = 1;
nodes = (
"1170 797 OFFCURVE",
"1148 763 OFFCURVE",
"1122 744 OFFCURVE",
"1089 738 OFFCURVE",
"1067 738 QCURVE",
"973 746 OFFCURVE",
"838 754 OFFCURVE",
"786 754 QCURVE",
"735 754 OFFCURVE",
"658 746 OFFCURVE",
"621 736 QCURVE",
"606 712 OFFCURVE",
"546 608 OFFCURVE",
"473 475 OFFCURVE",
"397 325 OFFCURVE",
"365 256 QCURVE",
"296 106 OFFCURVE",
"187 -42 OFFCURVE",
"149 -42 QCURVE",
"103 -42 OFFCURVE",
"62 -9 OFFCURVE",
"62 23 QCURVE",
"62 61 OFFCURVE",
"117 198 OFFCURVE",
"166 296 QCURVE",
"184 332 OFFCURVE",
"227 414 OFFCURVE",
"271 496 OFFCURVE",
"313 574 OFFCURVE",
"347 637 OFFCURVE",
"370 681 OFFCURVE",
"373 688 QCURVE",
"376 696 OFFCURVE",
"379 702 OFFCURVE",
"380 705 OFFCURVE",
"380 706 OFFCURVE",
"381 710 QCURVE",
"363 710 LINE",
"325 710 OFFCURVE",
"279 722 OFFCURVE",
"279 742 QCURVE",
"279 753 OFFCURVE",
"288 770 QCURVE",
"309 809 OFFCURVE",
"361 850 OFFCURVE",
"410 868 OFFCURVE",
"451 869 OFFCURVE",
"462 869 QCURVE",
"489 924 OFFCURVE",
"543 1034 OFFCURVE",
"570 1089 QCURVE",
"621 1190 OFFCURVE",
"726 1326 OFFCURVE",
"850 1408 OFFCURVE",
"1000 1443 OFFCURVE",
"1096 1443 QCURVE",
"1184 1443 OFFCURVE",
"1289 1433 OFFCURVE",
"1310 1428 QCURVE",
"1350 1417 OFFCURVE",
"1383 1364 OFFCURVE",
"1383 1332 QCURVE",
"1383 1307 OFFCURVE",
"1366 1257 OFFCURVE",
"1337 1216 OFFCURVE",
"1300 1190 OFFCURVE",
"1281 1190 QCURVE",
"1270 1190 OFFCURVE",
"1262 1194 QCURVE",
"1240 1204 OFFCURVE",
"1205 1219 OFFCURVE",
"1169 1228 OFFCURVE",
"1124 1232 OFFCURVE",
"1091 1232 QCURVE",
"1057 1232 OFFCURVE",
"964 1229 OFFCURVE",
"897 1226 QCURVE",
"870 1179 OFFCURVE",
"823 1098 OFFCURVE",
"778 1019 OFFCURVE",
"731 938 OFFCURVE",
"703 890 QCURVE",
"740 903 OFFCURVE",
"827 924 OFFCURVE",
"918 938 OFFCURVE",
"1010 946 OFFCURVE",
"1052 946 QCURVE",
"1128 946 OFFCURVE",
"1195 922 OFFCURVE",
"1195 885 QCURVE",
"1195 877 OFFCURVE",
"1193 846 OFFCURVE",
"1182 826 QCURVE"
);
}
);
width = 855;
}
);
unicode = 0046;
},
{
glyphname = G;
layers = (
{
layerId = "DC66AB0F-19FD-4F06-8C39-5D32AA939720";
paths = (
{
closed = 1;
nodes = (
"1241 430 OFFCURVE",
"1220 377 OFFCURVE",
"1190 297 OFFCURVE",
"1155 198 OFFCURVE",
"1118 95 OFFCURVE",
"1084 -4 OFFCURVE",
"1057 -84 OFFCURVE",
"1039 -138 OFFCURVE",
"1037 -143 QCURVE",
"1032 -159 OFFCURVE",
"1010 -198 OFFCURVE",
"980 -233 OFFCURVE",
"944 -256 OFFCURVE",
"925 -256 QCURVE",
"893 -256 OFFCURVE",
"864 -220 OFFCURVE",
"864 -172 QCURVE",
"864 -165 OFFCURVE",
"864 -151 OFFCURVE",
"865 -143 QCURVE",
"866 -127 OFFCURVE",
"894 -39 OFFCURVE",
"933 72 OFFCURVE",
"978 191 OFFCURVE",
"996 238 QCURVE",
"943 188 OFFCURVE",
"819 89 OFFCURVE",
"689 10 OFFCURVE",
"557 -40 OFFCURVE",
"496 -40 QCURVE",
"426 -40 OFFCURVE",
"325 12 OFFCURVE",
"259 96 OFFCURVE",
"227 202 OFFCURVE",
"227 255 QCURVE",
"227 262 OFFCURVE",
"227 274 OFFCURVE",
"228 280 QCURVE",
"234 376 OFFCURVE",
"287 578 OFFCURVE",
"373 778 OFFCURVE",
"486 969 OFFCURVE",
"619 1139 OFFCURVE",
"769 1282 OFFCURVE",
"927 1385 OFFCURVE",
"1088 1443 OFFCURVE",
"1167 1443 QCURVE",
"1258 1443 OFFCURVE",
"1428 1359 OFFCURVE",
"1502 1265 QCURVE",
"1519 1244 OFFCURVE",
"1528 1201 OFFCURVE",
"1528 1182 QCURVE",
"1528 1137 OFFCURVE",
"1477 1085 OFFCURVE",
"1442 1085 QCURVE",
"1410 1085 OFFCURVE",
"1355 1142 OFFCURVE",
"1321 1195 QCURVE",
"1289 1243 OFFCURVE",
"1212 1286 OFFCURVE",
"1167 1286 QCURVE",
"1097 1286 OFFCURVE",
"938 1188 OFFCURVE",
"782 1027 OFFCURVE",
"639 820 OFFCURVE",
"529 603 OFFCURVE",
"464 392 OFFCURVE",
"464 308 QCURVE",
"464 280 OFFCURVE",
"473 221 OFFCURVE",
"498 173 OFFCURVE",
"541 142 OFFCURVE",
"574 142 QCURVE",
"611 142 OFFCURVE",
"705 184 OFFCURVE",
"806 252 OFFCURVE",
"908 338 OFFCURVE",
"996 426 OFFCURVE",
"1064 507 OFFCURVE",
"1081 537 QCURVE",
"1174 772 LINE",
"1191 810 OFFCURVE",
"1246 842 OFFCURVE",
"1275 842 QCURVE",
"1289 842 OFFCURVE",
"1317 834 OFFCURVE",
"1339 817 OFFCURVE",
"1352 790 OFFCURVE",
"1352 772 QCURVE",
"1352 724 OFFCURVE",
"1332 640 OFFCURVE",
"1301 560 OFFCURVE",
"1263 479 OFFCURVE",
"1245 435 QCURVE"
);
}
);
width = 1336;
}
);
unicode = 0047;
},
{
glyphname = H;
layers = (
{
layerId = "DC66AB0F-19FD-4F06-8C39-5D32AA939720";
paths = (
{
closed = 1;
nodes = (
"1396 405 OFFCURVE",
"1389 404 OFFCURVE",
"1385 404 QCURVE",
"1336 294 OFFCURVE",
"1261 128 OFFCURVE",
"1241 91 QCURVE",
"1224 60 OFFCURVE",
"1181 14 OFFCURVE",
"1133 -17 OFFCURVE",
"1084 -32 OFFCURVE",
"1063 -32 QCURVE",
"1032 -32 OFFCURVE",
"990 -2 OFFCURVE",
"990 28 QCURVE",
"990 54 OFFCURVE",
"1006 89 QCURVE",
"1150 394 LINE",
"1041 390 OFFCURVE",
"840 384 OFFCURVE",
"747 382 QCURVE",
"700 286 OFFCURVE",
"592 117 OFFCURVE",
"472 -9 OFFCURVE",
"342 -82 OFFCURVE",
"272 -82 QCURVE",
"218 -82 OFFCURVE",
"172 -54 QCURVE",
"158 -48 OFFCURVE",
"125 -15 OFFCURVE",
"97 31 OFFCURVE",
"78 85 OFFCURVE",
"78 113 QCURVE",
"78 133 OFFCURVE",
"92 170 OFFCURVE",
"105 187 QCURVE",
"111 194 OFFCURVE",
"127 216 OFFCURVE",
"149 237 OFFCURVE",
"174 251 OFFCURVE",
"189 251 QCURVE",
"195 251 OFFCURVE",
"207 248 OFFCURVE",
"212 244 QCURVE",
"222 238 OFFCURVE",
"241 196 OFFCURVE",
"264 151 OFFCURVE",
"292 115 OFFCURVE",
"311 115 QCURVE",
"338 115 OFFCURVE",
"393 156 OFFCURVE",
"450 229 OFFCURVE",
"508 331 OFFCURVE",
"537 391 QCURVE",
"505 401 OFFCURVE",
"479 438 OFFCURVE",
"479 458 QCURVE",
"479 470 OFFCURVE",
"497 494 OFFCURVE",
"529 513 OFFCURVE",
"572 527 OFFCURVE",
"598 528 QCURVE",
"634 616 OFFCURVE",
"700 806 OFFCURVE",
"760 988 OFFCURVE",
"810 1155 OFFCURVE",
"848 1287 OFFCURVE",
"872 1373 OFFCURVE",
"875 1384 QCURVE",
"883 1415 OFFCURVE",
"928 1443 OFFCURVE",
"954 1443 QCURVE",
"993 1443 OFFCURVE",
"1034 1392 OFFCURVE",
"1034 1325 QCURVE",
"1034 1317 OFFCURVE",
"1034 1300 OFFCURVE",
"1033 1290 QCURVE",
"1031 1264 OFFCURVE",
"1015 1175 OFFCURVE",
"989 1059 OFFCURVE",
"951 920 OFFCURVE",
"904 769 OFFCURVE",
"847 609 OFFCURVE",
"814 530 QCURVE",
"845 530 OFFCURVE",
"919 530 OFFCURVE",
"1012 529 OFFCURVE",
"1130 526 OFFCURVE",
"1206 524 QCURVE",
"1207 524 OFFCURVE",
"1209 523 OFFCURVE",
"1210 523 QCURVE",
"1298 708 OFFCURVE",
"1456 1035 OFFCURVE",
"1588 1280 OFFCURVE",
"1690 1422 OFFCURVE",
"1723 1422 QCURVE",
"1758 1422 OFFCURVE",
"1793 1389 OFFCURVE",
"1793 1361 QCURVE",
"1793 1346 OFFCURVE",
"1786 1323 OFFCURVE",
"1780 1309 QCURVE",
"1754 1246 OFFCURVE",
"1674 1062 OFFCURVE",
"1580 849 OFFCURVE",
"1479 620 OFFCURVE",
"1432 513 QCURVE",
"1462 507 OFFCURVE",
"1501 486 OFFCURVE",
"1501 469 QCURVE",
"1501 447 OFFCURVE",
"1455 408 OFFCURVE",
"1401 405 QCURVE"
);
}
);
width = 1467;
}
);
unicode = 0048;
},
{
glyphname = I;
layers = (
{
layerId = "DC66AB0F-19FD-4F06-8C39-5D32AA939720";
paths = (
{
closed = 1;
nodes = (
"712 15 OFFCURVE",
"609 20 OFFCURVE",
"564 20 QCURVE",
"534 20 OFFCURVE",
"477 18 OFFCURVE",
"420 17 OFFCURVE",
"359 15 OFFCURVE",
"325 15 QCURVE",
"292 15 OFFCURVE",
"256 53 OFFCURVE",
"256 81 QCURVE",
"256 92 OFFCURVE",
"259 104 QCURVE",
"262 114 OFFCURVE",
"303 137 OFFCURVE",
"370 158 OFFCURVE",
"460 174 OFFCURVE",
"511 178 QCURVE",
"563 291 OFFCURVE",
"676 522 OFFCURVE",
"790 741 OFFCURVE",
"898 941 OFFCURVE",
"992 1106 OFFCURVE",
"1067 1228 OFFCURVE",
"1091 1260 QCURVE",
"1040 1249 OFFCURVE",
"944 1224 OFFCURVE",
"884 1212 QCURVE",
"872 1208 OFFCURVE",
"860 1208 QCURVE",
"831 1208 OFFCURVE",
"799 1249 OFFCURVE",
"799 1278 QCURVE",
"799 1291 OFFCURVE",
"846 1326 OFFCURVE",
"929 1363 OFFCURVE",
"1042 1398 OFFCURVE",
"1175 1426 OFFCURVE",
"1322 1443 OFFCURVE",
"1397 1443 QCURVE",
"1467 1443 OFFCURVE",
"1546 1414 OFFCURVE",
"1546 1379 QCURVE",
"1546 1362 OFFCURVE",
"1526 1327 OFFCURVE",
"1493 1299 OFFCURVE",
"1447 1282 OFFCURVE",
"1422 1282 QCURVE",
"1408 1282 OFFCURVE",
"1384 1285 OFFCURVE",
"1370 1285 QCURVE",
"1333 1285 OFFCURVE",
"1269 1282 OFFCURVE",
"1240 1280 QCURVE",
"1242 1270 OFFCURVE",
"1242 1265 QCURVE",
"1242 1251 OFFCURVE",
"1232 1226 OFFCURVE",
"1227 1215 QCURVE",
"1196 1150 OFFCURVE",
"1108 967 OFFCURVE",
"1008 761 OFFCURVE",
"905 549 OFFCURVE",
"813 361 OFFCURVE",
"739 214 OFFCURVE",
"720 176 QCURVE",
"776 171 OFFCURVE",
"870 154 OFFCURVE",
"937 129 OFFCURVE",
"975 95 OFFCURVE",
"975 74 QCURVE",
"975 59 OFFCURVE",
"955 30 OFFCURVE",
"923 7 OFFCURVE",
"883 -6 OFFCURVE",
"862 -6 QCURVE",
"839 -6 OFFCURVE",
"798 6 OFFCURVE",
"778 8 QCURVE"
);
}
);
width = 1075;
}
);
unicode = 0049;
},
{
glyphname = J;
layers = (
{
layerId = "DC66AB0F-19FD-4F06-8C39-5D32AA939720";
paths = (
{
closed = 1;
nodes = (
"1264 636 LINE",
"1202 499 OFFCURVE",
"1057 252 OFFCURVE",
"892 66 OFFCURVE",
"712 -43 OFFCURVE",
"616 -43 QCURVE",
"560 -43 OFFCURVE",
"446 -7 OFFCURVE",
"327 70 OFFCURVE",
"206 191 OFFCURVE",
"144 277 QCURVE",
"129 294 OFFCURVE",
"117 328 OFFCURVE",
"117 348 QCURVE",
"117 363 OFFCURVE",
"136 407 OFFCURVE",
"172 448 OFFCURVE",
"224 477 OFFCURVE",
"257 477 QCURVE",
"277 477 OFFCURVE",
"311 463 OFFCURVE",
"325 446 QCURVE",
"405 286 OFFCURVE",
"562 138 OFFCURVE",
"639 138 QCURVE",
"695 138 OFFCURVE",
"806 211 OFFCURVE",
"916 350 OFFCURVE",
"1027 550 OFFCURVE",
"1083 677 QCURVE",
"1370 1272 LINE",
"1263 1273 OFFCURVE",
"1124 1273 OFFCURVE",
"1098 1273 QCURVE",
"1080 1273 OFFCURVE",
"1051 1289 OFFCURVE",
"1030 1313 OFFCURVE",
"1018 1343 OFFCURVE",
"1018 1357 QCURVE",
"1018 1385 OFFCURVE",
"1062 1420 OFFCURVE",
"1110 1420 QCURVE",
"1119 1420 OFFCURVE",
"1138 1419 OFFCURVE",
"1147 1419 QCURVE",
"1221 1419 OFFCURVE",
"1370 1427 OFFCURVE",
"1517 1436 OFFCURVE",
"1664 1444 OFFCURVE",
"1736 1444 QCURVE",
"1793 1444 OFFCURVE",
"1866 1437 OFFCURVE",
"1908 1424 OFFCURVE",
"1924 1404 OFFCURVE",
"1924 1392 QCURVE",
"1924 1376 OFFCURVE",
"1909 1342 OFFCURVE",
"1867 1313 OFFCURVE",
"1790 1295 OFFCURVE",
"1728 1295 QCURVE",
"1699 1295 OFFCURVE",
"1630 1290 OFFCURVE",
"1589 1285 QCURVE"
);
}
);
width = 1257;
}
);
unicode = 004A;
},
{
glyphname = K;
layers = (
{
layerId = "DC66AB0F-19FD-4F06-8C39-5D32AA939720";
paths = (
{
closed = 1;
nodes = (
"274 -48 OFFCURVE",
"243 -16 OFFCURVE",
"215 28 OFFCURVE",
"197 81 OFFCURVE",
"197 108 QCURVE",
"197 148 OFFCURVE",
"225 187 QCURVE",
"231 194 OFFCURVE",
"248 216 OFFCURVE",
"271 237 OFFCURVE",
"297 251 OFFCURVE",
"311 251 QCURVE",
"317 251 OFFCURVE",
"329 248 OFFCURVE",
"334 244 QCURVE",
"344 238 OFFCURVE",
"362 196 OFFCURVE",
"384 151 OFFCURVE",
"412 115 OFFCURVE",
"430 115 QCURVE",
"464 115 OFFCURVE",
"540 182 OFFCURVE",
"618 298 OFFCURVE",
"698 453 OFFCURVE",
"775 629 OFFCURVE",
"847 817 OFFCURVE",
"912 997 OFFCURVE",
"967 1161 OFFCURVE",
"1008 1290 OFFCURVE",
"1034 1374 OFFCURVE",
"1037 1385 QCURVE",
"1046 1416 OFFCURVE",
"1091 1444 OFFCURVE",
"1117 1444 QCURVE",
"1155 1444 OFFCURVE",
"1195 1397 OFFCURVE",
"1195 1335 QCURVE",
"1195 1325 OFFCURVE",
"1194 1303 OFFCURVE",
"1193 1291 QCURVE",
"1190 1262 OFFCURVE",
"1169 1159 OFFCURVE",
"1133 1025 OFFCURVE",
"1083 865 OFFCURVE",
"1052 779 QCURVE",
"1195 901 OFFCURVE",
"1416 1083 OFFCURVE",
"1583 1214 OFFCURVE",
"1701 1299 OFFCURVE",
"1782 1348 OFFCURVE",
"1830 1368 OFFCURVE",
"1844 1368 QCURVE",
"1859 1368 OFFCURVE",
"1881 1352 OFFCURVE",
"1896 1330 OFFCURVE",
"1903 1307 OFFCURVE",
"1903 1300 QCURVE",
"1903 1283 OFFCURVE",
"1886 1252 OFFCURVE",
"1869 1241 QCURVE",
"1799 1192 OFFCURVE",
"1645 1074 OFFCURVE",
"1490 949 OFFCURVE",
"1340 823 OFFCURVE",
"1207 711 OFFCURVE",
"1098 621 OFFCURVE",
"1061 593 QCURVE",
"1114 522 OFFCURVE",
"1213 394 OFFCURVE",
"1304 273 OFFCURVE",
"1389 157 OFFCURVE",
"1427 98 QCURVE",
"1440 78 OFFCURVE",
"1451 39 OFFCURVE",
"1451 23 QCURVE",
"1451 -4 OFFCURVE",
"1427 -44 OFFCURVE",
"1394 -70 OFFCURVE",
"1359 -83 OFFCURVE",
"1347 -83 QCURVE",
"1314 -83 OFFCURVE",
"1255 -36 OFFCURVE",
"1234 0 QCURVE",
"1203 41 OFFCURVE",
"1162 99 OFFCURVE",
"1128 150 OFFCURVE",
"1095 204 OFFCURVE",
"1046 281 OFFCURVE",
"974 389 OFFCURVE",
"920 469 QCURVE",
"867 359 OFFCURVE",
"746 159 OFFCURVE",
"612 7 OFFCURVE",
"466 -82 OFFCURVE",
"389 -82 QCURVE",
"362 -82 OFFCURVE",
"311 -68 OFFCURVE",
"288 -54 QCURVE"
);
}
);
width = 1596;
}
);
unicode = 004B;
},
{
glyphname = L;
layers = (
{
layerId = "DC66AB0F-19FD-4F06-8C39-5D32AA939720";
paths = (
{
closed = 1;
nodes = (
"326 196 OFFCURVE",
"354 169 OFFCURVE",
"413 145 OFFCURVE",
"506 130 OFFCURVE",
"571 129 QCURVE",
"541 145 OFFCURVE",
"480 180 OFFCURVE",
"424 209 OFFCURVE",
"378 228 OFFCURVE",
"362 228 QCURVE",
"326 228 OFFCURVE",
"326 209 QCURVE"
);
},
{
closed = 1;
nodes = (
"1230 1352 OFFCURVE",
"1272 1398 OFFCURVE",
"1320 1428 OFFCURVE",
"1370 1443 OFFCURVE",
"1392 1443 QCURVE",
"1424 1443 OFFCURVE",
"1468 1410 OFFCURVE",
"1468 1378 QCURVE",
"1468 1353 OFFCURVE",
"1455 1324 QCURVE",
"1399 1204 OFFCURVE",
"1283 961 OFFCURVE",
"1166 729 OFFCURVE",
"1054 514 OFFCURVE",
"950 330 OFFCURVE",
"859 184 OFFCURVE",
"822 136 QCURVE",
"909 142 OFFCURVE",
"1053 162 OFFCURVE",
"1187 188 OFFCURVE",
"1322 219 OFFCURVE",
"1400 235 QCURVE",
"1405 237 OFFCURVE",
"1417 239 OFFCURVE",
"1422 239 QCURVE",
"1453 239 OFFCURVE",
"1489 190 OFFCURVE",
"1489 159 QCURVE",
"1489 140 OFFCURVE",
"1417 97 OFFCURVE",
"1292 55 OFFCURVE",
"1123 16 OFFCURVE",
"927 -13 OFFCURVE",
"713 -30 OFFCURVE",
"607 -30 QCURVE",
"484 -30 OFFCURVE",
"306 4 OFFCURVE",
"191 64 OFFCURVE",
"136 146 OFFCURVE",
"136 194 QCURVE",
"136 241 OFFCURVE",
"171 306 OFFCURVE",
"232 346 OFFCURVE",
"315 364 OFFCURVE",
"363 364 QCURVE",
"402 364 OFFCURVE",
"486 336 OFFCURVE",
"567 291 OFFCURVE",
"640 236 OFFCURVE",
"667 208 QCURVE",
"690 268 OFFCURVE",
"755 416 OFFCURVE",
"831 579 OFFCURVE",
"915 750 OFFCURVE",
"999 916 OFFCURVE",
"1079 1070 OFFCURVE",
"1147 1198 OFFCURVE",
"1200 1296 OFFCURVE",
"1215 1322 QCURVE"
);
}
);
width = 1297;
}
);
unicode = 004C;
},
{
glyphname = Lslash;
layers = (
{
layerId = "DC66AB0F-19FD-4F06-8C39-5D32AA939720";
paths = (
{
closed = 1;
nodes = (
"196 196 OFFCURVE",
"224 169 OFFCURVE",
"283 145 OFFCURVE",
"376 130 OFFCURVE",
"441 129 QCURVE",
"411 145 OFFCURVE",
"350 180 OFFCURVE",
"294 209 OFFCURVE",
"248 228 OFFCURVE",
"232 228 QCURVE",
"196 228 OFFCURVE",
"196 209 QCURVE"
);
},
{
closed = 1;
nodes = (
"1100 1352 OFFCURVE",
"1142 1398 OFFCURVE",
"1190 1428 OFFCURVE",
"1240 1443 OFFCURVE",
"1262 1443 QCURVE",
"1294 1443 OFFCURVE",
"1338 1410 OFFCURVE",
"1338 1378 QCURVE",
"1338 1353 OFFCURVE",
"1325 1324 QCURVE",
"1269 1204 OFFCURVE",
"1211 1082 QCURVE",
"1168 992 OFFCURVE",
"1125 906 QCURVE",
"1178 920 OFFCURVE",
"1222 932 QCURVE",
"1274 946 OFFCURVE",
"1308 955 QCURVE",
"1311 956 OFFCURVE",
"1316 956 QCURVE",
"1334 956 OFFCURVE",
"1359 922 OFFCURVE",
"1359 900 QCURVE",
"1359 879 OFFCURVE",
"1330 838 OFFCURVE",
"1295 829 QCURVE",
"1259 819 OFFCURVE",
"1206 805 QCURVE",
"1153 790 OFFCURVE",
"1092 774 QCURVE",
"1073 769 OFFCURVE",
"1053 764 QCURVE",
"1016 692 OFFCURVE",
"980 622 QCURVE",
"924 514 OFFCURVE",
"820 330 OFFCURVE",
"729 184 OFFCURVE",
"692 136 QCURVE",
"779 142 OFFCURVE",
"923 162 OFFCURVE",
"1057 188 OFFCURVE",
"1192 219 OFFCURVE",
"1270 235 QCURVE",
"1275 237 OFFCURVE",
"1287 239 OFFCURVE",
"1292 239 QCURVE",
"1323 239 OFFCURVE",
"1359 190 OFFCURVE",
"1359 159 QCURVE",
"1359 140 OFFCURVE",
"1287 97 OFFCURVE",
"1162 55 OFFCURVE",
"993 16 OFFCURVE",
"797 -13 OFFCURVE",
"583 -30 OFFCURVE",
"477 -30 QCURVE",
"354 -30 OFFCURVE",
"176 4 OFFCURVE",
"61 64 OFFCURVE",
"6 146 OFFCURVE",
"6 194 QCURVE",
"6 241 OFFCURVE",
"41 306 OFFCURVE",
"102 346 OFFCURVE",
"185 364 OFFCURVE",
"233 364 QCURVE",
"272 364 OFFCURVE",
"356 336 OFFCURVE",
"437 291 OFFCURVE",
"510 236 OFFCURVE",
"537 208 QCURVE",
"560 268 OFFCURVE",
"625 416 OFFCURVE",
"663 498 QCURVE",
"701 578 OFFCURVE",
"743 664 QCURVE",
"751 680 OFFCURVE",
"752 683 QCURVE",
"738 679 OFFCURVE",
"725 676 QCURVE",
"672 662 OFFCURVE",
"636 652 QCURVE",
"633 651 OFFCURVE",
"626 651 QCURVE",
"610 651 OFFCURVE",
"590 680 OFFCURVE",
"590 700 QCURVE",
"590 723 OFFCURVE",
"623 771 OFFCURVE",
"665 782 QCURVE",
"700 791 OFFCURVE",
"752 805 QCURVE",
"786 814 OFFCURVE",
"823 824 QCURVE",
"825 828 OFFCURVE",
"827 833 QCURVE",
"869 916 OFFCURVE",
"949 1070 OFFCURVE",
"1017 1198 OFFCURVE",
"1070 1296 OFFCURVE",
"1085 1322 QCURVE"
);
}
);
width = 1168;
}
);
unicode = 0141;
},
{
glyphname = M;
layers = (
{
layerId = "DC66AB0F-19FD-4F06-8C39-5D32AA939720";
paths = (
{
closed = 1;
nodes = (
"1494 157 OFFCURVE",
"1520 383 OFFCURVE",
"1550 630 OFFCURVE",
"1581 880 OFFCURVE",
"1596 989 QCURVE",
"1543 887 OFFCURVE",
"1435 681 OFFCURVE",
"1338 496 OFFCURVE",
"1257 346 OFFCURVE",
"1232 300 QCURVE",
"1209 269 OFFCURVE",
"1163 213 OFFCURVE",
"1118 171 OFFCURVE",
"1074 146 OFFCURVE",
"1053 146 QCURVE",
"1025 146 OFFCURVE",
"992 170 OFFCURVE",
"992 194 QCURVE",
"992 199 OFFCURVE",
"993 208 OFFCURVE",
"995 213 QCURVE",
"989 355 OFFCURVE",
"983 644 OFFCURVE",
"983 784 QCURVE",
"983 817 OFFCURVE",
"983 883 OFFCURVE",
"984 915 QCURVE",
"944 825 OFFCURVE",
"850 631 OFFCURVE",
"748 442 OFFCURVE",
"640 267 OFFCURVE",
"532 124 OFFCURVE",
"427 23 OFFCURVE",
"379 3 QCURVE",
"337 -14 OFFCURVE",
"275 -29 OFFCURVE",
"251 -29 QCURVE",
"215 -29 OFFCURVE",
"180 0 OFFCURVE",
"180 21 QCURVE",
"180 46 OFFCURVE",
"222 100 OFFCURVE",
"260 115 QCURVE",
"306 133 OFFCURVE",
"415 256 OFFCURVE",
"531 432 OFFCURVE",
"649 648 OFFCURVE",
"760 870 OFFCURVE",
"858 1083 OFFCURVE",
"934 1255 OFFCURVE",
"983 1370 OFFCURVE",
"989 1384 QCURVE",
"1003 1415 OFFCURVE",
"1053 1443 OFFCURVE",
"1079 1443 QCURVE",
"1115 1443 OFFCURVE",
"1143 1404 OFFCURVE",
"1143 1354 QCURVE",
"1151 1291 OFFCURVE",
"1162 1180 OFFCURVE",
"1170 1063 OFFCURVE",
"1173 928 OFFCURVE",
"1173 840 QCURVE",
"1173 777 OFFCURVE",
"1168 625 OFFCURVE",
"1168 531 QCURVE",
"1288 749 OFFCURVE",
"1473 1082 OFFCURVE",
"1610 1307 OFFCURVE",
"1704 1422 OFFCURVE",
"1732 1422 QCURVE",
"1739 1422 LINE",
"1742 1422 OFFCURVE",
"1748 1423 OFFCURVE",
"1751 1423 QCURVE",
"1775 1423 OFFCURVE",
"1803 1363 OFFCURVE",
"1803 1315 QCURVE",
"1799 1266 OFFCURVE",
"1783 1120 OFFCURVE",
"1762 945 OFFCURVE",
"1738 751 OFFCURVE",
"1714 560 OFFCURVE",
"1693 380 OFFCURVE",
"1686 307 QCURVE",
"1684 294 OFFCURVE",
"1684 267 OFFCURVE",
"1684 253 QCURVE",
"1684 227 OFFCURVE",
"1686 174 OFFCURVE",
"1686 148 QCURVE",
"1686 118 OFFCURVE",
"1680 57 OFFCURVE",
"1653 8 OFFCURVE",
"1595 -23 OFFCURVE",
"1544 -23 QCURVE",
"1517 -23 OFFCURVE",
"1485 18 OFFCURVE",
"1485 71 QCURVE"
);
}
);
width = 1821;
}
);
unicode = 004D;
},
{
glyphname = N;
layers = (
{
layerId = "DC66AB0F-19FD-4F06-8C39-5D32AA939720";
paths = (
{
closed = 1;
nodes = (
"1081 1278 OFFCURVE",
"1113 1114 OFFCURVE",
"1144 937 OFFCURVE",
"1175 754 OFFCURVE",
"1206 577 OFFCURVE",
"1235 412 OFFCURVE",
"1250 342 QCURVE",
"1351 541 OFFCURVE",
"1538 897 OFFCURVE",
"1700 1180 OFFCURVE",
"1832 1379 OFFCURVE",
"1880 1422 QCURVE",
"1901 1442 OFFCURVE",
"1947 1458 OFFCURVE",
"1969 1458 QCURVE",
"2001 1458 OFFCURVE",
"2046 1426 OFFCURVE",
"2046 1401 QCURVE",
"2046 1386 OFFCURVE",
"2036 1366 OFFCURVE",
"2025 1354 QCURVE",
"1984 1307 OFFCURVE",
"1912 1228 OFFCURVE",
"1843 1141 OFFCURVE",
"1774 1033 OFFCURVE",
"1737 958 QCURVE",
"1692 875 OFFCURVE",
"1602 700 OFFCURVE",
"1518 527 OFFCURVE",
"1441 365 OFFCURVE",
"1377 228 OFFCURVE",
"1325 121 OFFCURVE",
"1308 91 QCURVE",
"1279 29 OFFCURVE",
"1204 -31 OFFCURVE",
"1173 -32 QCURVE",
"1166 -32 LINE",
"1146 -31 OFFCURVE",
"1108 -17 OFFCURVE",
"1076 11 OFFCURVE",
"1053 54 OFFCURVE",
"1049 83 QCURVE",
"1033 146 OFFCURVE",
"1008 267 OFFCURVE",
"986 394 OFFCURVE",
"963 533 OFFCURVE",
"937 697 OFFCURVE",
"904 891 OFFCURVE",
"882 1009 QCURVE",
"852 909 OFFCURVE",
"766 670 OFFCURVE",
"662 427 OFFCURVE",
"542 200 OFFCURVE",
"410 24 OFFCURVE",
"271 -82 OFFCURVE",
"201 -82 QCURVE",
"189 -82 OFFCURVE",
"157 -71 OFFCURVE",
"128 -50 OFFCURVE",
"108 -20 OFFCURVE",
"108 -2 QCURVE",
"108 12 OFFCURVE",
"119 35 OFFCURVE",
"129 51 QCURVE",
"142 72 OFFCURVE",
"198 103 OFFCURVE",
"271 141 OFFCURVE",
"357 192 OFFCURVE",
"400 234 QCURVE",
"424 257 OFFCURVE",
"490 376 OFFCURVE",
"567 539 OFFCURVE",
"650 734 OFFCURVE",
"730 932 OFFCURVE",
"802 1121 OFFCURVE",
"859 1272 OFFCURVE",
"895 1373 OFFCURVE",
"899 1384 QCURVE",
"909 1414 OFFCURVE",
"954 1442 OFFCURVE",
"980 1443 QCURVE",
"979 1443 OFFCURVE",
"978 1442 QCURVE",
"981 1442 OFFCURVE",
"988 1443 OFFCURVE",
"991 1443 QCURVE",
"1013 1443 OFFCURVE",
"1056 1400 OFFCURVE",
"1065 1347 QCURVE"
);
}
);
width = 1527;
}
);
unicode = 004E;
},
{
glyphname = O;
layers = (
{
layerId = "DC66AB0F-19FD-4F06-8C39-5D32AA939720";
paths = (
{
closed = 1;
nodes = (
"235 605 OFFCURVE",
"322 864 OFFCURVE",
"469 1083 OFFCURVE",
"662 1257 OFFCURVE",
"873 1378 OFFCURVE",
"1090 1443 OFFCURVE",
"1188 1443 QCURVE",
"1275 1443 OFFCURVE",
"1432 1403 OFFCURVE",
"1555 1321 OFFCURVE",
"1637 1196 OFFCURVE",
"1651 1112 QCURVE",
"1652 1107 OFFCURVE",
"1652 1099 OFFCURVE",
"1652 1094 QCURVE",
"1652 1055 OFFCURVE",
"1607 1014 OFFCURVE",
"1581 1014 QCURVE",
"1552 1014 OFFCURVE",
"1502 1076 OFFCURVE",
"1479 1133 QCURVE",
"1442 1203 OFFCURVE",
"1302 1267 OFFCURVE",
"1214 1267 QCURVE",
"1137 1267 OFFCURVE",
"968 1211 OFFCURVE",
"803 1109 OFFCURVE",
"653 966 OFFCURVE",
"539 793 OFFCURVE",
"472 593 OFFCURVE",
"472 486 QCURVE",
"472 397 OFFCURVE",
"516 275 OFFCURVE",
"588 199 OFFCURVE",
"678 165 OFFCURVE",
"724 165 QCURVE",
"827 165 OFFCURVE",
"1014 277 OFFCURVE",
"1156 486 OFFCURVE",
"1240 787 OFFCURVE",
"1240 976 QCURVE",
"1240 995 OFFCURVE",
"1239 1032 OFFCURVE",
"1239 1052 QCURVE",
"1239 1102 OFFCURVE",
"1275 1149 OFFCURVE",
"1298 1149 QCURVE",
"1337 1149 OFFCURVE",
"1386 1106 OFFCURVE",
"1414 1035 OFFCURVE",
"1425 944 OFFCURVE",
"1425 896 QCURVE",
"1425 760 OFFCURVE",
"1367 519 OFFCURVE",
"1264 314 OFFCURVE",
"1123 151 OFFCURVE",
"959 38 OFFCURVE",
"778 -23 OFFCURVE",
"686 -23 QCURVE",
"601 -23 OFFCURVE",
"439 26 OFFCURVE",
"312 139 OFFCURVE",
"235 324 OFFCURVE",
"235 459 QCURVE"
);
}
);
width = 1341;
}
);
unicode = 004F;
},
{
glyphname = Oslash;
layers = (
{
layerId = "DC66AB0F-19FD-4F06-8C39-5D32AA939720";
paths = (
{
closed = 1;
nodes = (
"396 214 LINE",
"428 188 OFFCURVE",
"504 165 OFFCURVE",
"543 165 QCURVE",
"643 165 OFFCURVE",
"827 272 OFFCURVE",
"968 473 OFFCURVE",
"1055 761 OFFCURVE",
"1059 943 QCURVE"
);
},
{
closed = 1;
nodes = (
"413 452 OFFCURVE",
"622 684 OFFCURVE",
"831 917 OFFCURVE",
"1037 1145 OFFCURVE",
"1135 1255 QCURVE",
"1088 1267 OFFCURVE",
"1033 1267 QCURVE",
"956 1267 OFFCURVE",
"787 1211 OFFCURVE",
"622 1109 OFFCURVE",
"472 966 OFFCURVE",
"358 793 OFFCURVE",
"291 593 OFFCURVE",
"291 486 QCURVE",
"291 400 OFFCURVE",
"312 339 QCURVE"
);
},
{
closed = 1;
nodes = (
"54 605 OFFCURVE",
"141 864 OFFCURVE",
"288 1083 OFFCURVE",
"481 1257 OFFCURVE",
"692 1378 OFFCURVE",
"909 1443 OFFCURVE",
"1007 1443 QCURVE",
"1076 1443 OFFCURVE",
"1204 1418 OFFCURVE",
"1258 1392 QCURVE",
"1353 1498 LINE",
"1379 1527 OFFCURVE",
"1419 1527 QCURVE",
"1435 1527 OFFCURVE",
"1468 1516 OFFCURVE",
"1494 1497 OFFCURVE",
"1510 1472 OFFCURVE",
"1510 1458 QCURVE",
"1510 1447 OFFCURVE",
"1506 1439 QCURVE",
"1503 1432 LINE",
"1383 1300 LINE",
"1399 1281 OFFCURVE",
"1431 1234 OFFCURVE",
"1456 1181 OFFCURVE",
"1471 1124 OFFCURVE",
"1471 1094 QCURVE",
"1471 1055 OFFCURVE",
"1426 1014 OFFCURVE",
"1400 1014 QCURVE",
"1371 1014 OFFCURVE",
"1321 1076 OFFCURVE",
"1298 1133 QCURVE",
"1287 1154 OFFCURVE",
"1269 1175 QCURVE",
"1203 1101 LINE",
"1226 1065 OFFCURVE",
"1244 956 OFFCURVE",
"1244 896 QCURVE",
"1244 760 OFFCURVE",
"1186 519 OFFCURVE",
"1083 314 OFFCURVE",
"942 151 OFFCURVE",
"778 38 OFFCURVE",
"597 -23 OFFCURVE",
"505 -23 QCURVE",
"435 -23 OFFCURVE",
"301 10 OFFCURVE",
"243 46 QCURVE",
"208 7 OFFCURVE",
"137 -70 OFFCURVE",
"104 -108 QCURVE",
"77 -139 OFFCURVE",
"40 -139 QCURVE",
"24 -139 OFFCURVE",
"-6 -128 OFFCURVE",
"-30 -110 OFFCURVE",
"-44 -87 OFFCURVE",
"-44 -75 QCURVE",
"-44 -67 OFFCURVE",
"-39 -52 OFFCURVE",
"-34 -47 QCURVE",
"8 0 OFFCURVE",
"93 95 OFFCURVE",
"138 146 QCURVE",
"99 202 OFFCURVE",
"54 356 OFFCURVE",
"54 459 QCURVE"
);
}
);
width = 1160;
}
);
unicode = 00D8;
},
{
glyphname = OE;
layers = (
{
layerId = "DC66AB0F-19FD-4F06-8C39-5D32AA939720";
paths = (
{
closed = 1;
nodes = (
"436 246 OFFCURVE",
"675 150 OFFCURVE",
"926 150 CURVE",
"1173 1267 LINE",
"866 1263 OFFCURVE",
"436 913 OFFCURVE",
"436 486 CURVE SMOOTH"
);
},
{
closed = 1;
nodes = (
"1508 825 LINE SMOOTH",
"1584 825 OFFCURVE",
"1622 802 OFFCURVE",
"1622 774 CURVE SMOOTH",
"1622 721 OFFCURVE",
"1562 701 OFFCURVE",
"1494 688 CURVE SMOOTH",
"1458 681 OFFCURVE",
"1362 679 OFFCURVE",
"1217 679 CURVE",
"1083 129 LINE",
"1607 129 OFFCURVE",
"1557 339 OFFCURVE",
"1766 339 CURVE SMOOTH",
"1822 339 OFFCURVE",
"1856 311 OFFCURVE",
"1856 260 CURVE SMOOTH",
"1856 156 OFFCURVE",
"1509 -38 OFFCURVE",
"977 -38 CURVE SMOOTH",
"532 -38 OFFCURVE",
"199 95 OFFCURVE",
"199 459 CURVE SMOOTH",
"199 1043 OFFCURVE",
"798 1443 OFFCURVE",
"1295 1443 CURVE SMOOTH",
"1623 1443 OFFCURVE",
"1838 1353 OFFCURVE",
"1867 1152 CURVE",
"1867 1141 LINE SMOOTH",
"1867 1089 OFFCURVE",
"1799 1027 OFFCURVE",
"1708 1027 CURVE SMOOTH",
"1652 1027 OFFCURVE",
"1646 1056 OFFCURVE",
"1646 1093 CURVE SMOOTH",
"1646 1124 LINE SMOOTH",
"1646 1136 OFFCURVE",
"1647 1149 OFFCURVE",
"1644 1161 CURVE",
"1636 1240 OFFCURVE",
"1505 1274 OFFCURVE",
"1350 1274 CURVE",
"1259 825 LINE"
);
}
);
width = 1581;
}
);
unicode = 0152;
},
{
glyphname = P;
layers = (
{
layerId = "DC66AB0F-19FD-4F06-8C39-5D32AA939720";
paths = (
{
closed = 1;
nodes = (
"744 495 OFFCURVE",
"698 377 OFFCURVE",
"644 249 OFFCURVE",
"583 123 OFFCURVE",
"516 24 OFFCURVE",
"445 -38 OFFCURVE",
"408 -38 QCURVE",
"377 -38 OFFCURVE",
"337 -19 OFFCURVE",
"315 10 OFFCURVE",
"306 45 OFFCURVE",
"306 61 QCURVE",
"306 85 OFFCURVE",
"321 135 OFFCURVE",
"332 156 QCURVE",
"715 861 LINE",
"740 905 OFFCURVE",
"785 955 OFFCURVE",
"824 979 OFFCURVE",
"854 984 OFFCURVE",
"864 984 QCURVE",
"882 984 OFFCURVE",
"912 959 OFFCURVE",
"912 926 QCURVE",
"912 894 OFFCURVE",
"878 782 OFFCURVE",
"832 694 QCURVE",
"910 700 OFFCURVE",
"1062 741 OFFCURVE",
"1183 813 OFFCURVE",
"1257 916 OFFCURVE",
"1257 984 QCURVE",
"1257 1044 OFFCURVE",
"1218 1153 OFFCURVE",
"1143 1236 OFFCURVE",
"1033 1285 OFFCURVE",
"961 1285 QCURVE",
"863 1285 OFFCURVE",
"722 1248 OFFCURVE",
"621 1188 OFFCURVE",
"553 1110 OFFCURVE",
"504 1030 OFFCURVE",
"466 952 OFFCURVE",
"425 892 OFFCURVE",
"373 855 OFFCURVE",
"335 855 QCURVE",
"286 855 OFFCURVE",
"239 905 OFFCURVE",
"239 997 OFFCURVE",
"289 1106 OFFCURVE",
"381 1216 OFFCURVE",
"512 1317 OFFCURVE",
"676 1395 OFFCURVE",
"869 1442 OFFCURVE",
"976 1442 QCURVE",
"1076 1442 OFFCURVE",
"1261 1385 OFFCURVE",
"1403 1271 OFFCURVE",
"1488 1100 OFFCURVE",
"1488 985 QCURVE",
"1488 880 OFFCURVE",
"1387 711 OFFCURVE",
"1216 594 OFFCURVE",
"992 531 OFFCURVE",
"868 531 QCURVE",
"842 531 OFFCURVE",
"789 533 OFFCURVE",
"763 537 QCURVE"
);
}
);
width = 1191;
}
);
unicode = 0050;
},
{
glyphname = Thorn;
layers = (
{
layerId = "DC66AB0F-19FD-4F06-8C39-5D32AA939720";
paths = (
{
closed = 1;
nodes = (
"1102 902 OFFCURVE",
"1081 985 OFFCURVE",
"1039 1057 OFFCURVE",
"978 1114 OFFCURVE",
"938 1132 QCURVE",
"903 1052 OFFCURVE",
"823 877 OFFCURVE",
"750 718 OFFCURVE",
"691 595 OFFCURVE",
"677 568 QCURVE",
"755 574 OFFCURVE",
"907 615 OFFCURVE",
"1028 687 OFFCURVE",
"1102 790 OFFCURVE",
"1102 858 QCURVE"
);
},
{
closed = 1;
nodes = (
"589 369 OFFCURVE",
"550 269 OFFCURVE",
"508 170 OFFCURVE",
"460 77 OFFCURVE",
"405 5 OFFCURVE",
"341 -38 OFFCURVE",
"304 -38 QCURVE",
"273 -38 OFFCURVE",
"233 -19 OFFCURVE",
"211 10 OFFCURVE",
"202 45 OFFCURVE",
"202 61 QCURVE",
"202 85 OFFCURVE",
"217 135 OFFCURVE",
"228 156 QCURVE",
"756 1157 LINE",
"669 1152 OFFCURVE",
"543 1110 OFFCURVE",
"452 1048 OFFCURVE",
"390 972 OFFCURVE",
"344 894 OFFCURVE",
"307 821 OFFCURVE",
"267 764 OFFCURVE",
"217 729 OFFCURVE",
"180 729 QCURVE",
"131 729 OFFCURVE",
"84 779 OFFCURVE",
"84 871 OFFCURVE",
"134 980 OFFCURVE",
"226 1090 OFFCURVE",
"357 1191 OFFCURVE",
"521 1269 OFFCURVE",
"714 1316 OFFCURVE",
"821 1316 QCURVE",
"823 1316 OFFCURVE",
"829 1315 OFFCURVE",
"832 1315 QCURVE",
"839 1315 LINE",
"842 1320 LINE",
"867 1364 OFFCURVE",
"912 1414 OFFCURVE",
"951 1438 OFFCURVE",
"981 1443 OFFCURVE",
"991 1443 QCURVE",
"1009 1443 OFFCURVE",
"1039 1418 OFFCURVE",
"1039 1385 QCURVE",
"1039 1378 OFFCURVE",
"1020 1328 OFFCURVE",
"1005 1290 QCURVE",
"1075 1269 OFFCURVE",
"1195 1195 OFFCURVE",
"1283 1087 OFFCURVE",
"1333 946 OFFCURVE",
"1333 859 QCURVE",
"1333 754 OFFCURVE",
"1232 585 OFFCURVE",
"1061 468 OFFCURVE",
"837 405 OFFCURVE",
"713 405 QCURVE",
"687 405 OFFCURVE",
"634 407 OFFCURVE",
"608 411 QCURVE"
);
}
);
width = 1088;
}
);
unicode = 00DE;
},
{
glyphname = Q;
layers = (
{
layerId = "DC66AB0F-19FD-4F06-8C39-5D32AA939720";
paths = (
{
closed = 1;
nodes = (
"210 605 OFFCURVE",
"297 864 OFFCURVE",
"444 1083 OFFCURVE",
"637 1257 OFFCURVE",
"848 1378 OFFCURVE",
"1065 1443 OFFCURVE",
"1163 1443 QCURVE",
"1250 1443 OFFCURVE",
"1407 1403 OFFCURVE",
"1530 1321 OFFCURVE",
"1612 1196 OFFCURVE",
"1626 1112 QCURVE",
"1627 1107 OFFCURVE",
"1627 1099 OFFCURVE",
"1627 1094 QCURVE",
"1627 1055 OFFCURVE",
"1582 1014 OFFCURVE",
"1556 1014 QCURVE",
"1527 1014 OFFCURVE",
"1477 1076 OFFCURVE",
"1454 1133 QCURVE",
"1417 1203 OFFCURVE",
"1277 1267 OFFCURVE",
"1189 1267 QCURVE",
"1112 1267 OFFCURVE",
"943 1211 OFFCURVE",
"778 1109 OFFCURVE",
"628 966 OFFCURVE",
"514 793 OFFCURVE",
"447 593 OFFCURVE",
"447 486 QCURVE",
"447 397 OFFCURVE",
"491 275 OFFCURVE",
"563 199 OFFCURVE",
"653 165 OFFCURVE",
"699 165 QCURVE",
"704 165 LINE",
"701 176 OFFCURVE",
"698 199 OFFCURVE",
"698 209 QCURVE",
"698 231 OFFCURVE",
"713 264 OFFCURVE",
"738 287 OFFCURVE",
"771 299 OFFCURVE",
"788 299 QCURVE",
"819 299 OFFCURVE",
"876 260 OFFCURVE",
"889 220 QCURVE",
"979 280 OFFCURVE",
"1104 435 OFFCURVE",
"1180 635 OFFCURVE",
"1214 886 OFFCURVE",
"1214 1042 QCURVE",
"1214 1097 OFFCURVE",
"1262 1149 OFFCURVE",
"1293 1149 QCURVE",
"1326 1149 OFFCURVE",
"1367 1106 OFFCURVE",
"1391 1035 OFFCURVE",
"1400 944 OFFCURVE",
"1400 896 QCURVE",
"1400 740 OFFCURVE",
"1324 468 OFFCURVE",
"1192 248 OFFCURVE",
"1016 84 OFFCURVE",
"916 37 QCURVE",
"933 -43 OFFCURVE",
"988 -151 OFFCURVE",
"1056 -217 OFFCURVE",
"1133 -245 OFFCURVE",
"1174 -245 QCURVE",
"1208 -245 OFFCURVE",
"1278 -230 OFFCURVE",
"1339 -206 OFFCURVE",
"1388 -177 OFFCURVE",
"1402 -163 QCURVE",
"1408 -160 OFFCURVE",
"1417 -155 OFFCURVE",
"1423 -155 QCURVE",
"1439 -155 OFFCURVE",
"1464 -185 OFFCURVE",
"1464 -208 QCURVE",
"1464 -228 OFFCURVE",
"1442 -273 OFFCURVE",
"1416 -297 QCURVE",
"1358 -363 OFFCURVE",
"1226 -427 OFFCURVE",
"1158 -427 QCURVE",
"1096 -427 OFFCURVE",
"976 -375 OFFCURVE",
"869 -272 OFFCURVE",
"779 -118 OFFCURVE",
"747 -16 QCURVE",
"725 -19 OFFCURVE",
"683 -23 OFFCURVE",
"661 -23 QCURVE",
"576 -23 OFFCURVE",
"414 26 OFFCURVE",
"287 139 OFFCURVE",
"210 324 OFFCURVE",
"210 459 QCURVE"
);
}
);
width = 1315;
}
);
unicode = 0051;
},
{
glyphname = R;
layers = (
{
layerId = "DC66AB0F-19FD-4F06-8C39-5D32AA939720";
paths = (
{
closed = 1;
nodes = (
"713 650 OFFCURVE",
"726 650 OFFCURVE",
"733 650 QCURVE",
"820 650 OFFCURVE",
"975 725 OFFCURVE",
"1091 841 OFFCURVE",
"1158 983 OFFCURVE",
"1158 1050 QCURVE",
"1158 1098 OFFCURVE",
"1123 1184 OFFCURVE",
"1048 1248 OFFCURVE",
"931 1286 OFFCURVE",
"850 1286 QCURVE",
"759 1286 OFFCURVE",
"628 1252 OFFCURVE",
"533 1198 OFFCURVE",
"468 1128 OFFCURVE",
"421 1054 OFFCURVE",
"383 984 OFFCURVE",
"342 930 OFFCURVE",
"292 896 OFFCURVE",
"255 896 QCURVE",
"205 896 OFFCURVE",
"155 947 OFFCURVE",
"155 993 QCURVE",
"155 1036 OFFCURVE",
"202 1136 OFFCURVE",
"289 1236 OFFCURVE",
"415 1329 OFFCURVE",
"572 1400 OFFCURVE",
"758 1443 OFFCURVE",
"862 1443 QCURVE",
"964 1443 OFFCURVE",
"1151 1391 OFFCURVE",
"1295 1288 OFFCURVE",
"1380 1132 OFFCURVE",
"1380 1028 QCURVE",
"1380 958 OFFCURVE",
"1329 831 OFFCURVE",
"1243 720 OFFCURVE",
"1128 627 OFFCURVE",
"998 555 OFFCURVE",
"861 505 OFFCURVE",
"797 494 QCURVE",
"806 447 OFFCURVE",
"847 330 OFFCURVE",
"906 225 OFFCURVE",
"978 151 OFFCURVE",
"1018 148 QCURVE",
"1026 147 OFFCURVE",
"1040 147 OFFCURVE",
"1047 147 QCURVE",
"1120 147 OFFCURVE",
"1234 195 OFFCURVE",
"1272 224 QCURVE",
"1317 257 OFFCURVE",
"1350 301 QCURVE",
"1381 336 OFFCURVE",
"1413 336 QCURVE",
"1433 336 OFFCURVE",
"1461 308 OFFCURVE",
"1461 284 QCURVE",
"1461 261 OFFCURVE",
"1432 200 OFFCURVE",
"1397 167 QCURVE",
"1294 70 OFFCURVE",
"1097 -19 OFFCURVE",
"1009 -19 QCURVE",
"937 -19 OFFCURVE",
"815 63 OFFCURVE",
"715 203 OFFCURVE",
"633 390 OFFCURVE",
"601 494 QCURVE",
"583 453 OFFCURVE",
"545 342 OFFCURVE",
"501 224 OFFCURVE",
"453 109 OFFCURVE",
"395 18 OFFCURVE",
"329 -38 OFFCURVE",
"290 -38 QCURVE",
"258 -38 OFFCURVE",
"218 -18 OFFCURVE",
"196 12 OFFCURVE",
"187 48 OFFCURVE",
"187 64 QCURVE",
"187 87 OFFCURVE",
"199 135 OFFCURVE",
"210 156 QCURVE",
"505 696 LINE",
"543 764 OFFCURVE",
"620 891 OFFCURVE",
"693 989 OFFCURVE",
"758 1048 OFFCURVE",
"784 1048 QCURVE",
"791 1048 OFFCURVE",
"811 1043 OFFCURVE",
"827 1030 OFFCURVE",
"839 1005 OFFCURVE",
"839 967 OFFCURVE",
"817 899 OFFCURVE",
"781 811 OFFCURVE",
"733 706 OFFCURVE",
"707 651 QCURVE"
);
}
);
width = 1219;
}
);
unicode = 0052;
},
{
glyphname = S;
layers = (
{
layerId = "DC66AB0F-19FD-4F06-8C39-5D32AA939720";
paths = (
{
closed = 1;
nodes = (
"564 557 OFFCURVE",
"591 510 OFFCURVE",
"591 480 QCURVE",
"591 465 OFFCURVE",
"585 443 OFFCURVE",
"567 424 OFFCURVE",
"537 407 OFFCURVE",
"513 397 QCURVE",
"457 373 OFFCURVE",
"393 306 OFFCURVE",
"393 273 QCURVE",
"393 252 OFFCURVE",
"421 214 OFFCURVE",
"481 185 OFFCURVE",
"576 168 OFFCURVE",
"643 168 QCURVE",
"712 168 OFFCURVE",
"836 201 OFFCURVE",
"929 261 OFFCURVE",
"984 343 OFFCURVE",
"984 391 QCURVE",
"984 427 OFFCURVE",
"924 505 OFFCURVE",
"859 547 QCURVE",
"744 622 OFFCURVE",
"625 714 OFFCURVE",
"611 726 QCURVE",
"536 792 OFFCURVE",
"462 914 OFFCURVE",
"462 980 QCURVE",
"462 1041 OFFCURVE",
"521 1157 OFFCURVE",
"621 1259 OFFCURVE",
"752 1346 OFFCURVE",
"895 1408 OFFCURVE",
"1040 1443 OFFCURVE",
"1105 1443 QCURVE",
"1154 1443 OFFCURVE",
"1237 1421 OFFCURVE",
"1299 1374 OFFCURVE",
"1334 1300 OFFCURVE",
"1334 1248 QCURVE",
"1334 1173 OFFCURVE",
"1248 1037 OFFCURVE",
"1160 978 QCURVE",
"1121 951 OFFCURVE",
"1088 951 QCURVE",
"1054 951 OFFCURVE",
"1014 1000 OFFCURVE",
"1014 1033 QCURVE",
"1014 1061 OFFCURVE",
"1047 1117 OFFCURVE",
"1084 1137 QCURVE",
"1113 1152 OFFCURVE",
"1158 1203 OFFCURVE",
"1158 1227 QCURVE",
"1158 1250 OFFCURVE",
"1127 1264 OFFCURVE",
"1105 1264 QCURVE",
"1063 1264 OFFCURVE",
"964 1243 OFFCURVE",
"865 1207 OFFCURVE",
"772 1157 OFFCURVE",
"701 1099 OFFCURVE",
"658 1034 OFFCURVE",
"658 1002 QCURVE",
"658 980 OFFCURVE",
"676 942 OFFCURVE",
"711 904 OFFCURVE",
"761 863 OFFCURVE",
"794 839 QCURVE",
"1028 666 LINE",
"1073 633 OFFCURVE",
"1144 570 OFFCURVE",
"1192 507 OFFCURVE",
"1218 443 OFFCURVE",
"1218 407 QCURVE",
"1218 327 OFFCURVE",
"1135 174 OFFCURVE",
"982 54 OFFCURVE",
"767 -20 OFFCURVE",
"636 -20 QCURVE",
"514 -20 OFFCURVE",
"343 19 OFFCURVE",
"233 86 OFFCURVE",
"183 173 OFFCURVE",
"183 221 QCURVE",
"183 271 OFFCURVE",
"234 374 OFFCURVE",
"327 466 OFFCURVE",
"457 538 OFFCURVE",
"535 557 QCURVE"
);
}
);
width = 1196;
}
);
unicode = 0053;
},
{
glyphname = T;
layers = (
{
layerId = "DC66AB0F-19FD-4F06-8C39-5D32AA939720";
paths = (
{
closed = 1;
nodes = (
"514 17 OFFCURVE",
"472 -29 OFFCURVE",
"424 -59 OFFCURVE",
"374 -74 OFFCURVE",
"352 -74 QCURVE",
"320 -74 OFFCURVE",
"276 -41 OFFCURVE",
"276 -9 QCURVE",
"276 2 OFFCURVE",
"281 29 OFFCURVE",
"289 45 QCURVE",
"365 202 OFFCURVE",
"516 492 OFFCURVE",
"657 744 OFFCURVE",
"783 951 OFFCURVE",
"886 1098 OFFCURVE",
"959 1178 OFFCURVE",
"976 1178 QCURVE",
"1011 1178 OFFCURVE",
"1045 1138 OFFCURVE",
"1045 1111 QCURVE",
"1045 1089 OFFCURVE",
"1034 1067 QCURVE",
"1009 1016 OFFCURVE",
"946 887 OFFCURVE",
"876 742 OFFCURVE",
"800 587 OFFCURVE",
"726 434 OFFCURVE",
"655 291 OFFCURVE",
"594 169 OFFCURVE",
"545 74 OFFCURVE",
"529 47 QCURVE"
);
},
{
closed = 1;
nodes = (
"1698 1199 OFFCURVE",
"1671 1134 OFFCURVE",
"1622 1072 OFFCURVE",
"1553 1026 OFFCURVE",
"1511 1026 QCURVE",
"1501 1026 OFFCURVE",
"1471 1029 OFFCURVE",
"1442 1041 OFFCURVE",
"1422 1063 OFFCURVE",
"1422 1081 QCURVE",
"1422 1090 OFFCURVE",
"1440 1123 OFFCURVE",
"1461 1161 OFFCURVE",
"1479 1197 OFFCURVE",
"1479 1209 QCURVE",
"1479 1243 OFFCURVE",
"1383 1274 OFFCURVE",
"1270 1274 QCURVE",
"1157 1270 OFFCURVE",
"975 1251 OFFCURVE",
"821 1222 OFFCURVE",
"687 1184 OFFCURVE",
"557 1141 OFFCURVE",
"424 1092 OFFCURVE",
"349 1067 QCURVE",
"342 1065 OFFCURVE",
"329 1061 OFFCURVE",
"324 1061 QCURVE",
"308 1061 OFFCURVE",
"282 1075 OFFCURVE",
"263 1099 OFFCURVE",
"252 1129 OFFCURVE",
"252 1145 QCURVE",
"252 1171 OFFCURVE",
"336 1236 OFFCURVE",
"482 1302 OFFCURVE",
"680 1365 OFFCURVE",
"909 1414 OFFCURVE",
"1158 1443 OFFCURVE",
"1282 1443 QCURVE",
"1389 1443 OFFCURVE",
"1545 1409 OFFCURVE",
"1647 1349 OFFCURVE",
"1697 1266 OFFCURVE",
"1698 1217 QCURVE"
);
}
);
width = 1015;
}
);
unicode = 0054;
},
{
glyphname = U;
layers = (
{
layerId = "DC66AB0F-19FD-4F06-8C39-5D32AA939720";
paths = (
{
closed = 1;
nodes = (
"601 1407 OFFCURVE",
"666 1443 OFFCURVE",
"697 1443 QCURVE",
"714 1443 OFFCURVE",
"745 1436 OFFCURVE",
"769 1419 OFFCURVE",
"783 1390 OFFCURVE",
"783 1369 QCURVE",
"783 1343 OFFCURVE",
"761 1275 OFFCURVE",
"736 1227 QCURVE",
"636 1050 OFFCURVE",
"500 658 OFFCURVE",
"459 462 QCURVE",
"455 437 OFFCURVE",
"453 391 OFFCURVE",
"453 370 QCURVE",
"453 311 OFFCURVE",
"483 229 OFFCURVE",
"532 179 OFFCURVE",
"592 157 OFFCURVE",
"622 157 QCURVE",
"735 157 OFFCURVE",
"943 319 OFFCURVE",
"1106 616 OFFCURVE",
"1209 1033 OFFCURVE",
"1217 1289 QCURVE",
"1218 1316 OFFCURVE",
"1236 1357 OFFCURVE",
"1264 1383 OFFCURVE",
"1301 1396 OFFCURVE",
"1320 1396 QCURVE",
"1344 1396 OFFCURVE",
"1375 1361 OFFCURVE",
"1393 1303 OFFCURVE",
"1400 1226 OFFCURVE",
"1400 1184 QCURVE",
"1400 1007 OFFCURVE",
"1335 690 OFFCURVE",
"1221 421 OFFCURVE",
"1066 206 OFFCURVE",
"884 55 OFFCURVE",
"685 -26 OFFCURVE",
"585 -26 QCURVE",
"523 -26 OFFCURVE",
"398 26 OFFCURVE",
"298 126 OFFCURVE",
"236 270 OFFCURVE",
"236 362 QCURVE",
"236 379 OFFCURVE",
"238 416 OFFCURVE",
"241 435 QCURVE",
"254 512 OFFCURVE",
"285 651 OFFCURVE",
"325 786 OFFCURVE",
"375 924 OFFCURVE",
"440 1077 OFFCURVE",
"523 1251 OFFCURVE",
"575 1355 QCURVE"
);
}
);
width = 1195;
}
);
unicode = 0055;
},
{
glyphname = V;
layers = (
{
layerId = "DC66AB0F-19FD-4F06-8C39-5D32AA939720";
paths = (
{
closed = 1;
nodes = (
"1259 1199 OFFCURVE",
"1224 1111 OFFCURVE",
"1169 990 OFFCURVE",
"1095 844 OFFCURVE",
"1011 688 OFFCURVE",
"921 528 OFFCURVE",
"876 454 QCURVE",
"801 330 OFFCURVE",
"660 126 OFFCURVE",
"602 57 QCURVE",
"610 42 OFFCURVE",
"610 27 QCURVE",
"610 4 OFFCURVE",
"571 -32 OFFCURVE",
"508 -56 OFFCURVE",
"428 -69 OFFCURVE",
"386 -69 QCURVE",
"354 -69 OFFCURVE",
"321 -40 OFFCURVE",
"321 -17 QCURVE",
"321 11 OFFCURVE",
"348 47 OFFCURVE",
"367 55 QCURVE",
"364 76 OFFCURVE",
"350 160 OFFCURVE",
"334 270 OFFCURVE",
"316 398 OFFCURVE",
"300 528 OFFCURVE",
"286 653 OFFCURVE",
"283 704 QCURVE",
"278 776 OFFCURVE",
"272 904 OFFCURVE",
"272 961 QCURVE",
"272 1015 OFFCURVE",
"278 1106 OFFCURVE",
"283 1141 QCURVE",
"289 1177 OFFCURVE",
"326 1244 OFFCURVE",
"377 1297 OFFCURVE",
"437 1328 OFFCURVE",
"466 1328 QCURVE",
"499 1328 OFFCURVE",
"526 1273 OFFCURVE",
"526 1223 QCURVE",
"526 1191 OFFCURVE",
"516 1110 OFFCURVE",
"510 1074 QCURVE",
"504 1036 OFFCURVE",
"500 1012 QCURVE",
"495 989 LINE",
"492 971 OFFCURVE",
"490 922 OFFCURVE",
"490 891 QCURVE",
"490 827 OFFCURVE",
"500 661 OFFCURVE",
"516 488 OFFCURVE",
"537 324 OFFCURVE",
"548 262 QCURVE",
"617 352 OFFCURVE",
"759 577 OFFCURVE",
"819 699 QCURVE",
"870 800 OFFCURVE",
"969 1012 OFFCURVE",
"1020 1113 QCURVE",
"1112 1282 OFFCURVE",
"1188 1282 QCURVE",
"1220 1282 OFFCURVE",
"1262 1262 OFFCURVE",
"1262 1233 QCURVE",
"1262 1224 OFFCURVE",
"1261 1219 QCURVE"
);
}
);
width = 968;
}
);
unicode = 0056;
},
{
glyphname = W;
layers = (
{
layerId = "DC66AB0F-19FD-4F06-8C39-5D32AA939720";
paths = (
{
closed = 1;
nodes = (
"1595 923 OFFCURVE",
"1372 487 QCURVE",
"1311 363 OFFCURVE",
"1215 175 OFFCURVE",
"1127 48 OFFCURVE",
"1038 -16 OFFCURVE",
"984 -16 QCURVE",
"947 -16 OFFCURVE",
"895 20 OFFCURVE",
"857 123 OFFCURVE",
"831 309 OFFCURVE",
"821 460 QCURVE",
"598 133 LINE",
"568 89 OFFCURVE",
"515 28 OFFCURVE",
"464 -9 OFFCURVE",
"410 -25 OFFCURVE",
"380 -25 QCURVE",
"337 -25 OFFCURVE",
"280 25 OFFCURVE",
"280 73 QCURVE",
"280 144 OFFCURVE",
"281 315 OFFCURVE",
"289 526 OFFCURVE",
"306 781 OFFCURVE",
"322 937 QCURVE",
"287 896 OFFCURVE",
"239 860 OFFCURVE",
"224 860 QCURVE",
"211 860 OFFCURVE",
"199 882 OFFCURVE",
"199 901 QCURVE",
"199 934 OFFCURVE",
"233 1036 OFFCURVE",
"297 1152 OFFCURVE",
"392 1267 OFFCURVE",
"454 1312 QCURVE",
"466 1320 OFFCURVE",
"481 1320 QCURVE",
"499 1320 OFFCURVE",
"532 1294 OFFCURVE",
"557 1252 OFFCURVE",
"572 1200 OFFCURVE",
"572 1175 QCURVE",
"572 1151 OFFCURVE",
"569 1135 QCURVE",
"564 1113 OFFCURVE",
"555 1079 OFFCURVE",
"545 1031 OFFCURVE",
"533 954 OFFCURVE",
"525 889 QCURVE",
"515 807 OFFCURVE",
"504 641 OFFCURVE",
"496 472 OFFCURVE",
"489 300 OFFCURVE",
"485 212 QCURVE",
"507 239 OFFCURVE",
"565 324 OFFCURVE",
"627 419 OFFCURVE",
"687 515 OFFCURVE",
"711 554 QCURVE",
"736 592 OFFCURVE",
"750 616 QCURVE",
"764 641 LINE",
"801 735 OFFCURVE",
"877 917 OFFCURVE",
"914 1007 QCURVE",
"950 1095 OFFCURVE",
"1030 1191 OFFCURVE",
"1077 1191 QCURVE",
"1115 1191 OFFCURVE",
"1161 1164 OFFCURVE",
"1161 1143 QCURVE",
"1161 1108 OFFCURVE",
"1126 1013 OFFCURVE",
"1080 905 OFFCURVE",
"1035 791 OFFCURVE",
"1024 739 QCURVE",
"1019 652 OFFCURVE",
"1013 530 OFFCURVE",
"1013 479 QCURVE",
"1013 416 OFFCURVE",
"1015 278 OFFCURVE",
"1023 215 QCURVE",
"1063 273 OFFCURVE",
"1150 408 OFFCURVE",
"1236 552 OFFCURVE",
"1316 703 OFFCURVE",
"1384 853 OFFCURVE",
"1434 998 OFFCURVE",
"1447 1064 QCURVE",
"1460 1139 LINE",
"1460 1143 OFFCURVE",
"1462 1151 OFFCURVE",
"1462 1155 QCURVE",
"1468 1185 OFFCURVE",
"1482 1233 OFFCURVE",
"1505 1266 OFFCURVE",
"1540 1284 OFFCURVE",
"1566 1284 QCURVE",
"1609 1284 OFFCURVE",
"1648 1266 OFFCURVE",
"1648 1235 QCURVE",
"1648 1225 OFFCURVE",
"1645 1205 OFFCURVE",
"1643 1191 QCURVE"
);
}
);
width = 1372;
}
);
unicode = 0057;
},
{
glyphname = X;
layers = (
{
layerId = "DC66AB0F-19FD-4F06-8C39-5D32AA939720";
paths = (
{
closed = 1;
nodes = (
"1219 1388 OFFCURVE",
"1269 1421 OFFCURVE",
"1321 1444 OFFCURVE",
"1371 1457 OFFCURVE",
"1391 1457 QCURVE",
"1414 1457 OFFCURVE",
"1433 1441 OFFCURVE",
"1433 1427 QCURVE",
"1433 1406 OFFCURVE",
"1396 1341 OFFCURVE",
"1345 1272 OFFCURVE",
"1290 1208 OFFCURVE",
"1272 1188 QCURVE",
"1136 1036 OFFCURVE",
"895 770 OFFCURVE",
"786 655 QCURVE",
"809 573 OFFCURVE",
"849 451 OFFCURVE",
"887 352 OFFCURVE",
"925 268 OFFCURVE",
"971 183 OFFCURVE",
"1025 88 OFFCURVE",
"1060 27 QCURVE",
"1065 18 OFFCURVE",
"1065 9 QCURVE",
"1065 -3 OFFCURVE",
"1048 -21 OFFCURVE",
"1023 -34 OFFCURVE",
"992 -41 OFFCURVE",
"978 -41 QCURVE",
"939 -41 OFFCURVE",
"863 12 OFFCURVE",
"779 135 OFFCURVE",
"684 337 OFFCURVE",
"625 486 QCURVE",
"515 371 OFFCURVE",
"346 202 OFFCURVE",
"217 82 OFFCURVE",
"120 6 OFFCURVE",
"45 -37 OFFCURVE",
"-15 -53 OFFCURVE",
"-44 -53 QCURVE",
"-67 -53 OFFCURVE",
"-102 -27 OFFCURVE",
"-102 7 QCURVE",
"-102 38 OFFCURVE",
"-63 86 OFFCURVE",
"-9 123 OFFCURVE",
"46 150 OFFCURVE",
"61 161 QCURVE",
"107 192 OFFCURVE",
"218 289 OFFCURVE",
"346 415 OFFCURVE",
"488 566 OFFCURVE",
"565 652 QCURVE",
"517 793 OFFCURVE",
"455 1016 OFFCURVE",
"432 1112 QCURVE",
"417 1174 OFFCURVE",
"393 1271 OFFCURVE",
"393 1300 QCURVE",
"393 1327 OFFCURVE",
"432 1395 OFFCURVE",
"490 1456 OFFCURVE",
"556 1497 OFFCURVE",
"583 1497 QCURVE",
"614 1497 OFFCURVE",
"660 1432 OFFCURVE",
"660 1352 QCURVE",
"660 1337 OFFCURVE",
"657 1320 OFFCURVE",
"651 1308 OFFCURVE",
"643 1296 OFFCURVE",
"638 1286 QCURVE",
"637 1283 OFFCURVE",
"637 1273 QCURVE",
"637 1235 OFFCURVE",
"687 1023 OFFCURVE",
"732 854 QCURVE",
"732 852 OFFCURVE",
"734 846 QCURVE",
"794 917 LINE",
"851 975 OFFCURVE",
"946 1090 OFFCURVE",
"1038 1203 OFFCURVE",
"1137 1314 OFFCURVE",
"1198 1367 QCURVE"
);
}
);
width = 1087;
}
);
unicode = 0058;
},
{
glyphname = Y;
layers = (
{
layerId = "DC66AB0F-19FD-4F06-8C39-5D32AA939720";
paths = (
{
closed = 1;
nodes = (
"638 665 LINE",
"578 735 OFFCURVE",
"482 901 OFFCURVE",
"461 997 QCURVE",
"444 1055 OFFCURVE",
"431 1155 OFFCURVE",
"431 1198 QCURVE",
"431 1255 OFFCURVE",
"460 1347 OFFCURVE",
"509 1410 OFFCURVE",
"573 1444 OFFCURVE",
"609 1444 QCURVE",
"682 1444 OFFCURVE",
"682 1367 QCURVE",
"682 1353 OFFCURVE",
"671 1310 OFFCURVE",
"659 1258 OFFCURVE",
"648 1200 OFFCURVE",
"648 1172 QCURVE",
"648 1113 OFFCURVE",
"675 995 OFFCURVE",
"722 887 OFFCURVE",
"782 794 OFFCURVE",
"815 760 QCURVE",
"889 808 LINE",
"948 846 OFFCURVE",
"1065 928 OFFCURVE",
"1112 974 QCURVE",
"1149 1018 OFFCURVE",
"1206 1102 OFFCURVE",
"1247 1176 OFFCURVE",
"1271 1236 OFFCURVE",
"1276 1256 QCURVE",
"1285 1298 OFFCURVE",
"1303 1358 OFFCURVE",
"1337 1396 OFFCURVE",
"1398 1414 OFFCURVE",
"1450 1414 QCURVE",
"1498 1414 OFFCURVE",
"1498 1346 QCURVE",
"1498 1342 OFFCURVE",
"1490 1280 OFFCURVE",
"1451 1174 OFFCURVE",
"1370 1030 OFFCURVE",
"1297 945 QCURVE",
"1250 900 OFFCURVE",
"1145 818 OFFCURVE",
"1032 743 OFFCURVE",
"916 673 OFFCURVE",
"859 639 QCURVE",
"815 613 LINE",
"613 231 LINE",
"584 175 OFFCURVE",
"559 116 OFFCURVE",
"557 105 QCURVE",
"557 52 OFFCURVE",
"526 -24 OFFCURVE",
"479 -75 OFFCURVE",
"423 -99 OFFCURVE",
"398 -99 QCURVE",
"361 -99 OFFCURVE",
"308 -55 OFFCURVE",
"308 -12 QCURVE",
"308 4 OFFCURVE",
"310 24 OFFCURVE",
"322 56 OFFCURVE",
"349 111 OFFCURVE",
"374 164 QCURVE"
);
}
);
width = 969;
}
);
unicode = 0059;
},
{
glyphname = Z;
layers = (
{
layerId = "DC66AB0F-19FD-4F06-8C39-5D32AA939720";
paths = (
{
closed = 1;
nodes = (
"1512 1282 OFFCURVE",
"1532 1282 QCURVE",
"1558 1282 OFFCURVE",
"1602 1243 OFFCURVE",
"1602 1214 QCURVE",
"1602 1197 OFFCURVE",
"1581 1159 OFFCURVE",
"1556 1141 QCURVE",
"1515 1111 OFFCURVE",
"1434 1038 OFFCURVE",
"1397 1003 QCURVE",
"1323 927 OFFCURVE",
"1174 757 OFFCURVE",
"1023 576 OFFCURVE",
"869 390 OFFCURVE",
"790 297 QCURVE",
"828 288 OFFCURVE",
"901 248 OFFCURVE",
"974 209 OFFCURVE",
"1047 179 OFFCURVE",
"1085 179 QCURVE",
"1168 179 OFFCURVE",
"1295 237 OFFCURVE",
"1397 335 OFFCURVE",
"1479 465 OFFCURVE",
"1518 538 QCURVE",
"1531 556 OFFCURVE",
"1564 571 OFFCURVE",
"1581 571 QCURVE",
"1600 571 OFFCURVE",
"1636 556 OFFCURVE",
"1664 534 OFFCURVE",
"1682 508 OFFCURVE",
"1682 497 QCURVE",
"1682 493 OFFCURVE",
"1678 485 QCURVE",
"1639 378 OFFCURVE",
"1513 193 OFFCURVE",
"1352 57 OFFCURVE",
"1160 -21 OFFCURVE",
"1055 -21 QCURVE",
"1032 -21 OFFCURVE",
"985 0 OFFCURVE",
"934 32 OFFCURVE",
"877 69 OFFCURVE",
"812 101 OFFCURVE",
"737 122 OFFCURVE",
"694 122 QCURVE",
"677 122 OFFCURVE",
"634 115 OFFCURVE",
"592 103 OFFCURVE",
"556 88 OFFCURVE",
"546 81 QCURVE",
"507 54 OFFCURVE",
"429 -1 OFFCURVE",
"390 -28 QCURVE",
"376 -37 OFFCURVE",
"363 -37 QCURVE",
"349 -37 OFFCURVE",
"323 -21 OFFCURVE",
"303 4 OFFCURVE",
"291 35 OFFCURVE",
"291 51 QCURVE",
"291 65 OFFCURVE",
"300 88 OFFCURVE",
"313 99 QCURVE",
"350 129 OFFCURVE",
"422 190 OFFCURVE",
"459 221 QCURVE",
"478 234 OFFCURVE",
"511 258 OFFCURVE",
"550 293 OFFCURVE",
"601 345 OFFCURVE",
"673 427 OFFCURVE",
"772 544 OFFCURVE",
"907 709 OFFCURVE",
"1084 927 OFFCURVE",
"1199 1070 QCURVE",
"1179 1068 OFFCURVE",
"1141 1064 OFFCURVE",
"1121 1064 QCURVE",
"1074 1064 OFFCURVE",
"971 1087 OFFCURVE",
"866 1114 OFFCURVE",
"762 1137 OFFCURVE",
"714 1137 QCURVE",
"682 1137 OFFCURVE",
"617 1105 OFFCURVE",
"556 1067 OFFCURVE",
"502 1035 OFFCURVE",
"482 1035 QCURVE",
"464 1035 OFFCURVE",
"442 1058 OFFCURVE",
"442 1077 QCURVE",
"442 1088 OFFCURVE",
"452 1118 OFFCURVE",
"464 1132 QCURVE",
"493 1166 OFFCURVE",
"571 1228 OFFCURVE",
"658 1275 OFFCURVE",
"752 1303 OFFCURVE",
"797 1303 QCURVE",
"816 1303 OFFCURVE",
"834 1300 QCURVE",
"927 1287 OFFCURVE",
"1055 1257 OFFCURVE",
"1150 1232 OFFCURVE",
"1222 1216 OFFCURVE",
"1259 1216 QCURVE",
"1304 1216 OFFCURVE",
"1373 1220 OFFCURVE",
"1429 1232 OFFCURVE",
"1474 1253 OFFCURVE",
"1496 1270 QCURVE"
);
}
);
width = 1646;
}
);
unicode = 005A;
},
{
glyphname = A.alt;
layers = (
{
layerId = "DC66AB0F-19FD-4F06-8C39-5D32AA939720";
paths = (
{
closed = 1;
nodes = (
"501 -97 OFFCURVE",
"498 -83 QCURVE",
"374 -146 OFFCURVE",
"245 -244 OFFCURVE",
"245 -267 QCURVE",
"245 -289 OFFCURVE",
"273 -321 OFFCURVE",
"293 -321 QCURVE",
"320 -321 OFFCURVE",
"392 -282 OFFCURVE",
"457 -220 OFFCURVE",
"501 -146 OFFCURVE",
"501 -111 QCURVE"
);
},
{
closed = 1;
nodes = (
"1373 529 LINE",
"1300 457 OFFCURVE",
"1145 324 OFFCURVE",
"971 197 OFFCURVE",
"773 74 OFFCURVE",
"657 11 QCURVE",
"658 3 OFFCURVE",
"658 -12 OFFCURVE",
"658 -20 QCURVE",
"658 -93 OFFCURVE",
"617 -212 OFFCURVE",
"548 -307 OFFCURVE",
"458 -377 OFFCURVE",
"361 -422 OFFCURVE",
"261 -445 OFFCURVE",
"218 -445 QCURVE",
"154 -445 OFFCURVE",
"70 -398 OFFCURVE",
"70 -352 QCURVE",
"70 -298 OFFCURVE",
"253 -118 OFFCURVE",
"433 -6 QCURVE",
"423 8 OFFCURVE",
"373 22 OFFCURVE",
"309 29 OFFCURVE",
"240 34 OFFCURVE",
"182 41 OFFCURVE",
"145 54 OFFCURVE",
"145 67 QCURVE",
"145 81 OFFCURVE",
"160 121 OFFCURVE",
"186 149 QCURVE",
"197 161 OFFCURVE",
"263 216 OFFCURVE",
"346 284 OFFCURVE",
"429 355 OFFCURVE",
"457 382 QCURVE",
"631 529 LINE",
"619 529 OFFCURVE",
"593 531 OFFCURVE",
"554 534 OFFCURVE",
"498 539 OFFCURVE",
"457 541 QCURVE",
"428 536 OFFCURVE",
"373 495 OFFCURVE",
"316 432 OFFCURVE",
"254 352 OFFCURVE",
"218 307 QCURVE",
"215 303 OFFCURVE",
"210 303 QCURVE",
"204 303 OFFCURVE",
"190 317 OFFCURVE",
"179 341 OFFCURVE",
"171 372 OFFCURVE",
"171 389 QCURVE",
"171 403 OFFCURVE",
"178 431 OFFCURVE",
"186 444 QCURVE",
"235 520 OFFCURVE",
"326 619 OFFCURVE",
"428 678 OFFCURVE",
"553 702 OFFCURVE",
"637 702 QCURVE",
"708 702 OFFCURVE",
"813 694 OFFCURVE",
"864 694 QCURVE",
"883 688 OFFCURVE",
"892 651 OFFCURVE",
"892 633 QCURVE",
"892 618 OFFCURVE",
"891 590 OFFCURVE",
"872 559 OFFCURVE",
"828 523 OFFCURVE",
"786 499 QCURVE",
"787 499 LINE",
"761 475 LINE",
"762 475 LINE",
"734 450 OFFCURVE",
"658 393 OFFCURVE",
"603 348 QCURVE",
"349 142 LINE",
"374 142 OFFCURVE",
"433 136 OFFCURVE",
"491 126 OFFCURVE",
"543 110 OFFCURVE",
"561 101 QCURVE",
"763 201 OFFCURVE",
"1120 453 OFFCURVE",
"1291 606 QCURVE",
"1372 548 LINE"
);
}
);
width = 1005;
}
);
},
{
glyphname = D.alt;
layers = (
{
layerId = "DC66AB0F-19FD-4F06-8C39-5D32AA939720";
paths = (
{
closed = 1;
nodes = (
"854 842 OFFCURVE",
"802 744 OFFCURVE",
"735 623 OFFCURVE",
"657 484 OFFCURVE",
"573 343 OFFCURVE",
"485 208 OFFCURVE",
"443 150 QCURVE",
"546 160 OFFCURVE",
"738 242 OFFCURVE",
"905 364 OFFCURVE",
"1042 518 OFFCURVE",
"1140 683 OFFCURVE",
"1194 850 OFFCURVE",
"1194 925 QCURVE",
"1194 985 OFFCURVE",
"1161 1087 OFFCURVE",
"1091 1163 OFFCURVE",
"983 1206 OFFCURVE",
"909 1206 QCURVE",
"844 1206 OFFCURVE",
"714 1181 OFFCURVE",
"595 1139 OFFCURVE",
"495 1082 OFFCURVE",
"461 1049 QCURVE",
"422 1005 OFFCURVE",
"365 917 OFFCURVE",
"308 847 OFFCURVE",
"242 803 OFFCURVE",
"196 803 QCURVE",
"151 803 OFFCURVE",
"107 845 OFFCURVE",
"107 884 QCURVE",
"107 932 OFFCURVE",
"167 1042 OFFCURVE",
"275 1150 OFFCURVE",
"424 1250 OFFCURVE",
"605 1326 OFFCURVE",
"810 1371 OFFCURVE",
"919 1371 QCURVE",
"1052 1371 OFFCURVE",
"1248 1297 OFFCURVE",
"1377 1169 OFFCURVE",
"1440 995 OFFCURVE",
"1440 896 QCURVE",
"1440 785 OFFCURVE",
"1362 559 OFFCURVE",
"1218 351 OFFCURVE",
"1011 168 OFFCURVE",
"752 34 OFFCURVE",
"447 -44 OFFCURVE",
"276 -44 QCURVE",
"191 -44 OFFCURVE",
"37 -9 OFFCURVE",
"-79 47 OFFCURVE",
"-147 119 OFFCURVE",
"-147 156 QCURVE",
"-147 173 OFFCURVE",
"-126 206 OFFCURVE",
"-91 231 OFFCURVE",
"-46 247 OFFCURVE",
"-22 247 QCURVE",
"8 247 OFFCURVE",
"70 229 OFFCURVE",
"136 202 OFFCURVE",
"209 171 OFFCURVE",
"250 158 QCURVE",
"638 943 LINE",
"666 988 OFFCURVE",
"721 1042 OFFCURVE",
"769 1072 OFFCURVE",
"807 1081 OFFCURVE",
"817 1081 QCURVE",
"864 1081 OFFCURVE",
"903 1025 OFFCURVE",
"903 987 QCURVE",
"903 959 OFFCURVE",
"886 899 OFFCURVE",
"870 871 QCURVE"
);
}
);
width = 1216;
}
);
},
{
glyphname = N.alt;
layers = (
{
layerId = "DC66AB0F-19FD-4F06-8C39-5D32AA939720";
paths = (
{
closed = 1;
nodes = (
"764 1207 OFFCURVE",
"816 1006 OFFCURVE",
"870 795 OFFCURVE",
"923 582 OFFCURVE",
"947 484 QCURVE",
"965 409 OFFCURVE",
"982 342 QCURVE",
"1024 450 OFFCURVE",
"1064 550 QCURVE",
"1148 762 OFFCURVE",
"1295 1094 OFFCURVE",
"1418 1319 OFFCURVE",
"1467 1369 QCURVE",
"1486 1389 OFFCURVE",
"1530 1405 OFFCURVE",
"1552 1405 QCURVE",
"1586 1405 OFFCURVE",
"1637 1369 OFFCURVE",
"1637 1341 QCURVE",
"1637 1321 OFFCURVE",
"1621 1301 QCURVE",
"1586 1253 OFFCURVE",
"1523 1175 OFFCURVE",
"1464 1088 OFFCURVE",
"1408 981 OFFCURVE",
"1381 905 QCURVE",
"1328 781 OFFCURVE",
"1232 530 OFFCURVE",
"1152 310 OFFCURVE",
"1090 137 OFFCURVE",
"1070 91 QCURVE",
"1049 29 OFFCURVE",
"981 -32 OFFCURVE",
"950 -32 QCURVE",
"949 -32 OFFCURVE",
"948 -32 OFFCURVE",
"947 -32 QCURVE",
"907 -32 OFFCURVE",
"829 23 OFFCURVE",
"812 83 QCURVE",
"793 150 OFFCURVE",
"762 268 OFFCURVE",
"731 390 OFFCURVE",
"698 524 OFFCURVE",
"660 690 OFFCURVE",
"636 793 QCURVE",
"619 867 OFFCURVE",
"600 956 QCURVE",
"600 955 OFFCURVE",
"599 953 QCURVE",
"581 853 OFFCURVE",
"526 622 OFFCURVE",
"454 392 OFFCURVE",
"365 179 OFFCURVE",
"258 16 OFFCURVE",
"134 -82 OFFCURVE",
"63 -82 QCURVE",
"7 -82 OFFCURVE",
"-40 -54 QCURVE",
"-55 -48 OFFCURVE",
"-91 -13 OFFCURVE",
"-123 35 OFFCURVE",
"-145 92 OFFCURVE",
"-145 121 QCURVE",
"-145 154 OFFCURVE",
"-123 187 QCURVE",
"-118 194 OFFCURVE",
"-103 216 OFFCURVE",
"-83 237 OFFCURVE",
"-58 251 OFFCURVE",
"-43 251 QCURVE",
"-29 251 OFFCURVE",
"-19 244 QCURVE",
"-9 238 OFFCURVE",
"13 196 OFFCURVE",
"39 151 OFFCURVE",
"70 115 OFFCURVE",
"89 115 QCURVE",
"123 115 OFFCURVE",
"192 179 OFFCURVE",
"259 290 OFFCURVE",
"323 438 OFFCURVE",
"383 606 OFFCURVE",
"437 786 OFFCURVE",
"484 958 OFFCURVE",
"523 1115 OFFCURVE",
"551 1239 OFFCURVE",
"569 1320 OFFCURVE",
"571 1331 QCURVE",
"578 1362 OFFCURVE",
"620 1390 OFFCURVE",
"646 1390 QCURVE",
"651 1390 OFFCURVE",
"656 1390 QCURVE",
"678 1390 OFFCURVE",
"726 1347 OFFCURVE",
"741 1294 QCURVE"
);
}
);
width = 1248;
}
);
},
{
glyphname = S.alt;
layers = (
{
layerId = "DC66AB0F-19FD-4F06-8C39-5D32AA939720";
paths = (
{
closed = 1;
nodes = (
"434 557 OFFCURVE",
"461 510 OFFCURVE",
"461 480 QCURVE",
"461 465 OFFCURVE",
"455 443 OFFCURVE",
"437 424 OFFCURVE",
"407 407 OFFCURVE",
"383 397 QCURVE",
"327 373 OFFCURVE",
"263 306 OFFCURVE",
"263 273 QCURVE",
"263 252 OFFCURVE",
"291 214 OFFCURVE",
"351 185 OFFCURVE",
"446 168 OFFCURVE",
"513 168 QCURVE",
"586 168 OFFCURVE",
"717 201 OFFCURVE",
"816 261 OFFCURVE",
"874 343 OFFCURVE",
"874 391 QCURVE",
"874 423 OFFCURVE",
"815 491 OFFCURVE",
"749 527 QCURVE",
"636 590 OFFCURVE",
"514 666 OFFCURVE",
"501 676 QCURVE",
"413 744 OFFCURVE",
"332 880 OFFCURVE",
"332 950 QCURVE",
"332 1007 OFFCURVE",
"391 1115 OFFCURVE",
"491 1212 OFFCURVE",
"622 1292 OFFCURVE",
"765 1351 OFFCURVE",
"910 1383 OFFCURVE",
"975 1383 QCURVE",
"1024 1383 OFFCURVE",
"1107 1361 OFFCURVE",
"1169 1314 OFFCURVE",
"1204 1240 OFFCURVE",
"1204 1188 QCURVE",
"1204 1036 OFFCURVE",
"1030 918 QCURVE",
"989 891 OFFCURVE",
"958 891 QCURVE",
"924 891 OFFCURVE",
"884 940 OFFCURVE",
"884 973 QCURVE",
"884 1001 OFFCURVE",
"917 1057 OFFCURVE",
"954 1077 QCURVE",
"983 1092 OFFCURVE",
"1028 1143 OFFCURVE",
"1028 1167 QCURVE",
"1028 1190 OFFCURVE",
"997 1204 OFFCURVE",
"975 1204 QCURVE",
"933 1204 OFFCURVE",
"834 1186 OFFCURVE",
"735 1153 OFFCURVE",
"642 1109 OFFCURVE",
"571 1057 OFFCURVE",
"528 1001 OFFCURVE",
"528 972 QCURVE",
"528 922 OFFCURVE",
"605 837 OFFCURVE",
"684 789 QCURVE",
"918 646 LINE",
"1012 584 OFFCURVE",
"1108 459 OFFCURVE",
"1108 387 QCURVE",
"1108 311 OFFCURVE",
"1022 165 OFFCURVE",
"864 50 OFFCURVE",
"642 -20 OFFCURVE",
"506 -20 QCURVE",
"384 -20 OFFCURVE",
"213 19 OFFCURVE",
"103 86 OFFCURVE",
"53 173 OFFCURVE",
"53 221 QCURVE",
"53 271 OFFCURVE",
"104 374 OFFCURVE",
"197 466 OFFCURVE",
"327 538 OFFCURVE",
"405 557 QCURVE"
);
}
);
width = 1135;
}
);
},
{
glyphname = A.alt2;
layers = (
{
layerId = "DC66AB0F-19FD-4F06-8C39-5D32AA939720";
paths = (
{
closed = 1;
nodes = (
"906 265 OFFCURVE",
"891 211 OFFCURVE",
"891 188 QCURVE",
"891 170 OFFCURVE",
"904 147 OFFCURVE",
"921 147 QCURVE",
"946 147 OFFCURVE",
"1017 186 OFFCURVE",
"1100 251 OFFCURVE",
"1190 336 OFFCURVE",
"1277 427 OFFCURVE",
"1356 519 OFFCURVE",
"1388 559 QCURVE",
"1418 426 LINE",
"1351 338 OFFCURVE",
"1212 176 OFFCURVE",
"1071 52 OFFCURVE",
"930 -22 OFFCURVE",
"863 -22 QCURVE",
"821 -22 OFFCURVE",
"766 4 OFFCURVE",
"732 48 OFFCURVE",
"718 106 OFFCURVE",
"718 139 QCURVE",
"718 170 OFFCURVE",
"719 198 QCURVE",
"711 191 OFFCURVE",
"703 183 QCURVE",
"673 153 OFFCURVE",
"604 100 QCURVE",
"552 60 OFFCURVE",
"443 -3 OFFCURVE",
"332 -40 OFFCURVE",
"280 -40 QCURVE",
"206 -40 OFFCURVE",
"97 18 OFFCURVE",
"25 110 OFFCURVE",
"-10 224 OFFCURVE",
"-10 280 QCURVE",
"-10 341 OFFCURVE",
"35 500 OFFCURVE",
"116 678 OFFCURVE",
"230 866 OFFCURVE",
"370 1042 OFFCURVE",
"531 1199 OFFCURVE",
"706 1317 OFFCURVE",
"891 1385 OFFCURVE",
"984 1385 QCURVE",
"1056 1385 OFFCURVE",
"1201 1338 OFFCURVE",
"1272 1286 QCURVE",
"1294 1269 OFFCURVE",
"1314 1223 OFFCURVE",
"1314 1200 QCURVE",
"1314 1182 OFFCURVE",
"1303 1147 OFFCURVE",
"1283 1121 OFFCURVE",
"1254 1105 OFFCURVE",
"1218 1105 OFFCURVE",
"1175 1124 OFFCURVE",
"1152 1147 QCURVE",
"1112 1185 OFFCURVE",
"1025 1219 OFFCURVE",
"977 1219 QCURVE",
"894 1219 OFFCURVE",
"719 1127 OFFCURVE",
"551 976 OFFCURVE",
"402 786 OFFCURVE",
"290 589 OFFCURVE",
"224 404 OFFCURVE",
"224 335 QCURVE",
"224 306 OFFCURVE",
"234 239 OFFCURVE",
"261 181 OFFCURVE",
"308 142 OFFCURVE",
"384 142 OFFCURVE",
"477 190 OFFCURVE",
"574 266 OFFCURVE",
"670 361 OFFCURVE",
"752 453 OFFCURVE",
"784 494 QCURVE",
"817 536 OFFCURVE",
"824 548 QCURVE",
"825 550 OFFCURVE",
"829 558 QCURVE",
"836 573 OFFCURVE",
"902 698 QCURVE",
"943 776 OFFCURVE",
"1008 895 QCURVE",
"1022 933 OFFCURVE",
"1076 965 OFFCURVE",
"1105 965 QCURVE",
"1120 965 OFFCURVE",
"1149 956 OFFCURVE",
"1173 937 OFFCURVE",
"1187 908 OFFCURVE",
"1187 888 QCURVE",
"1187 870 OFFCURVE",
"1156 793 OFFCURVE",
"1106 691 OFFCURVE",
"1045 571 OFFCURVE",
"984 448 OFFCURVE",
"930 332 OFFCURVE",
"913 285 QCURVE"
);
}
);
width = 1142;
}
);
},
{
glyphname = a;
layers = (
{
layerId = "DC66AB0F-19FD-4F06-8C39-5D32AA939720";
paths = (
{
closed = 1;
nodes = (
"453 546 OFFCURVE",
"365 498 OFFCURVE",
"297 420 OFFCURVE",
"257 323 OFFCURVE",
"257 274 QCURVE",
"257 254 OFFCURVE",
"262 211 OFFCURVE",
"280 175 OFFCURVE",
"313 151 OFFCURVE",
"341 151 QCURVE",
"363 151 OFFCURVE",
"422 190 OFFCURVE",
"485 251 OFFCURVE",
"545 324 OFFCURVE",
"593 394 OFFCURVE",
"623 450 OFFCURVE",
"623 463 QCURVE",
"623 482 OFFCURVE",
"597 513 OFFCURVE",
"559 535 OFFCURVE",
"516 546 OFFCURVE",
"500 546 QCURVE"
);
},
{
closed = 1;
nodes = (
"1175 271 OFFCURVE",
"1115 211 OFFCURVE",
"1038 141 OFFCURVE",
"951 70 OFFCURVE",
"860 12 OFFCURVE",
"772 -25 OFFCURVE",
"733 -25 QCURVE",
"698 -25 OFFCURVE",
"648 5 OFFCURVE",
"615 53 OFFCURVE",
"599 114 OFFCURVE",
"599 146 QCURVE",
"599 167 OFFCURVE",
"605 208 OFFCURVE",
"612 226 QCURVE",
"581 184 OFFCURVE",
"502 95 OFFCURVE",
"411 22 OFFCURVE",
"312 -25 OFFCURVE",
"261 -25 QCURVE",
"235 -25 OFFCURVE",
"166 -4 OFFCURVE",
"104 44 OFFCURVE",
"62 120 OFFCURVE",
"62 175 QCURVE",
"62 216 OFFCURVE",
"87 330 OFFCURVE",
"138 453 OFFCURVE",
"217 573 OFFCURVE",
"325 668 OFFCURVE",
"463 727 OFFCURVE",
"548 727 QCURVE",
"592 727 OFFCURVE",
"658 705 OFFCURVE",
"681 692 QCURVE",
"707 676 OFFCURVE",
"727 657 QCURVE",
"744 666 OFFCURVE",
"762 674 QCURVE",
"777 681 OFFCURVE",
"810 692 OFFCURVE",
"822 692 QCURVE",
"860 692 OFFCURVE",
"908 650 OFFCURVE",
"908 625 QCURVE",
"908 618 OFFCURVE",
"907 614 QCURVE",
"902 595 OFFCURVE",
"881 537 OFFCURVE",
"855 466 OFFCURVE",
"828 389 OFFCURVE",
"806 315 OFFCURVE",
"792 250 OFFCURVE",
"792 227 QCURVE",
"792 197 OFFCURVE",
"812 158 OFFCURVE",
"836 158 QCURVE",
"851 158 OFFCURVE",
"892 177 OFFCURVE",
"940 209 OFFCURVE",
"991 250 OFFCURVE",
"1015 271 QCURVE",
"1071 321 OFFCURVE",
"1134 385 QCURVE",
"1150 398 OFFCURVE",
"1165 398 QCURVE",
"1185 398 OFFCURVE",
"1212 359 OFFCURVE",
"1212 335 QCURVE",
"1212 307 OFFCURVE",
"1193 288 QCURVE"
);
}
);
width = 984;
}
);
unicode = 0061;
},
{
glyphname = ae;
layers = (
{
layerId = "DC66AB0F-19FD-4F06-8C39-5D32AA939720";
paths = (
{
closed = 1;
nodes = (
"1166 591 OFFCURVE",
"1158 591 OFFCURVE",
"1153 591 QCURVE",
"1115 591 OFFCURVE",
"1049 561 OFFCURVE",
"994 512 OFFCURVE",
"951 450 OFFCURVE",
"917 389 OFFCURVE",
"894 333 OFFCURVE",
"888 314 QCURVE",
"923 332 OFFCURVE",
"998 378 OFFCURVE",
"1064 420 OFFCURVE",
"1113 454 OFFCURVE",
"1123 460 QCURVE",
"1168 488 OFFCURVE",
"1202 537 OFFCURVE",
"1202 555 QCURVE",
"1202 570 OFFCURVE",
"1183 588 OFFCURVE",
"1171 590 QCURVE"
);
},
{
closed = 1;
nodes = (
"536 546 OFFCURVE",
"448 498 OFFCURVE",
"380 420 OFFCURVE",
"340 323 OFFCURVE",
"340 274 QCURVE",
"340 254 OFFCURVE",
"345 211 OFFCURVE",
"363 175 OFFCURVE",
"396 151 OFFCURVE",
"424 151 QCURVE",
"447 151 OFFCURVE",
"508 192 OFFCURVE",
"573 257 OFFCURVE",
"636 335 OFFCURVE",
"685 409 OFFCURVE",
"716 469 OFFCURVE",
"716 483 QCURVE",
"700 500 OFFCURVE",
"680 514 QCURVE",
"663 526 OFFCURVE",
"614 546 OFFCURVE",
"583 546 QCURVE"
);
},
{
closed = 1;
nodes = (
"1290 728 OFFCURVE",
"1372 648 OFFCURVE",
"1372 577 QCURVE",
"1372 535 OFFCURVE",
"1328 443 OFFCURVE",
"1220 348 OFFCURVE",
"1039 249 OFFCURVE",
"903 199 QCURVE",
"908 170 OFFCURVE",
"960 137 OFFCURVE",
"1003 137 QCURVE",
"1049 137 OFFCURVE",
"1154 164 OFFCURVE",
"1257 206 OFFCURVE",
"1355 255 OFFCURVE",
"1434 299 OFFCURVE",
"1487 331 OFFCURVE",
"1496 335 QCURVE",
"1505 341 OFFCURVE",
"1520 343 OFFCURVE",
"1526 343 QCURVE",
"1538 343 OFFCURVE",
"1554 332 OFFCURVE",
"1565 317 OFFCURVE",
"1569 300 OFFCURVE",
"1569 294 QCURVE",
"1569 285 OFFCURVE",
"1565 260 OFFCURVE",
"1552 244 QCURVE",
"1547 239 OFFCURVE",
"1490 195 OFFCURVE",
"1400 135 OFFCURVE",
"1281 68 OFFCURVE",
"1148 12 OFFCURVE",
"1004 -25 OFFCURVE",
"934 -25 QCURVE",
"885 -25 OFFCURVE",
"805 12 OFFCURVE",
"746 77 OFFCURVE",
"710 163 OFFCURVE",
"705 212 QCURVE",
"672 171 OFFCURVE",
"590 86 OFFCURVE",
"497 18 OFFCURVE",
"395 -25 OFFCURVE",
"344 -25 QCURVE",
"318 -25 OFFCURVE",
"249 -4 OFFCURVE",
"187 44 OFFCURVE",
"145 120 OFFCURVE",
"145 175 QCURVE",
"145 216 OFFCURVE",
"170 330 OFFCURVE",
"221 453 OFFCURVE",
"300 573 OFFCURVE",
"408 668 OFFCURVE",
"546 727 OFFCURVE",
"631 727 QCURVE",
"707 727 OFFCURVE",
"821 664 OFFCURVE",
"877 604 QCURVE",
"943 659 OFFCURVE",
"1108 728 OFFCURVE",
"1207 728 QCURVE"
);
}
);
width = 1357;
}
);
unicode = 00E6;
},
{
glyphname = b;
layers = (
{
layerId = "DC66AB0F-19FD-4F06-8C39-5D32AA939720";
paths = (
{
closed = 1;
nodes = (
"550 561 OFFCURVE",
"436 506 OFFCURVE",
"345 416 OFFCURVE",
"287 303 OFFCURVE",
"287 245 QCURVE",
"287 229 OFFCURVE",
"293 196 OFFCURVE",
"312 168 OFFCURVE",
"348 150 OFFCURVE",
"378 150 QCURVE",
"436 150 OFFCURVE",
"545 205 OFFCURVE",
"631 295 OFFCURVE",
"683 408 OFFCURVE",
"683 465 QCURVE",
"683 480 OFFCURVE",
"678 514 OFFCURVE",
"662 542 OFFCURVE",
"632 561 OFFCURVE",
"607 561 QCURVE"
);
},
{
closed = 1;
nodes = (
"606 56 OFFCURVE",
"415 -39 OFFCURVE",
"304 -39 QCURVE",
"243 -39 OFFCURVE",
"159 -4 OFFCURVE",
"107 56 OFFCURVE",
"84 136 OFFCURVE",
"84 181 QCURVE",
"84 232 OFFCURVE",
"110 341 OFFCURVE",
"131 392 QCURVE",
"145 425 OFFCURVE",
"163 469 OFFCURVE",
"175 500 OFFCURVE",
"184 523 OFFCURVE",
"194 548 OFFCURVE",
"208 581 OFFCURVE",
"220 607 QCURVE",
"512 1256 LINE",
"518 1269 OFFCURVE",
"541 1293 OFFCURVE",
"571 1312 OFFCURVE",
"606 1323 OFFCURVE",
"624 1323 QCURVE",
"670 1323 OFFCURVE",
"707 1287 OFFCURVE",
"707 1261 QCURVE",
"707 1241 OFFCURVE",
"687 1194 OFFCURVE",
"675 1174 QCURVE",
"601 1032 OFFCURVE",
"469 739 OFFCURVE",
"395 596 QCURVE",
"427 621 OFFCURVE",
"499 668 OFFCURVE",
"577 705 OFFCURVE",
"661 728 OFFCURVE",
"705 728 QCURVE",
"736 728 OFFCURVE",
"800 704 OFFCURVE",
"853 658 OFFCURVE",
"886 591 OFFCURVE",
"886 547 QCURVE",
"886 537 OFFCURVE",
"874 477 OFFCURVE",
"851 402 OFFCURVE",
"818 323 OFFCURVE",
"798 293 QCURVE",
"805 282 OFFCURVE",
"827 277 OFFCURVE",
"841 277 QCURVE",
"887 277 OFFCURVE",
"978 301 OFFCURVE",
"1059 336 OFFCURVE",
"1127 374 OFFCURVE",
"1150 388 QCURVE",
"1162 401 OFFCURVE",
"1176 401 QCURVE",
"1193 401 OFFCURVE",
"1218 371 OFFCURVE",
"1218 347 QCURVE",
"1218 324 OFFCURVE",
"1199 279 OFFCURVE",
"1174 252 QCURVE",
"1129 225 OFFCURVE",
"1038 177 OFFCURVE",
"944 142 OFFCURVE",
"847 121 OFFCURVE",
"797 121 QCURVE",
"765 121 OFFCURVE",
"711 139 OFFCURVE",
"691 158 QCURVE"
);
}
);
width = 906;
}
);
unicode = 0062;
},
{
glyphname = c;
layers = (
{
layerId = "DC66AB0F-19FD-4F06-8C39-5D32AA939720";
paths = (
{
closed = 1;
nodes = (
"669 604 OFFCURVE",
"655 529 OFFCURVE",
"623 463 OFFCURVE",
"573 419 OFFCURVE",
"536 419 QCURVE",
"516 419 OFFCURVE",
"505 431 OFFCURVE",
"505 446 QCURVE",
"505 455 OFFCURVE",
"506 490 OFFCURVE",
"506 506 QCURVE",
"506 524 OFFCURVE",
"496 549 OFFCURVE",
"476 549 QCURVE",
"453 549 OFFCURVE",
"396 514 OFFCURVE",
"339 458 OFFCURVE",
"285 387 OFFCURVE",
"242 314 OFFCURVE",
"217 246 OFFCURVE",
"217 222 QCURVE",
"217 187 OFFCURVE",
"266 147 OFFCURVE",
"308 147 QCURVE",
"353 147 OFFCURVE",
"455 177 OFFCURVE",
"556 223 OFFCURVE",
"650 277 OFFCURVE",
"727 326 OFFCURVE",
"779 361 OFFCURVE",
"787 365 QCURVE",
"803 373 OFFCURVE",
"817 373 QCURVE",
"829 373 OFFCURVE",
"846 362 OFFCURVE",
"856 347 OFFCURVE",
"860 330 OFFCURVE",
"860 324 QCURVE",
"860 315 OFFCURVE",
"856 290 OFFCURVE",
"843 274 QCURVE",
"838 268 OFFCURVE",
"783 219 OFFCURVE",
"696 153 OFFCURVE",
"583 78 OFFCURVE",
"454 16 OFFCURVE",
"316 -25 OFFCURVE",
"249 -25 QCURVE",
"198 -25 OFFCURVE",
"119 7 OFFCURVE",
"65 62 OFFCURVE",
"37 136 OFFCURVE",
"37 177 QCURVE",
"37 222 OFFCURVE",
"79 339 OFFCURVE",
"153 461 OFFCURVE",
"253 579 OFFCURVE",
"370 671 OFFCURVE",
"497 727 OFFCURVE",
"562 727 QCURVE",
"584 727 OFFCURVE",
"623 717 OFFCURVE",
"652 696 OFFCURVE",
"669 660 OFFCURVE",
"669 635 QCURVE"
);
}
);
width = 645;
}
);
unicode = 0063;
},
{
glyphname = d;
layers = (
{
layerId = "DC66AB0F-19FD-4F06-8C39-5D32AA939720";
paths = (
{
closed = 1;
nodes = (
"713 201 OFFCURVE",
"713 195 OFFCURVE",
"712 193 QCURVE",
"712 175 OFFCURVE",
"730 136 OFFCURVE",
"750 136 QCURVE",
"758 136 OFFCURVE",
"762 138 QCURVE",
"819 155 OFFCURVE",
"936 229 OFFCURVE",
"1044 317 OFFCURVE",
"1135 409 OFFCURVE",
"1165 445 QCURVE",
"1179 462 OFFCURVE",
"1196 462 QCURVE",
"1211 462 OFFCURVE",
"1234 434 OFFCURVE",
"1234 410 QCURVE",
"1234 391 OFFCURVE",
"1213 339 OFFCURVE",
"1189 309 QCURVE",
"1130 244 OFFCURVE",
"1006 124 OFFCURVE",
"880 31 OFFCURVE",
"755 -25 OFFCURVE",
"695 -25 QCURVE",
"622 -25 OFFCURVE",
"538 58 OFFCURVE",
"538 141 QCURVE",
"538 146 OFFCURVE",
"538 157 OFFCURVE",
"539 162 QCURVE",
"516 120 OFFCURVE",
"444 51 OFFCURVE",
"358 2 OFFCURVE",
"266 -25 OFFCURVE",
"223 -25 QCURVE",
"186 -25 OFFCURVE",
"124 -5 OFFCURVE",
"79 39 OFFCURVE",
"54 107 OFFCURVE",
"54 155 QCURVE",
"54 239 OFFCURVE",
"106 390 OFFCURVE",
"192 517 OFFCURVE",
"303 618 OFFCURVE",
"422 689 OFFCURVE",
"540 727 OFFCURVE",
"589 727 QCURVE",
"646 727 OFFCURVE",
"687 708 QCURVE",
"707 698 OFFCURVE",
"724 681 QCURVE",
"728 690 OFFCURVE",
"732 698 QCURVE",
"742 722 OFFCURVE",
"758 757 OFFCURVE",
"761 765 QCURVE",
"764 774 OFFCURVE",
"792 840 OFFCURVE",
"829 929 OFFCURVE",
"872 1031 OFFCURVE",
"908 1121 OFFCURVE",
"934 1186 OFFCURVE",
"937 1195 QCURVE",
"944 1220 OFFCURVE",
"968 1267 OFFCURVE",
"1001 1302 OFFCURVE",
"1045 1323 OFFCURVE",
"1073 1323 QCURVE",
"1111 1323 OFFCURVE",
"1161 1290 OFFCURVE",
"1161 1243 QCURVE",
"1161 1224 OFFCURVE",
"1151 1184 OFFCURVE",
"1138 1146 OFFCURVE",
"1123 1109 OFFCURVE",
"1117 1093 QCURVE",
"1067 993 OFFCURVE",
"957 758 OFFCURVE",
"849 520 OFFCURVE",
"751 294 OFFCURVE",
"714 203 QCURVE"
);
},
{
closed = 1;
nodes = (
"624 592 OFFCURVE",
"558 568 QCURVE",
"482 542 OFFCURVE",
"356 439 OFFCURVE",
"269 289 OFFCURVE",
"263 192 QCURVE",
"263 152 OFFCURVE",
"297 152 QCURVE",
"339 152 OFFCURVE",
"415 187 OFFCURVE",
"484 246 OFFCURVE",
"544 322 OFFCURVE",
"595 404 OFFCURVE",
"636 485 OFFCURVE",
"651 520 QCURVE",
"656 531 OFFCURVE",
"665 551 QCURVE",
"673 570 OFFCURVE",
"684 594 QCURVE"
);
}
);
width = 967;
}
);
unicode = 0064;
},
{
glyphname = eth;
layers = (
{
layerId = "DC66AB0F-19FD-4F06-8C39-5D32AA939720";
paths = (
{
closed = 1;
nodes = (
"793 379 OFFCURVE",
"799 508 QCURVE",
"754 562 OFFCURVE",
"633 626 OFFCURVE",
"574 626 QCURVE",
"544 626 OFFCURVE",
"478 595 OFFCURVE",
"423 532 OFFCURVE",
"387 436 OFFCURVE",
"387 372 QCURVE",
"387 328 OFFCURVE",
"410 247 OFFCURVE",
"452 184 OFFCURVE",
"514 146 OFFCURVE",
"553 146 QCURVE",
"584 146 OFFCURVE",
"644 166 OFFCURVE",
"696 201 OFFCURVE",
"737 249 OFFCURVE",
"749 278 QCURVE"
);
},
{
closed = 1;
nodes = (
"1044 1044 LINE",
"1061 1044 OFFCURVE",
"1081 1015 OFFCURVE",
"1081 996 QCURVE",
"1081 971 OFFCURVE",
"1043 926 OFFCURVE",
"999 926 QCURVE",
"936 926 LINE",
"970 841 OFFCURVE",
"1000 676 OFFCURVE",
"1000 597 QCURVE",
"1000 512 OFFCURVE",
"970 361 OFFCURVE",
"943 298 QCURVE",
"913 228 OFFCURVE",
"818 110 OFFCURVE",
"701 23 OFFCURVE",
"569 -26 OFFCURVE",
"501 -26 QCURVE",
"427 -26 OFFCURVE",
"309 23 OFFCURVE",
"227 109 OFFCURVE",
"182 228 OFFCURVE",
"182 299 QCURVE",
"182 347 OFFCURVE",
"205 451 OFFCURVE",
"228 506 QCURVE",
"259 579 OFFCURVE",
"340 681 OFFCURVE",
"431 746 OFFCURVE",
"528 776 OFFCURVE",
"575 776 QCURVE",
"635 776 OFFCURVE",
"747 747 OFFCURVE",
"794 721 QCURVE",
"786 757 OFFCURVE",
"755 863 OFFCURVE",
"720 926 QCURVE",
"548 926 LINE",
"531 926 OFFCURVE",
"514 950 OFFCURVE",
"514 967 QCURVE",
"514 980 OFFCURVE",
"525 1007 OFFCURVE",
"548 1029 OFFCURVE",
"584 1044 OFFCURVE",
"610 1044 QCURVE",
"638 1044 LINE",
"627 1057 OFFCURVE",
"592 1090 OFFCURVE",
"559 1124 OFFCURVE",
"535 1157 OFFCURVE",
"535 1169 QCURVE",
"535 1189 OFFCURVE",
"560 1229 OFFCURVE",
"598 1262 OFFCURVE",
"644 1282 OFFCURVE",
"664 1282 QCURVE",
"672 1282 OFFCURVE",
"688 1280 OFFCURVE",
"693 1272 QCURVE",
"752 1218 OFFCURVE",
"843 1104 OFFCURVE",
"878 1044 QCURVE"
);
}
);
width = 981;
}
);
unicode = 00F0;
},
{
glyphname = e;
layers = (
{
layerId = "DC66AB0F-19FD-4F06-8C39-5D32AA939720";
paths = (
{
closed = 1;
nodes = (
"513 591 OFFCURVE",
"505 591 OFFCURVE",
"500 591 QCURVE",
"462 591 OFFCURVE",
"396 561 OFFCURVE",
"341 512 OFFCURVE",
"298 450 OFFCURVE",
"264 389 OFFCURVE",
"241 333 OFFCURVE",
"235 314 QCURVE",
"270 332 OFFCURVE",
"345 378 OFFCURVE",
"411 420 OFFCURVE",
"460 454 OFFCURVE",
"470 460 QCURVE",
"515 488 OFFCURVE",
"549 537 OFFCURVE",
"549 555 QCURVE",
"549 570 OFFCURVE",
"530 588 OFFCURVE",
"518 590 QCURVE"
);
},
{
closed = 1;
nodes = (
"637 728 OFFCURVE",
"719 648 OFFCURVE",
"719 577 QCURVE",
"719 535 OFFCURVE",
"675 443 OFFCURVE",
"567 348 OFFCURVE",
"386 249 OFFCURVE",
"250 199 QCURVE",
"255 170 OFFCURVE",
"307 137 OFFCURVE",
"350 137 QCURVE",
"396 137 OFFCURVE",
"501 164 OFFCURVE",
"604 206 OFFCURVE",
"702 255 OFFCURVE",
"781 299 OFFCURVE",
"834 331 OFFCURVE",
"843 335 QCURVE",
"852 341 OFFCURVE",
"867 343 OFFCURVE",
"873 343 QCURVE",
"885 343 OFFCURVE",
"901 332 OFFCURVE",
"912 317 OFFCURVE",
"916 300 OFFCURVE",
"916 294 QCURVE",
"916 285 OFFCURVE",
"912 260 OFFCURVE",
"899 244 QCURVE",
"894 239 OFFCURVE",
"837 195 OFFCURVE",
"747 135 OFFCURVE",
"628 68 OFFCURVE",
"495 12 OFFCURVE",
"351 -25 OFFCURVE",
"281 -25 QCURVE",
"221 -25 OFFCURVE",
"128 21 OFFCURVE",
"63 99 OFFCURVE",
"29 201 OFFCURVE",
"29 257 QCURVE",
"29 300 OFFCURVE",
"63 403 OFFCURVE",
"127 507 OFFCURVE",
"220 606 OFFCURVE",
"336 682 OFFCURVE",
"475 728 OFFCURVE",
"554 728 QCURVE"
);
}
);
width = 704;
}
);
unicode = 0065;
},
{
glyphname = f;
layers = (
{
layerId = "DC66AB0F-19FD-4F06-8C39-5D32AA939720";
paths = (
{
closed = 1;
nodes = (
"743 566 OFFCURVE",
"650 564 OFFCURVE",
"562 563 OFFCURVE",
"476 563 OFFCURVE",
"432 563 QCURVE",
"406 512 OFFCURVE",
"341 377 OFFCURVE",
"270 229 OFFCURVE",
"199 78 OFFCURVE",
"135 -57 OFFCURVE",
"83 -166 OFFCURVE",
"67 -198 QCURVE",
"56 -221 OFFCURVE",
"24 -260 OFFCURVE",
"-14 -288 OFFCURVE",
"-54 -303 OFFCURVE",
"-71 -303 QCURVE",
"-95 -303 OFFCURVE",
"-133 -279 OFFCURVE",
"-133 -253 QCURVE",
"-133 -240 OFFCURVE",
"-121 -205 OFFCURVE",
"-110 -182 QCURVE",
"243 566 LINE",
"190 566 LINE",
"135 566 OFFCURVE",
"95 600 OFFCURVE",
"95 623 QCURVE",
"95 647 OFFCURVE",
"145 692 OFFCURVE",
"193 692 QCURVE",
"311 692 LINE",
"382 835 OFFCURVE",
"525 1021 OFFCURVE",
"663 1129 OFFCURVE",
"794 1171 OFFCURVE",
"854 1171 QCURVE",
"882 1171 OFFCURVE",
"933 1149 OFFCURVE",
"972 1105 OFFCURVE",
"996 1038 OFFCURVE",
"996 993 QCURVE",
"996 950 OFFCURVE",
"984 898 QCURVE",
"981 884 OFFCURVE",
"963 865 OFFCURVE",
"941 853 OFFCURVE",
"919 848 OFFCURVE",
"911 848 QCURVE",
"891 848 OFFCURVE",
"857 867 OFFCURVE",
"857 887 QCURVE",
"857 900 OFFCURVE",
"860 922 OFFCURVE",
"860 933 QCURVE",
"860 975 OFFCURVE",
"829 1011 OFFCURVE",
"803 1011 QCURVE",
"772 1011 OFFCURVE",
"689 957 OFFCURVE",
"604 867 OFFCURVE",
"526 752 OFFCURVE",
"501 692 QCURVE",
"734 692 LINE",
"765 692 OFFCURVE",
"819 690 OFFCURVE",
"860 680 OFFCURVE",
"883 657 OFFCURVE",
"883 635 QCURVE",
"883 624 OFFCURVE",
"875 602 OFFCURVE",
"856 583 OFFCURVE",
"822 570 OFFCURVE",
"795 568 QCURVE"
);
}
);
width = 506;
}
);
unicode = 0066;
},
{
glyphname = g;
layers = (
{
layerId = "DC66AB0F-19FD-4F06-8C39-5D32AA939720";
paths = (
{
closed = 1;
nodes = (
"613 727 OFFCURVE",
"679 705 OFFCURVE",
"702 692 QCURVE",
"728 676 OFFCURVE",
"748 657 QCURVE",
"762 666 OFFCURVE",
"778 674 QCURVE",
"792 681 OFFCURVE",
"826 692 OFFCURVE",
"843 692 QCURVE",
"887 692 OFFCURVE",
"935 656 OFFCURVE",
"935 631 QCURVE",
"935 618 OFFCURVE",
"928 605 QCURVE",
"694 162 LINE",
"713 179 LINE",
"831 248 OFFCURVE",
"983 327 OFFCURVE",
"1073 365 OFFCURVE",
"1112 374 OFFCURVE",
"1117 374 QCURVE",
"1140 374 OFFCURVE",
"1165 339 OFFCURVE",
"1165 313 QCURVE",
"1165 284 OFFCURVE",
"1132 224 OFFCURVE",
"1098 211 QCURVE",
"1053 188 OFFCURVE",
"933 135 OFFCURVE",
"803 71 OFFCURVE",
"672 -8 OFFCURVE",
"615 -56 QCURVE",
"421 -407 LINE",
"397 -464 OFFCURVE",
"358 -536 OFFCURVE",
"320 -578 OFFCURVE",
"280 -594 OFFCURVE",
"254 -594 QCURVE",
"215 -594 OFFCURVE",
"170 -540 OFFCURVE",
"170 -502 QCURVE",
"170 -462 OFFCURVE",
"208 -356 OFFCURVE",
"277 -233 OFFCURVE",
"375 -98 OFFCURVE",
"435 -28 QCURVE",
"559 130 LINE",
"521 95 OFFCURVE",
"447 45 OFFCURVE",
"379 14 OFFCURVE",
"320 0 OFFCURVE",
"298 0 QCURVE",
"258 0 OFFCURVE",
"190 37 OFFCURVE",
"141 103 OFFCURVE",
"113 193 OFFCURVE",
"113 246 QCURVE",
"113 356 OFFCURVE",
"198 534 OFFCURVE",
"331 659 OFFCURVE",
"492 727 OFFCURVE",
"569 727 QCURVE"
);
},
{
closed = 1;
nodes = (
"484 551 OFFCURVE",
"396 504 OFFCURVE",
"328 427 OFFCURVE",
"288 327 OFFCURVE",
"288 274 QCURVE",
"288 258 OFFCURVE",
"293 221 OFFCURVE",
"310 189 OFFCURVE",
"343 168 OFFCURVE",
"372 168 QCURVE",
"393 168 OFFCURVE",
"450 205 OFFCURVE",
"511 262 OFFCURVE",
"569 331 OFFCURVE",
"616 397 OFFCURVE",
"644 450 OFFCURVE",
"644 463 QCURVE",
"644 485 OFFCURVE",
"620 518 OFFCURVE",
"585 540 OFFCURVE",
"546 551 OFFCURVE",
"531 551 QCURVE"
);
}
);
width = 944;
}
);
unicode = 0067;
},
{
glyphname = h;
layers = (
{
layerId = "DC66AB0F-19FD-4F06-8C39-5D32AA939720";
paths = (
{
closed = 1;
nodes = (
"33 209 OFFCURVE",
"95 334 OFFCURVE",
"158 457 OFFCURVE",
"214 568 OFFCURVE",
"233 607 QCURVE",
"563 1256 LINE",
"569 1269 OFFCURVE",
"594 1293 OFFCURVE",
"626 1312 OFFCURVE",
"662 1323 OFFCURVE",
"680 1323 QCURVE",
"724 1323 OFFCURVE",
"758 1290 OFFCURVE",
"758 1266 QCURVE",
"758 1244 OFFCURVE",
"736 1195 OFFCURVE",
"722 1174 QCURVE",
"678 1099 OFFCURVE",
"597 946 OFFCURVE",
"516 791 OFFCURVE",
"434 638 OFFCURVE",
"389 563 QCURVE",
"417 590 OFFCURVE",
"480 648 OFFCURVE",
"554 696 OFFCURVE",
"642 727 OFFCURVE",
"696 727 QCURVE",
"728 727 OFFCURVE",
"786 715 OFFCURVE",
"830 688 OFFCURVE",
"856 641 OFFCURVE",
"856 607 QCURVE",
"856 562 OFFCURVE",
"829 487 OFFCURVE",
"787 420 OFFCURVE",
"737 359 OFFCURVE",
"692 296 OFFCURVE",
"659 228 OFFCURVE",
"655 188 QCURVE",
"655 186 OFFCURVE",
"654 182 OFFCURVE",
"654 180 QCURVE",
"654 160 OFFCURVE",
"681 150 OFFCURVE",
"702 150 QCURVE",
"729 150 OFFCURVE",
"791 171 OFFCURVE",
"854 206 OFFCURVE",
"917 250 OFFCURVE",
"974 296 OFFCURVE",
"1022 339 OFFCURVE",
"1039 355 QCURVE",
"1048 363 OFFCURVE",
"1068 371 OFFCURVE",
"1077 371 QCURVE",
"1095 371 OFFCURVE",
"1120 344 OFFCURVE",
"1120 321 QCURVE",
"1120 300 OFFCURVE",
"1091 246 OFFCURVE",
"1056 219 QCURVE",
"1001 171 OFFCURVE",
"887 83 OFFCURVE",
"771 15 OFFCURVE",
"656 -25 OFFCURVE",
"601 -25 QCURVE",
"530 -25 OFFCURVE",
"444 40 OFFCURVE",
"444 110 QCURVE",
"444 161 OFFCURVE",
"479 252 OFFCURVE",
"530 337 OFFCURVE",
"588 416 OFFCURVE",
"610 454 QCURVE",
"622 471 OFFCURVE",
"635 500 OFFCURVE",
"635 517 QCURVE",
"635 532 OFFCURVE",
"619 551 OFFCURVE",
"602 551 QCURVE",
"543 551 OFFCURVE",
"443 493 OFFCURVE",
"359 403 OFFCURVE",
"287 296 OFFCURVE",
"256 247 QCURVE",
"242 225 OFFCURVE",
"213 168 OFFCURVE",
"182 108 OFFCURVE",
"148 49 OFFCURVE",
"111 3 OFFCURVE",
"70 -25 OFFCURVE",
"48 -25 QCURVE",
"13 -25 OFFCURVE",
"-25 16 OFFCURVE",
"-25 47 QCURVE",
"-25 70 OFFCURVE",
"-9 121 OFFCURVE",
"9 158 QCURVE"
);
}
);
width = 898;
}
);
unicode = 0068;
},
{
glyphname = i;
layers = (
{
layerId = "DC66AB0F-19FD-4F06-8C39-5D32AA939720";
paths = (
{
closed = 1;
nodes = (
"346 888 OFFCURVE",
"363 937 OFFCURVE",
"397 977 OFFCURVE",
"448 1003 OFFCURVE",
"483 1003 QCURVE",
"541 1003 OFFCURVE",
"587 958 OFFCURVE",
"587 924 QCURVE",
"587 905 OFFCURVE",
"572 859 OFFCURVE",
"542 820 OFFCURVE",
"494 794 OFFCURVE",
"461 794 QCURVE",
"399 794 OFFCURVE",
"349 833 OFFCURVE",
"346 865 QCURVE"
);
},
{
closed = 1;
nodes = (
"253 668 OFFCURVE",
"297 692 OFFCURVE",
"320 692 QCURVE",
"358 692 OFFCURVE",
"413 643 OFFCURVE",
"413 605 QCURVE",
"412 596 OFFCURVE",
"409 578 OFFCURVE",
"404 569 QCURVE",
"390 543 OFFCURVE",
"372 507 OFFCURVE",
"357 476 OFFCURVE",
"343 446 OFFCURVE",
"333 425 QCURVE",
"321 400 OFFCURVE",
"291 341 OFFCURVE",
"264 279 OFFCURVE",
"245 219 OFFCURVE",
"245 194 QCURVE",
"245 167 OFFCURVE",
"272 150 OFFCURVE",
"297 150 QCURVE",
"325 150 OFFCURVE",
"386 174 OFFCURVE",
"448 212 OFFCURVE",
"508 261 OFFCURVE",
"561 311 OFFCURVE",
"606 357 OFFCURVE",
"621 375 QCURVE",
"641 394 OFFCURVE",
"661 394 QCURVE",
"679 394 OFFCURVE",
"702 362 OFFCURVE",
"702 337 QCURVE",
"702 314 OFFCURVE",
"679 262 OFFCURVE",
"653 239 QCURVE",
"602 187 OFFCURVE",
"496 92 OFFCURVE",
"385 19 OFFCURVE",
"273 -25 OFFCURVE",
"216 -25 QCURVE",
"135 -25 OFFCURVE",
"42 58 OFFCURVE",
"42 146 QCURVE",
"42 192 OFFCURVE",
"68 280 OFFCURVE",
"104 363 OFFCURVE",
"144 440 OFFCURVE",
"158 475 QCURVE",
"163 488 OFFCURVE",
"188 542 OFFCURVE",
"202 570 QCURVE",
"218 603 OFFCURVE",
"236 640 QCURVE"
);
}
);
width = 480;
}
);
unicode = 0069;
},
{
glyphname = dotlessi;
layers = (
{
layerId = "DC66AB0F-19FD-4F06-8C39-5D32AA939720";
paths = (
{
closed = 1;
nodes = (
"264 668 OFFCURVE",
"308 692 OFFCURVE",
"331 692 QCURVE",
"369 692 OFFCURVE",
"424 643 OFFCURVE",
"424 605 QCURVE",
"423 596 OFFCURVE",
"420 578 OFFCURVE",
"415 569 QCURVE",
"401 543 OFFCURVE",
"383 507 OFFCURVE",
"368 476 OFFCURVE",
"354 446 OFFCURVE",
"344 425 QCURVE",
"332 400 OFFCURVE",
"302 341 OFFCURVE",
"275 279 OFFCURVE",
"256 219 OFFCURVE",
"256 194 QCURVE",
"256 167 OFFCURVE",
"283 154 OFFCURVE",
"308 154 QCURVE",
"350 154 OFFCURVE",
"445 203 OFFCURVE",
"534 273 OFFCURVE",
"609 349 OFFCURVE",
"632 375 QCURVE",
"664 239 LINE",
"613 187 OFFCURVE",
"507 93 OFFCURVE",
"396 21 OFFCURVE",
"284 -22 OFFCURVE",
"227 -22 QCURVE",
"147 -22 OFFCURVE",
"53 59 OFFCURVE",
"53 146 QCURVE",
"53 192 OFFCURVE",
"79 280 OFFCURVE",
"115 363 OFFCURVE",
"155 440 OFFCURVE",
"169 475 QCURVE",
"174 488 OFFCURVE",
"199 542 OFFCURVE",
"213 570 QCURVE",
"229 603 OFFCURVE",
"247 640 QCURVE"
);
}
);
width = 480;
}
);
unicode = 0131;
},
{
glyphname = j;
layers = (
{
layerId = "DC66AB0F-19FD-4F06-8C39-5D32AA939720";
paths = (
{
closed = 1;
nodes = (
"402 888 OFFCURVE",
"421 937 OFFCURVE",
"457 977 OFFCURVE",
"509 1003 OFFCURVE",
"544 1003 QCURVE",
"599 1003 OFFCURVE",
"644 962 OFFCURVE",
"644 931 QCURVE",
"644 911 OFFCURVE",
"629 864 OFFCURVE",
"598 822 OFFCURVE",
"548 794 OFFCURVE",
"513 794 QCURVE",
"451 794 OFFCURVE",
"402 833 OFFCURVE",
"401 865 QCURVE"
);
},
{
closed = 1;
nodes = (
"285 178 OFFCURVE",
"472 307 OFFCURVE",
"606 388 QCURVE",
"621 397 OFFCURVE",
"635 397 QCURVE",
"657 397 OFFCURVE",
"686 361 OFFCURVE",
"686 309 OFFCURVE",
"646 248 OFFCURVE",
"599 224 QCURVE",
"261 -8 LINE",
"239 -28 OFFCURVE",
"204 -57 OFFCURVE",
"169 -84 OFFCURVE",
"132 -111 OFFCURVE",
"109 -127 QCURVE",
"60 -211 OFFCURVE",
"-18 -328 OFFCURVE",
"-94 -401 OFFCURVE",
"-174 -435 OFFCURVE",
"-225 -435 QCURVE",
"-272 -435 OFFCURVE",
"-309 -398 OFFCURVE",
"-309 -365 QCURVE",
"-309 -334 OFFCURVE",
"-251 -271 OFFCURVE",
"-173 -204 OFFCURVE",
"-94 -129 OFFCURVE",
"-73 -85 QCURVE",
"-46 -29 OFFCURVE",
"15 99 OFFCURVE",
"77 231 OFFCURVE",
"140 362 OFFCURVE",
"197 481 OFFCURVE",
"248 583 OFFCURVE",
"267 619 QCURVE",
"287 657 OFFCURVE",
"350 692 OFFCURVE",
"380 692 QCURVE",
"412 692 OFFCURVE",
"458 656 OFFCURVE",
"458 623 QCURVE",
"458 601 OFFCURVE",
"451 565 OFFCURVE",
"431 520 OFFCURVE",
"398 457 OFFCURVE",
"346 361 OFFCURVE",
"274 224 OFFCURVE",
"225 127 QCURVE"
);
}
);
width = 486;
}
);
unicode = 006A;
},
{
glyphname = k;
layers = (
{
layerId = "DC66AB0F-19FD-4F06-8C39-5D32AA939720";
paths = (
{
closed = 1;
nodes = (
"413 551 OFFCURVE",
"498 628 OFFCURVE",
"591 689 OFFCURVE",
"693 727 OFFCURVE",
"749 727 QCURVE",
"782 727 OFFCURVE",
"852 712 OFFCURVE",
"909 678 OFFCURVE",
"945 624 OFFCURVE",
"945 585 QCURVE",
"945 521 OFFCURVE",
"886 417 OFFCURVE",
"792 335 OFFCURVE",
"677 272 OFFCURVE",
"622 250 QCURVE",
"608 244 OFFCURVE",
"584 225 OFFCURVE",
"567 204 OFFCURVE",
"557 183 OFFCURVE",
"557 176 QCURVE",
"557 164 OFFCURVE",
"572 147 OFFCURVE",
"591 147 QCURVE",
"628 147 OFFCURVE",
"722 177 OFFCURVE",
"847 238 OFFCURVE",
"1008 332 OFFCURVE",
"1113 396 QCURVE",
"1130 406 OFFCURVE",
"1145 406 QCURVE",
"1164 406 OFFCURVE",
"1186 378 OFFCURVE",
"1186 355 QCURVE",
"1186 327 OFFCURVE",
"1145 256 OFFCURVE",
"1097 224 QCURVE",
"1030 183 OFFCURVE",
"890 95 OFFCURVE",
"742 22 OFFCURVE",
"586 -25 OFFCURVE",
"504 -25 QCURVE",
"362 -25 OFFCURVE",
"362 98 QCURVE",
"362 163 OFFCURVE",
"417 262 OFFCURVE",
"496 336 OFFCURVE",
"582 389 OFFCURVE",
"613 410 QCURVE",
"637 424 OFFCURVE",
"679 456 OFFCURVE",
"712 490 OFFCURVE",
"731 525 OFFCURVE",
"731 543 QCURVE",
"731 572 OFFCURVE",
"704 572 QCURVE",
"604 572 OFFCURVE",
"424 379 QCURVE",
"383 335 OFFCURVE",
"315 252 OFFCURVE",
"256 172 OFFCURVE",
"202 97 OFFCURVE",
"176 63 QCURVE",
"98 -25 OFFCURVE",
"37 -25 QCURVE",
"8 -25 OFFCURVE",
"-18 -4 OFFCURVE",
"-18 25 QCURVE",
"-18 29 OFFCURVE",
"-18 37 OFFCURVE",
"-17 42 QCURVE",
"-15 62 OFFCURVE",
"15 144 OFFCURVE",
"60 248 OFFCURVE",
"115 366 OFFCURVE",
"169 479 OFFCURVE",
"217 578 OFFCURVE",
"233 611 QCURVE",
"549 1256 LINE",
"555 1269 OFFCURVE",
"580 1293 OFFCURVE",
"611 1312 OFFCURVE",
"646 1323 OFFCURVE",
"664 1323 QCURVE",
"709 1323 OFFCURVE",
"744 1289 OFFCURVE",
"744 1265 QCURVE",
"744 1243 OFFCURVE",
"723 1195 OFFCURVE",
"709 1174 QCURVE",
"667 1099 OFFCURVE",
"584 930 OFFCURVE",
"502 756 OFFCURVE",
"418 587 OFFCURVE",
"375 512 QCURVE"
);
}
);
width = 960;
}
);
unicode = 006B;
},
{
glyphname = l;
layers = (
{
layerId = "DC66AB0F-19FD-4F06-8C39-5D32AA939720";
paths = (
{
closed = 1;
nodes = (
"262 266 OFFCURVE",
"241 205 OFFCURVE",
"241 181 QCURVE",
"241 166 OFFCURVE",
"253 148 OFFCURVE",
"270 148 QCURVE",
"291 148 OFFCURVE",
"354 173 OFFCURVE",
"427 214 OFFCURVE",
"506 267 OFFCURVE",
"584 324 OFFCURVE",
"655 381 OFFCURVE",
"683 405 QCURVE",
"691 412 OFFCURVE",
"713 418 OFFCURVE",
"721 418 QCURVE",
"741 418 OFFCURVE",
"767 390 OFFCURVE",
"767 367 QCURVE",
"767 346 OFFCURVE",
"739 294 OFFCURVE",
"704 269 QCURVE",
"640 210 OFFCURVE",
"510 104 OFFCURVE",
"381 23 OFFCURVE",
"254 -25 OFFCURVE",
"194 -25 QCURVE",
"153 -25 OFFCURVE",
"98 -3 OFFCURVE",
"65 35 OFFCURVE",
"51 87 OFFCURVE",
"51 116 QCURVE",
"51 165 OFFCURVE",
"80 268 OFFCURVE",
"100 311 QCURVE",
"135 389 OFFCURVE",
"207 543 OFFCURVE",
"237 607 QCURVE",
"540 1252 LINE",
"558 1291 OFFCURVE",
"619 1323 OFFCURVE",
"681 1323 OFFCURVE",
"732 1289 OFFCURVE",
"732 1251 QCURVE",
"732 1233 OFFCURVE",
"715 1193 OFFCURVE",
"702 1170 QCURVE",
"677 1123 OFFCURVE",
"608 987 OFFCURVE",
"529 827 OFFCURVE",
"446 654 OFFCURVE",
"367 490 OFFCURVE",
"298 343 OFFCURVE",
"273 289 QCURVE"
);
}
);
width = 528;
}
);
unicode = 006C;
},
{
glyphname = lslash;
layers = (
{
layerId = "DC66AB0F-19FD-4F06-8C39-5D32AA939720";
paths = (
{
closed = 1;
nodes = (
"262 266 OFFCURVE",
"241 205 OFFCURVE",
"241 181 QCURVE",
"241 166 OFFCURVE",
"253 148 OFFCURVE",
"270 148 QCURVE",
"291 148 OFFCURVE",
"354 173 OFFCURVE",
"427 214 OFFCURVE",
"506 267 OFFCURVE",
"584 324 OFFCURVE",
"655 381 OFFCURVE",
"683 405 QCURVE",
"691 412 OFFCURVE",
"713 418 OFFCURVE",
"721 418 QCURVE",
"741 418 OFFCURVE",
"767 390 OFFCURVE",
"767 367 QCURVE",
"767 346 OFFCURVE",
"739 294 OFFCURVE",
"704 269 QCURVE",
"640 210 OFFCURVE",
"510 104 OFFCURVE",
"381 23 OFFCURVE",
"254 -25 OFFCURVE",
"194 -25 QCURVE",
"153 -25 OFFCURVE",
"98 -3 OFFCURVE",
"65 35 OFFCURVE",
"51 87 OFFCURVE",
"51 116 QCURVE",
"51 165 OFFCURVE",
"80 268 OFFCURVE",
"100 311 QCURVE",
"135 389 OFFCURVE",
"207 543 OFFCURVE",
"237 607 QCURVE",
"307 757 LINE",
"268 747 OFFCURVE",
"229 736 QCURVE",
"226 735 OFFCURVE",
"219 735 QCURVE",
"203 735 OFFCURVE",
"183 764 OFFCURVE",
"183 784 QCURVE",
"183 807 OFFCURVE",
"216 855 OFFCURVE",
"258 866 QCURVE",
"316 881 OFFCURVE",
"373 896 QCURVE",
"540 1252 LINE",
"558 1291 OFFCURVE",
"619 1323 OFFCURVE",
"681 1323 OFFCURVE",
"732 1289 OFFCURVE",
"732 1251 QCURVE",
"732 1233 OFFCURVE",
"715 1193 OFFCURVE",
"702 1170 QCURVE",
"676 1123 OFFCURVE",
"642 1055 QCURVE",
"618 1008 OFFCURVE",
"592 955 QCURVE",
"634 966 OFFCURVE",
"677 978 QCURVE",
"680 979 OFFCURVE",
"685 979 QCURVE",
"703 979 OFFCURVE",
"728 945 OFFCURVE",
"728 923 QCURVE",
"728 902 OFFCURVE",
"699 861 OFFCURVE",
"664 852 QCURVE",
"593 833 OFFCURVE",
"523 814 QCURVE",
"506 778 OFFCURVE",
"488 740 QCURVE",
"446 654 OFFCURVE",
"367 490 OFFCURVE",
"298 343 OFFCURVE",
"273 289 QCURVE"
);
}
);
width = 528;
}
);
unicode = 0142;
},
{
glyphname = m;
layers = (
{
layerId = "DC66AB0F-19FD-4F06-8C39-5D32AA939720";
paths = (
{
closed = 1;
nodes = (
"422 82 OFFCURVE",
"465 182 OFFCURVE",
"531 288 OFFCURVE",
"609 397 OFFCURVE",
"644 454 QCURVE",
"654 470 OFFCURVE",
"666 499 OFFCURVE",
"666 514 QCURVE",
"666 530 OFFCURVE",
"648 551 OFFCURVE",
"631 551 QCURVE",
"590 551 OFFCURVE",
"514 516 OFFCURVE",
"444 459 OFFCURVE",
"381 385 OFFCURVE",
"326 306 OFFCURVE",
"278 228 OFFCURVE",
"258 196 QCURVE",
"240 163 OFFCURVE",
"210 85 OFFCURVE",
"175 19 OFFCURVE",
"131 -26 OFFCURVE",
"98 -26 QCURVE",
"62 -26 OFFCURVE",
"20 20 OFFCURVE",
"20 52 QCURVE",
"20 70 OFFCURVE",
"46 146 OFFCURVE",
"87 247 OFFCURVE",
"139 361 OFFCURVE",
"190 473 OFFCURVE",
"235 572 OFFCURVE",
"250 607 QCURVE",
"268 650 OFFCURVE",
"327 692 OFFCURVE",
"356 692 QCURVE",
"381 692 OFFCURVE",
"420 655 OFFCURVE",
"420 620 QCURVE",
"420 594 OFFCURVE",
"408 563 QCURVE",
"435 588 OFFCURVE",
"497 646 OFFCURVE",
"570 695 OFFCURVE",
"660 727 OFFCURVE",
"716 727 QCURVE",
"744 727 OFFCURVE",
"794 713 OFFCURVE",
"833 683 OFFCURVE",
"858 635 OFFCURVE",
"860 601 QCURVE",
"883 624 OFFCURVE",
"937 669 OFFCURVE",
"1000 705 OFFCURVE",
"1074 727 OFFCURVE",
"1119 727 QCURVE",
"1152 727 OFFCURVE",
"1212 713 OFFCURVE",
"1259 680 OFFCURVE",
"1286 628 OFFCURVE",
"1286 590 QCURVE",
"1286 530 OFFCURVE",
"1231 422 OFFCURVE",
"1194 377 QCURVE",
"1182 362 OFFCURVE",
"1142 316 OFFCURVE",
"1104 264 OFFCURVE",
"1076 209 OFFCURVE",
"1076 185 QCURVE",
"1076 163 OFFCURVE",
"1103 151 OFFCURVE",
"1125 151 QCURVE",
"1167 151 OFFCURVE",
"1265 201 OFFCURVE",
"1358 272 OFFCURVE",
"1439 349 OFFCURVE",
"1463 375 QCURVE",
"1469 382 OFFCURVE",
"1485 388 OFFCURVE",
"1493 388 QCURVE",
"1511 388 OFFCURVE",
"1540 356 OFFCURVE",
"1540 330 QCURVE",
"1540 310 OFFCURVE",
"1516 262 OFFCURVE",
"1487 239 QCURVE",
"1433 187 OFFCURVE",
"1320 92 OFFCURVE",
"1205 19 OFFCURVE",
"1090 -25 OFFCURVE",
"1033 -25 QCURVE",
"959 -25 OFFCURVE",
"868 45 OFFCURVE",
"868 121 QCURVE",
"868 171 OFFCURVE",
"906 259 OFFCURVE",
"962 340 OFFCURVE",
"1024 416 OFFCURVE",
"1047 454 QCURVE",
"1057 470 OFFCURVE",
"1069 499 OFFCURVE",
"1069 514 QCURVE",
"1069 530 OFFCURVE",
"1051 551 OFFCURVE",
"1034 551 QCURVE",
"993 551 OFFCURVE",
"917 516 OFFCURVE",
"847 459 OFFCURVE",
"784 385 OFFCURVE",
"729 306 OFFCURVE",
"681 228 OFFCURVE",
"661 196 QCURVE",
"643 163 OFFCURVE",
"613 85 OFFCURVE",
"578 19 OFFCURVE",
"534 -26 OFFCURVE",
"501 -26 QCURVE",
"489 -26 OFFCURVE",
"461 -17 OFFCURVE",
"438 -1 OFFCURVE",
"423 21 OFFCURVE",
"422 34 QCURVE"
);
}
);
width = 1312;
}
);
unicode = 006D;
},
{
glyphname = n;
layers = (
{
layerId = "DC66AB0F-19FD-4F06-8C39-5D32AA939720";
paths = (
{
closed = 1;
nodes = (
"285 650 OFFCURVE",
"345 692 OFFCURVE",
"374 692 QCURVE",
"398 692 OFFCURVE",
"436 657 OFFCURVE",
"436 623 QCURVE",
"436 610 OFFCURVE",
"430 580 OFFCURVE",
"422 563 QCURVE",
"444 591 OFFCURVE",
"526 650 OFFCURVE",
"625 697 OFFCURVE",
"730 727 OFFCURVE",
"777 727 QCURVE",
"830 727 OFFCURVE",
"901 676 OFFCURVE",
"901 615 QCURVE",
"901 579 OFFCURVE",
"879 501 OFFCURVE",
"844 423 OFFCURVE",
"801 348 OFFCURVE",
"759 282 OFFCURVE",
"724 227 OFFCURVE",
"714 209 QCURVE",
"701 193 OFFCURVE",
"701 172 QCURVE",
"701 164 OFFCURVE",
"711 152 OFFCURVE",
"722 152 QCURVE",
"729 152 OFFCURVE",
"747 155 OFFCURVE",
"760 164 QCURVE",
"814 184 OFFCURVE",
"927 244 OFFCURVE",
"1031 311 OFFCURVE",
"1118 378 OFFCURVE",
"1147 405 QCURVE",
"1155 412 OFFCURVE",
"1171 418 OFFCURVE",
"1178 418 QCURVE",
"1195 418 OFFCURVE",
"1214 392 OFFCURVE",
"1214 372 QCURVE",
"1214 341 OFFCURVE",
"1175 265 OFFCURVE",
"1133 232 QCURVE",
"1076 191 OFFCURVE",
"981 123 OFFCURVE",
"882 64 OFFCURVE",
"769 13 OFFCURVE",
"693 -9 QCURVE",
"667 -17 OFFCURVE",
"624 -25 OFFCURVE",
"606 -25 QCURVE",
"553 -25 OFFCURVE",
"504 34 OFFCURVE",
"504 87 QCURVE",
"504 94 OFFCURVE",
"505 107 OFFCURVE",
"506 115 QCURVE",
"508 146 OFFCURVE",
"537 220 OFFCURVE",
"578 298 OFFCURVE",
"624 375 OFFCURVE",
"663 444 OFFCURVE",
"689 498 OFFCURVE",
"689 515 QCURVE",
"689 530 OFFCURVE",
"672 551 OFFCURVE",
"655 551 QCURVE",
"591 551 OFFCURVE",
"476 475 OFFCURVE",
"376 364 OFFCURVE",
"292 240 OFFCURVE",
"260 191 QCURVE",
"240 158 OFFCURVE",
"207 83 OFFCURVE",
"171 18 OFFCURVE",
"126 -25 OFFCURVE",
"92 -25 QCURVE",
"57 -25 OFFCURVE",
"17 19 OFFCURVE",
"17 51 QCURVE",
"17 68 OFFCURVE",
"45 144 OFFCURVE",
"89 244 OFFCURVE",
"144 359 OFFCURVE",
"199 472 OFFCURVE",
"249 572 OFFCURVE",
"265 607 QCURVE"
);
}
);
width = 951;
}
);
unicode = 006E;
},
{
glyphname = o;
layers = (
{
layerId = "DC66AB0F-19FD-4F06-8C39-5D32AA939720";
paths = (
{
closed = 1;
nodes = (
"441 551 OFFCURVE",
"354 504 OFFCURVE",
"287 427 OFFCURVE",
"247 330 OFFCURVE",
"247 279 QCURVE",
"247 260 OFFCURVE",
"253 215 OFFCURVE",
"272 176 OFFCURVE",
"308 150 OFFCURVE",
"338 150 QCURVE",
"384 150 OFFCURVE",
"471 199 OFFCURVE",
"539 278 OFFCURVE",
"579 378 OFFCURVE",
"579 429 QCURVE",
"579 449 OFFCURVE",
"574 492 OFFCURVE",
"555 528 OFFCURVE",
"519 551 OFFCURVE",
"488 551 QCURVE"
);
},
{
closed = 1;
nodes = (
"578 727 OFFCURVE",
"665 707 OFFCURVE",
"739 659 OFFCURVE",
"788 580 OFFCURVE",
"788 522 QCURVE",
"788 492 OFFCURVE",
"772 415 OFFCURVE",
"756 373 QCURVE",
"766 361 OFFCURVE",
"792 351 OFFCURVE",
"807 351 QCURVE",
"828 351 OFFCURVE",
"879 375 OFFCURVE",
"933 413 OFFCURVE",
"987 461 OFFCURVE",
"1035 509 OFFCURVE",
"1074 552 OFFCURVE",
"1087 567 QCURVE",
"1094 574 OFFCURVE",
"1104 574 QCURVE",
"1118 574 OFFCURVE",
"1140 545 OFFCURVE",
"1140 493 OFFCURVE",
"1109 425 OFFCURVE",
"1067 388 QCURVE",
"1043 362 OFFCURVE",
"981 294 OFFCURVE",
"911 234 OFFCURVE",
"835 192 OFFCURVE",
"797 192 QCURVE",
"771 192 OFFCURVE",
"722 208 OFFCURVE",
"697 226 QCURVE",
"661 170 OFFCURVE",
"569 78 OFFCURVE",
"456 12 OFFCURVE",
"325 -25 OFFCURVE",
"251 -25 QCURVE",
"223 -25 OFFCURVE",
"149 -3 OFFCURVE",
"82 48 OFFCURVE",
"36 130 OFFCURVE",
"36 189 QCURVE",
"36 229 OFFCURVE",
"62 341 OFFCURVE",
"115 460 OFFCURVE",
"196 577 OFFCURVE",
"308 670 OFFCURVE",
"452 727 OFFCURVE",
"540 727 QCURVE"
);
}
);
width = 848;
}
);
unicode = 006F;
},
{
glyphname = oslash;
layers = (
{
layerId = "DC66AB0F-19FD-4F06-8C39-5D32AA939720";
paths = (
{
closed = 1;
nodes = (
"472 551 OFFCURVE",
"385 504 OFFCURVE",
"318 427 OFFCURVE",
"278 330 OFFCURVE",
"278 279 QCURVE",
"278 271 OFFCURVE",
"278 252 OFFCURVE",
"280 243 QCURVE",
"534 550 LINE",
"530 550 OFFCURVE",
"523 551 OFFCURVE",
"519 551 QCURVE"
);
},
{
closed = 1;
nodes = (
"566 445 OFFCURVE",
"499 365 OFFCURVE",
"433 287 OFFCURVE",
"364 205 OFFCURVE",
"326 159 QCURVE",
"342 150 OFFCURVE",
"369 150 QCURVE",
"415 150 OFFCURVE",
"502 199 OFFCURVE",
"570 278 OFFCURVE",
"610 378 OFFCURVE",
"610 429 QCURVE",
"610 444 OFFCURVE",
"608 476 OFFCURVE",
"603 490 QCURVE"
);
},
{
closed = 1;
nodes = (
"618 727 OFFCURVE",
"668 712 QCURVE",
"725 782 LINE",
"735 793 OFFCURVE",
"759 805 OFFCURVE",
"770 805 QCURVE",
"789 805 OFFCURVE",
"816 780 OFFCURVE",
"816 763 QCURVE",
"816 757 OFFCURVE",
"808 741 OFFCURVE",
"808 736 QCURVE",
"752 669 LINE",
"781 645 OFFCURVE",
"819 573 OFFCURVE",
"819 522 QCURVE",
"819 492 OFFCURVE",
"803 415 OFFCURVE",
"787 373 QCURVE",
"797 361 OFFCURVE",
"823 351 OFFCURVE",
"838 351 QCURVE",
"864 351 OFFCURVE",
"925 377 OFFCURVE",
"990 419 OFFCURVE",
"1056 471 OFFCURVE",
"1114 524 OFFCURVE",
"1162 571 OFFCURVE",
"1178 587 QCURVE",
"1185 594 OFFCURVE",
"1195 594 QCURVE",
"1209 594 OFFCURVE",
"1231 565 OFFCURVE",
"1231 513 OFFCURVE",
"1200 445 OFFCURVE",
"1158 408 QCURVE",
"1129 379 OFFCURVE",
"1054 304 OFFCURVE",
"969 238 OFFCURVE",
"875 192 OFFCURVE",
"828 192 QCURVE",
"802 192 OFFCURVE",
"753 208 OFFCURVE",
"728 226 QCURVE",
"692 170 OFFCURVE",
"600 78 OFFCURVE",
"487 12 OFFCURVE",
"356 -25 OFFCURVE",
"282 -25 QCURVE",
"262 -25 OFFCURVE",
"215 -14 OFFCURVE",
"190 -3 QCURVE",
"139 -64 LINE",
"118 -89 OFFCURVE",
"95 -89 QCURVE",
"77 -89 OFFCURVE",
"52 -65 OFFCURVE",
"52 -49 QCURVE",
"52 -42 OFFCURVE",
"55 -29 OFFCURVE",
"62 -21 QCURVE",
"119 48 LINE",
"96 74 OFFCURVE",
"67 142 OFFCURVE",
"67 189 QCURVE",
"67 229 OFFCURVE",
"93 341 OFFCURVE",
"146 460 OFFCURVE",
"227 577 OFFCURVE",
"339 670 OFFCURVE",
"483 727 OFFCURVE",
"571 727 QCURVE"
);
}
);
width = 848;
}
);
unicode = 00F8;
},
{
glyphname = oe;
layers = (
{
layerId = "DC66AB0F-19FD-4F06-8C39-5D32AA939720";
paths = (
{
closed = 1;
nodes = (
"1070 552 OFFCURVE",
"1041 568 OFFCURVE",
"1022 568 QCURVE",
"985 568 OFFCURVE",
"922 540 OFFCURVE",
"869 495 OFFCURVE",
"826 439 OFFCURVE",
"794 383 OFFCURVE",
"772 331 OFFCURVE",
"766 314 QCURVE",
"866 362 OFFCURVE",
"986 430 OFFCURVE",
"1050 479 OFFCURVE",
"1070 515 OFFCURVE",
"1070 532 QCURVE"
);
},
{
closed = 1;
nodes = (
"460 551 OFFCURVE",
"380 503 OFFCURVE",
"318 426 OFFCURVE",
"281 328 OFFCURVE",
"281 277 QCURVE",
"281 258 OFFCURVE",
"285 214 OFFCURVE",
"302 176 OFFCURVE",
"335 150 OFFCURVE",
"365 150 QCURVE",
"408 150 OFFCURVE",
"489 199 OFFCURVE",
"551 279 OFFCURVE",
"588 380 OFFCURVE",
"588 433 QCURVE",
"588 452 OFFCURVE",
"583 493 OFFCURVE",
"565 528 OFFCURVE",
"532 551 OFFCURVE",
"504 551 QCURVE"
);
},
{
closed = 1;
nodes = (
"1112 727 OFFCURVE",
"1174 707 OFFCURVE",
"1218 670 OFFCURVE",
"1242 616 OFFCURVE",
"1242 583 QCURVE",
"1242 541 OFFCURVE",
"1206 449 OFFCURVE",
"1106 351 OFFCURVE",
"926 250 OFFCURVE",
"781 199 QCURVE",
"786 170 OFFCURVE",
"838 137 OFFCURVE",
"881 137 QCURVE",
"922 137 OFFCURVE",
"1016 168 OFFCURVE",
"1109 216 OFFCURVE",
"1197 273 OFFCURVE",
"1268 324 OFFCURVE",
"1316 361 OFFCURVE",
"1324 365 QCURVE",
"1332 370 OFFCURVE",
"1348 373 OFFCURVE",
"1354 373 QCURVE",
"1366 373 OFFCURVE",
"1382 362 OFFCURVE",
"1393 347 OFFCURVE",
"1397 330 OFFCURVE",
"1397 324 QCURVE",
"1397 315 OFFCURVE",
"1393 290 OFFCURVE",
"1380 274 QCURVE",
"1375 268 OFFCURVE",
"1322 219 OFFCURVE",
"1238 153 OFFCURVE",
"1128 78 OFFCURVE",
"1006 16 OFFCURVE",
"875 -25 OFFCURVE",
"812 -25 QCURVE",
"732 -25 OFFCURVE",
"619 54 OFFCURVE",
"590 117 QCURVE",
"531 62 OFFCURVE",
"379 -8 OFFCURVE",
"285 -8 QCURVE",
"258 -8 OFFCURVE",
"190 13 OFFCURVE",
"128 61 OFFCURVE",
"86 138 OFFCURVE",
"86 193 QCURVE",
"86 233 OFFCURVE",
"110 344 OFFCURVE",
"159 462 OFFCURVE",
"235 578 OFFCURVE",
"338 670 OFFCURVE",
"470 727 OFFCURVE",
"552 727 QCURVE",
"583 727 OFFCURVE",
"643 709 OFFCURVE",
"693 669 OFFCURVE",
"729 606 OFFCURVE",
"737 561 QCURVE",
"805 634 OFFCURVE",
"975 727 OFFCURVE",
"1075 727 QCURVE"
);
}
);
width = 1180;
}
);
unicode = 0153;
},
{
glyphname = p;
layers = (
{
layerId = "DC66AB0F-19FD-4F06-8C39-5D32AA939720";
paths = (
{
closed = 1;
nodes = (
"1176 478 OFFCURVE",
"1200 488 OFFCURVE",
"1211 488 QCURVE",
"1233 488 OFFCURVE",
"1255 455 OFFCURVE",
"1255 431 QCURVE",
"1255 405 OFFCURVE",
"1228 351 OFFCURVE",
"1201 333 QCURVE",
"1094 253 OFFCURVE",
"926 121 OFFCURVE",
"777 26 OFFCURVE",
"635 -26 OFFCURVE",
"554 -26 QCURVE",
"478 -26 OFFCURVE",
"395 30 OFFCURVE",
"395 79 QCURVE",
"395 83 OFFCURVE",
"395 90 OFFCURVE",
"396 95 QCURVE",
"400 125 OFFCURVE",
"454 203 OFFCURVE",
"530 287 OFFCURVE",
"616 373 OFFCURVE",
"689 450 OFFCURVE",
"737 514 OFFCURVE",
"737 534 QCURVE",
"737 546 OFFCURVE",
"717 560 OFFCURVE",
"694 560 QCURVE",
"654 560 OFFCURVE",
"569 525 OFFCURVE",
"486 466 OFFCURVE",
"407 390 OFFCURVE",
"338 308 OFFCURVE",
"281 225 OFFCURVE",
"261 190 QCURVE",
"255 179 OFFCURVE",
"233 139 OFFCURVE",
"207 89 OFFCURVE",
"178 36 OFFCURVE",
"154 -11 OFFCURVE",
"135 -48 OFFCURVE",
"131 -55 QCURVE",
"126 -64 OFFCURVE",
"103 -114 OFFCURVE",
"73 -181 OFFCURVE",
"40 -255 OFFCURVE",
"11 -321 OFFCURVE",
"-11 -371 OFFCURVE",
"-14 -380 QCURVE",
"-24 -406 OFFCURVE",
"-51 -452 OFFCURVE",
"-86 -487 OFFCURVE",
"-131 -508 OFFCURVE",
"-159 -508 QCURVE",
"-195 -508 OFFCURVE",
"-242 -479 OFFCURVE",
"-242 -438 QCURVE",
"-242 -418 OFFCURVE",
"-230 -376 OFFCURVE",
"-212 -335 OFFCURVE",
"-193 -296 OFFCURVE",
"-185 -278 QCURVE",
"-131 -178 OFFCURVE",
"-19 23 OFFCURVE",
"84 220 OFFCURVE",
"172 410 OFFCURVE",
"201 497 QCURVE",
"209 515 OFFCURVE",
"237 581 OFFCURVE",
"273 645 OFFCURVE",
"318 692 OFFCURVE",
"344 692 QCURVE",
"384 692 OFFCURVE",
"420 661 OFFCURVE",
"420 631 QCURVE",
"420 625 OFFCURVE",
"416 599 OFFCURVE",
"410 570 OFFCURVE",
"403 544 OFFCURVE",
"400 538 QCURVE",
"437 572 OFFCURVE",
"523 639 OFFCURVE",
"615 693 OFFCURVE",
"711 727 OFFCURVE",
"759 727 QCURVE",
"792 727 OFFCURVE",
"857 711 OFFCURVE",
"908 680 OFFCURVE",
"940 633 OFFCURVE",
"940 602 QCURVE",
"940 561 OFFCURVE",
"891 468 OFFCURVE",
"817 374 OFFCURVE",
"731 285 OFFCURVE",
"656 212 OFFCURVE",
"605 161 OFFCURVE",
"604 152 QCURVE",
"604 140 OFFCURVE",
"622 125 OFFCURVE",
"643 125 QCURVE",
"660 125 OFFCURVE",
"726 157 OFFCURVE",
"845 236 OFFCURVE",
"1028 369 OFFCURVE",
"1162 470 QCURVE"
);
}
);
width = 979;
}
);
unicode = 0070;
},
{
glyphname = thorn;
layers = (
{
layerId = "DC66AB0F-19FD-4F06-8C39-5D32AA939720";
paths = (
{
closed = 1;
nodes = (
"627 561 OFFCURVE",
"513 506 OFFCURVE",
"422 416 OFFCURVE",
"364 303 OFFCURVE",
"364 245 QCURVE",
"364 229 OFFCURVE",
"370 196 OFFCURVE",
"389 168 OFFCURVE",
"425 150 OFFCURVE",
"455 150 QCURVE",
"513 150 OFFCURVE",
"622 205 OFFCURVE",
"708 295 OFFCURVE",
"760 408 OFFCURVE",
"760 465 QCURVE",
"760 480 OFFCURVE",
"755 514 OFFCURVE",
"739 542 OFFCURVE",
"709 561 OFFCURVE",
"684 561 QCURVE"
);
},
{
closed = 1;
nodes = (
"-21 -76 OFFCURVE",
"70 117 OFFCURVE",
"163 315 OFFCURVE",
"255 514 OFFCURVE",
"297 607 QCURVE",
"589 1256 LINE",
"595 1269 OFFCURVE",
"618 1293 OFFCURVE",
"648 1312 OFFCURVE",
"683 1323 OFFCURVE",
"701 1323 QCURVE",
"747 1323 OFFCURVE",
"784 1287 OFFCURVE",
"784 1261 QCURVE",
"784 1241 OFFCURVE",
"764 1194 OFFCURVE",
"752 1174 QCURVE",
"678 1032 OFFCURVE",
"546 739 OFFCURVE",
"472 596 QCURVE",
"504 621 OFFCURVE",
"576 668 OFFCURVE",
"654 705 OFFCURVE",
"738 728 OFFCURVE",
"782 728 QCURVE",
"813 728 OFFCURVE",
"877 704 OFFCURVE",
"930 658 OFFCURVE",
"963 591 OFFCURVE",
"963 547 QCURVE",
"963 537 OFFCURVE",
"951 477 OFFCURVE",
"928 402 OFFCURVE",
"895 323 OFFCURVE",
"875 293 QCURVE",
"882 282 OFFCURVE",
"904 277 OFFCURVE",
"918 277 QCURVE",
"964 277 OFFCURVE",
"1055 301 OFFCURVE",
"1136 336 OFFCURVE",
"1204 374 OFFCURVE",
"1227 388 QCURVE",
"1239 401 OFFCURVE",
"1253 401 QCURVE",
"1270 401 OFFCURVE",
"1295 371 OFFCURVE",
"1295 347 QCURVE",
"1295 324 OFFCURVE",
"1276 279 OFFCURVE",
"1251 252 QCURVE",
"1206 225 OFFCURVE",
"1115 177 OFFCURVE",
"1021 142 OFFCURVE",
"924 121 OFFCURVE",
"874 121 QCURVE",
"842 121 OFFCURVE",
"788 139 OFFCURVE",
"768 158 QCURVE",
"683 56 OFFCURVE",
"492 -39 OFFCURVE",
"381 -39 QCURVE",
"324 -39 OFFCURVE",
"244 -9 OFFCURVE",
"218 17 QCURVE",
"100 -246 LINE",
"94 -259 OFFCURVE",
"71 -283 OFFCURVE",
"41 -302 OFFCURVE",
"6 -313 OFFCURVE",
"-12 -313 QCURVE",
"-58 -313 OFFCURVE",
"-95 -277 OFFCURVE",
"-95 -251 QCURVE",
"-95 -231 OFFCURVE",
"-73 -185 OFFCURVE",
"-63 -164 QCURVE"
);
}
);
width = 980;
}
);
unicode = 00FE;
},
{
glyphname = q;
layers = (
{
layerId = "DC66AB0F-19FD-4F06-8C39-5D32AA939720";
paths = (
{
closed = 1;
nodes = (
"637 521 OFFCURVE",
"622 537 QCURVE",
"609 551 OFFCURVE",
"567 573 OFFCURVE",
"535 573 QCURVE",
"477 573 OFFCURVE",
"377 509 OFFCURVE",
"303 410 OFFCURVE",
"261 290 OFFCURVE",
"261 234 QCURVE",
"261 190 OFFCURVE",
"290 152 OFFCURVE",
"315 152 QCURVE",
"349 152 OFFCURVE",
"422 194 OFFCURVE",
"503 280 OFFCURVE",
"593 412 OFFCURVE",
"645 502 QCURVE"
);
},
{
closed = 1;
nodes = (
"427 -264 LINE",
"418 -286 OFFCURVE",
"392 -339 OFFCURVE",
"392 -360 QCURVE",
"392 -383 OFFCURVE",
"414 -383 QCURVE",
"430 -383 OFFCURVE",
"471 -339 OFFCURVE",
"518 -265 OFFCURVE",
"569 -169 OFFCURVE",
"620 -64 OFFCURVE",
"669 41 OFFCURVE",
"711 134 OFFCURVE",
"744 207 OFFCURVE",
"755 226 QCURVE",
"777 254 OFFCURVE",
"841 302 OFFCURVE",
"916 350 OFFCURVE",
"1000 399 OFFCURVE",
"1043 428 QCURVE",
"1056 434 OFFCURVE",
"1067 434 QCURVE",
"1087 434 OFFCURVE",
"1108 395 OFFCURVE",
"1108 366 QCURVE",
"1108 347 OFFCURVE",
"1099 306 OFFCURVE",
"1080 267 OFFCURVE",
"1051 234 OFFCURVE",
"1032 224 QCURVE",
"891 138 LINE",
"869 122 OFFCURVE",
"826 42 OFFCURVE",
"780 -67 OFFCURVE",
"728 -196 OFFCURVE",
"665 -325 OFFCURVE",
"591 -445 OFFCURVE",
"500 -538 OFFCURVE",
"390 -594 OFFCURVE",
"323 -594 QCURVE",
"293 -594 OFFCURVE",
"242 -576 OFFCURVE",
"204 -543 OFFCURVE",
"182 -497 OFFCURVE",
"182 -468 QCURVE",
"182 -449 OFFCURVE",
"184 -423 OFFCURVE",
"194 -390 OFFCURVE",
"218 -341 OFFCURVE",
"239 -299 QCURVE",
"409 37 LINE",
"377 8 OFFCURVE",
"308 -25 OFFCURVE",
"270 -25 QCURVE",
"222 -25 OFFCURVE",
"152 15 OFFCURVE",
"106 81 OFFCURVE",
"84 168 OFFCURVE",
"84 215 QCURVE",
"84 301 OFFCURVE",
"136 445 OFFCURVE",
"219 558 OFFCURVE",
"324 643 OFFCURVE",
"428 699 OFFCURVE",
"521 727 OFFCURVE",
"552 727 QCURVE",
"594 727 OFFCURVE",
"655 699 OFFCURVE",
"675 682 QCURVE",
"699 662 OFFCURVE",
"714 637 QCURVE",
"730 652 OFFCURVE",
"745 664 QCURVE",
"758 675 OFFCURVE",
"785 692 OFFCURVE",
"795 692 QCURVE",
"828 692 OFFCURVE",
"865 653 OFFCURVE",
"865 624 QCURVE",
"865 601 OFFCURVE",
"852 575 QCURVE"
);
}
);
width = 852;
}
);
unicode = 0071;
},
{
glyphname = r;
layers = (
{
layerId = "DC66AB0F-19FD-4F06-8C39-5D32AA939720";
paths = (
{
closed = 1;
nodes = (
"454 583 LINE",
"493 607 OFFCURVE",
"576 647 OFFCURVE",
"654 676 OFFCURVE",
"725 693 OFFCURVE",
"753 693 QCURVE",
"798 693 OFFCURVE",
"847 650 OFFCURVE",
"847 599 QCURVE",
"847 588 OFFCURVE",
"845 563 OFFCURVE",
"842 549 QCURVE",
"837 523 OFFCURVE",
"787 453 OFFCURVE",
"720 377 OFFCURVE",
"643 300 OFFCURVE",
"578 235 OFFCURVE",
"535 187 OFFCURVE",
"535 178 QCURVE",
"535 170 OFFCURVE",
"537 164 OFFCURVE",
"545 164 QCURVE",
"599 187 OFFCURVE",
"732 252 OFFCURVE",
"864 320 OFFCURVE",
"982 385 OFFCURVE",
"1023 409 QCURVE",
"1032 414 OFFCURVE",
"1051 421 OFFCURVE",
"1059 421 QCURVE",
"1077 421 OFFCURVE",
"1101 397 OFFCURVE",
"1101 377 QCURVE",
"1101 354 OFFCURVE",
"1062 295 OFFCURVE",
"1016 263 QCURVE",
"981 241 OFFCURVE",
"894 186 OFFCURVE",
"799 127 OFFCURVE",
"702 71 OFFCURVE",
"612 27 OFFCURVE",
"533 0 OFFCURVE",
"504 0 QCURVE",
"435 0 OFFCURVE",
"366 66 OFFCURVE",
"366 118 QCURVE",
"366 126 OFFCURVE",
"367 130 QCURVE",
"374 174 OFFCURVE",
"412 256 OFFCURVE",
"460 330 OFFCURVE",
"512 397 OFFCURVE",
"555 456 OFFCURVE",
"583 506 OFFCURVE",
"583 527 QCURVE",
"583 532 OFFCURVE",
"579 542 OFFCURVE",
"572 542 QCURVE",
"560 542 OFFCURVE",
"505 524 OFFCURVE",
"443 494 OFFCURVE",
"387 455 OFFCURVE",
"375 433 QCURVE",
"359 405 OFFCURVE",
"317 319 OFFCURVE",
"272 225 OFFCURVE",
"230 133 OFFCURVE",
"215 100 QCURVE",
"203 71 OFFCURVE",
"164 25 OFFCURVE",
"118 -7 OFFCURVE",
"70 -25 OFFCURVE",
"50 -25 QCURVE",
"27 -25 OFFCURVE",
"0 -1 OFFCURVE",
"0 26 QCURVE",
"0 37 OFFCURVE",
"7 70 OFFCURVE",
"18 90 QCURVE",
"36 124 OFFCURVE",
"73 204 OFFCURVE",
"121 307 OFFCURVE",
"184 440 OFFCURVE",
"227 527 QCURVE",
"213 539 OFFCURVE",
"194 574 OFFCURVE",
"194 600 QCURVE",
"194 624 OFFCURVE",
"214 659 OFFCURVE",
"248 681 OFFCURVE",
"293 692 OFFCURVE",
"318 692 QCURVE",
"344 692 OFFCURVE",
"396 683 OFFCURVE",
"437 665 OFFCURVE",
"463 639 OFFCURVE",
"463 622 QCURVE",
"463 619 OFFCURVE",
"459 609 OFFCURVE",
"454 597 OFFCURVE",
"450 587 OFFCURVE",
"450 584 QCURVE",
"450 582 OFFCURVE",
"451 582 QCURVE",
"452 582 LINE"
);
}
);
width = 843;
}
);
unicode = 0072;
},
{
glyphname = s;
layers = (
{
layerId = "DC66AB0F-19FD-4F06-8C39-5D32AA939720";
paths = (
{
closed = 1;
nodes = (
"453 531 OFFCURVE",
"549 449 OFFCURVE",
"616 358 OFFCURVE",
"651 264 OFFCURVE",
"651 219 QCURVE",
"651 162 OFFCURVE",
"586 71 OFFCURVE",
"481 8 OFFCURVE",
"346 -25 OFFCURVE",
"277 -25 QCURVE",
"225 -25 OFFCURVE",
"127 -2 OFFCURVE",
"46 46 OFFCURVE",
"-12 121 OFFCURVE",
"-24 173 QCURVE",
"-26 181 OFFCURVE",
"-26 186 QCURVE",
"-26 213 OFFCURVE",
"12 252 OFFCURVE",
"35 252 QCURVE",
"46 252 OFFCURVE",
"73 244 OFFCURVE",
"80 230 QCURVE",
"93 206 OFFCURVE",
"140 168 OFFCURVE",
"198 141 OFFCURVE",
"263 126 OFFCURVE",
"294 126 QCURVE",
"326 126 OFFCURVE",
"385 138 OFFCURVE",
"430 164 OFFCURVE",
"456 204 OFFCURVE",
"456 233 QCURVE",
"456 284 OFFCURVE",
"410 370 OFFCURVE",
"337 443 OFFCURVE",
"244 506 OFFCURVE",
"198 535 QCURVE",
"193 538 OFFCURVE",
"173 567 OFFCURVE",
"173 582 QCURVE",
"173 594 OFFCURVE",
"179 601 QCURVE",
"195 622 OFFCURVE",
"237 666 OFFCURVE",
"285 703 OFFCURVE",
"341 726 OFFCURVE",
"371 726 QCURVE",
"393 726 OFFCURVE",
"431 714 OFFCURVE",
"457 695 OFFCURVE",
"472 672 OFFCURVE",
"472 662 QCURVE",
"472 648 OFFCURVE",
"458 622 OFFCURVE",
"435 598 OFFCURVE",
"406 574 OFFCURVE",
"392 563 QCURVE"
);
}
);
width = 611;
}
);
unicode = 0073;
},
{
glyphname = germandbls;
layers = (
{
layerId = "DC66AB0F-19FD-4F06-8C39-5D32AA939720";
paths = (
{
closed = 1;
nodes = (
"896 700 OFFCURVE",
"954 615 OFFCURVE",
"954 560 QCURVE",
"954 510 OFFCURVE",
"911 397 OFFCURVE",
"837 288 OFFCURVE",
"739 191 OFFCURVE",
"685 156 QCURVE",
"725 168 OFFCURVE",
"788 188 OFFCURVE",
"850 212 OFFCURVE",
"915 241 OFFCURVE",
"997 282 OFFCURVE",
"1101 339 OFFCURVE",
"1171 378 QCURVE",
"1157 221 LINE",
"1011 142 OFFCURVE",
"765 47 OFFCURVE",
"563 -4 OFFCURVE",
"403 -20 OFFCURVE",
"343 -20 QCURVE",
"300 -20 OFFCURVE",
"246 21 OFFCURVE",
"246 60 QCURVE",
"246 84 OFFCURVE",
"267 122 OFFCURVE",
"302 149 OFFCURVE",
"345 164 OFFCURVE",
"367 164 QCURVE",
"420 164 OFFCURVE",
"517 201 OFFCURVE",
"602 263 OFFCURVE",
"672 342 OFFCURVE",
"722 426 OFFCURVE",
"749 509 OFFCURVE",
"749 543 QCURVE",
"749 585 OFFCURVE",
"718 616 OFFCURVE",
"695 616 QCURVE",
"684 616 OFFCURVE",
"661 609 OFFCURVE",
"639 601 OFFCURVE",
"618 594 OFFCURVE",
"609 594 QCURVE",
"588 594 OFFCURVE",
"560 630 OFFCURVE",
"560 653 QCURVE",
"560 678 OFFCURVE",
"582 705 OFFCURVE",
"617 724 OFFCURVE",
"661 742 OFFCURVE",
"682 758 QCURVE",
"765 820 OFFCURVE",
"892 945 OFFCURVE",
"978 1058 OFFCURVE",
"1022 1153 OFFCURVE",
"1022 1186 QCURVE",
"1022 1210 OFFCURVE",
"995 1237 OFFCURVE",
"967 1237 QCURVE",
"928 1237 OFFCURVE",
"838 1183 OFFCURVE",
"742 1083 OFFCURVE",
"645 942 OFFCURVE",
"600 856 QCURVE",
"140 -29 LINE",
"100 -107 OFFCURVE",
"43 -224 OFFCURVE",
"0 -308 OFFCURVE",
"-35 -364 OFFCURVE",
"-70 -397 OFFCURVE",
"-110 -410 OFFCURVE",
"-137 -410 QCURVE",
"-177 -410 OFFCURVE",
"-222 -366 OFFCURVE",
"-222 -302 OFFCURVE",
"-203 -240 OFFCURVE",
"-161 -156 OFFCURVE",
"-92 -40 OFFCURVE",
"-41 45 QCURVE",
"13 136 OFFCURVE",
"106 293 OFFCURVE",
"190 437 OFFCURVE",
"268 572 OFFCURVE",
"346 711 OFFCURVE",
"427 858 OFFCURVE",
"472 942 QCURVE",
"524 1039 OFFCURVE",
"643 1207 OFFCURVE",
"775 1331 OFFCURVE",
"920 1401 OFFCURVE",
"1000 1401 QCURVE",
"1061 1401 OFFCURVE",
"1147 1373 OFFCURVE",
"1201 1323 OFFCURVE",
"1226 1254 OFFCURVE",
"1226 1212 QCURVE",
"1226 1171 OFFCURVE",
"1194 1077 OFFCURVE",
"1138 981 OFFCURVE",
"1062 888 OFFCURVE",
"973 806 OFFCURVE",
"876 741 OFFCURVE",
"828 721 QCURVE"
);
}
);
width = 1044;
}
);
unicode = 00DF;
},
{
glyphname = t;
layers = (
{
layerId = "DC66AB0F-19FD-4F06-8C39-5D32AA939720";
paths = (
{
closed = 1;
nodes = (
"403 556 LINE",
"366 484 OFFCURVE",
"300 347 OFFCURVE",
"271 289 QCURVE",
"259 265 OFFCURVE",
"236 202 OFFCURVE",
"236 178 QCURVE",
"236 164 OFFCURVE",
"249 148 OFFCURVE",
"264 148 QCURVE",
"285 148 OFFCURVE",
"349 173 OFFCURVE",
"423 214 OFFCURVE",
"505 267 OFFCURVE",
"584 324 OFFCURVE",
"656 381 OFFCURVE",
"684 405 QCURVE",
"700 416 OFFCURVE",
"714 416 QCURVE",
"731 416 OFFCURVE",
"753 386 OFFCURVE",
"753 340 OFFCURVE",
"731 292 OFFCURVE",
"702 269 QCURVE",
"637 210 OFFCURVE",
"504 104 OFFCURVE",
"373 23 OFFCURVE",
"245 -25 OFFCURVE",
"185 -25 QCURVE",
"145 -25 OFFCURVE",
"91 -4 OFFCURVE",
"58 33 OFFCURVE",
"44 82 OFFCURVE",
"44 110 QCURVE",
"44 160 OFFCURVE",
"78 268 OFFCURVE",
"99 311 QCURVE",
"129 373 OFFCURVE",
"188 495 OFFCURVE",
"216 551 QCURVE",
"173 551 LINE",
"117 551 OFFCURVE",
"75 587 OFFCURVE",
"75 610 QCURVE",
"75 620 OFFCURVE",
"88 649 OFFCURVE",
"113 674 OFFCURVE",
"149 692 OFFCURVE",
"172 692 QCURVE",
"280 692 LINE",
"491 1111 LINE",
"511 1149 OFFCURVE",
"570 1182 OFFCURVE",
"602 1182 QCURVE",
"632 1182 OFFCURVE",
"682 1150 OFFCURVE",
"682 1113 QCURVE",
"682 1094 OFFCURVE",
"665 1055 OFFCURVE",
"651 1029 QCURVE",
"642 1012 OFFCURVE",
"616 965 OFFCURVE",
"587 912 OFFCURVE",
"556 854 OFFCURVE",
"541 827 QCURVE",
"507 763 OFFCURVE",
"469 692 QCURVE",
"795 692 LINE",
"819 692 OFFCURVE",
"859 687 OFFCURVE",
"888 672 OFFCURVE",
"904 646 OFFCURVE",
"904 624 QCURVE",
"904 613 OFFCURVE",
"897 591 OFFCURVE",
"878 573 OFFCURVE",
"845 561 OFFCURVE",
"819 559 QCURVE"
);
}
);
width = 528;
}
);
unicode = 0074;
},
{
glyphname = u;
layers = (
{
layerId = "DC66AB0F-19FD-4F06-8C39-5D32AA939720";
paths = (
{
closed = 1;
nodes = (
"1170 239 LINE",
"1126 189 OFFCURVE",
"1009 94 OFFCURVE",
"885 20 OFFCURVE",
"765 -25 OFFCURVE",
"669 -25 OFFCURVE",
"609 29 OFFCURVE",
"609 94 QCURVE",
"609 140 OFFCURVE",
"625 201 QCURVE",
"599 162 OFFCURVE",
"521 82 OFFCURVE",
"421 16 OFFCURVE",
"297 -25 OFFCURVE",
"224 -25 QCURVE",
"191 -25 OFFCURVE",
"130 -11 OFFCURVE",
"84 23 OFFCURVE",
"56 80 OFFCURVE",
"56 123 QCURVE",
"56 124 OFFCURVE",
"64 183 OFFCURVE",
"107 310 OFFCURVE",
"197 512 OFFCURVE",
"279 656 QCURVE",
"300 694 OFFCURVE",
"355 727 OFFCURVE",
"387 727 QCURVE",
"401 727 OFFCURVE",
"431 720 OFFCURVE",
"457 705 OFFCURVE",
"473 682 OFFCURVE",
"473 667 QCURVE",
"473 657 OFFCURVE",
"470 648 QCURVE",
"465 631 OFFCURVE",
"432 576 OFFCURVE",
"388 505 OFFCURVE",
"339 423 OFFCURVE",
"297 335 OFFCURVE",
"267 244 OFFCURVE",
"265 201 QCURVE",
"265 183 OFFCURVE",
"285 153 OFFCURVE",
"308 153 QCURVE",
"373 153 OFFCURVE",
"491 225 OFFCURVE",
"591 332 OFFCURVE",
"672 455 OFFCURVE",
"699 506 QCURVE",
"718 540 OFFCURVE",
"747 618 OFFCURVE",
"781 684 OFFCURVE",
"825 728 OFFCURVE",
"858 728 QCURVE",
"894 728 OFFCURVE",
"936 682 OFFCURVE",
"936 650 QCURVE",
"936 632 OFFCURVE",
"909 569 OFFCURVE",
"868 488 OFFCURVE",
"820 396 OFFCURVE",
"779 301 OFFCURVE",
"752 210 OFFCURVE",
"752 171 QCURVE",
"752 135 OFFCURVE",
"796 135 QCURVE",
"827 135 OFFCURVE",
"919 171 OFFCURVE",
"1020 236 OFFCURVE",
"1121 324 OFFCURVE",
"1160 375 QCURVE"
);
}
);
width = 928;
}
);
unicode = 0075;
},
{
glyphname = v;
layers = (
{
layerId = "DC66AB0F-19FD-4F06-8C39-5D32AA939720";
paths = (
{
closed = 1;
nodes = (
"895 167 OFFCURVE",
"745 102 OFFCURVE",
"654 102 QCURVE",
"624 102 OFFCURVE",
"568 124 OFFCURVE",
"523 152 QCURVE",
"457 65 OFFCURVE",
"324 -25 OFFCURVE",
"252 -25 QCURVE",
"217 -25 OFFCURVE",
"153 0 OFFCURVE",
"105 50 OFFCURVE",
"76 124 OFFCURVE",
"76 173 QCURVE",
"76 233 OFFCURVE",
"103 372 OFFCURVE",
"141 504 OFFCURVE",
"178 616 OFFCURVE",
"189 649 QCURVE",
"209 691 OFFCURVE",
"270 728 OFFCURVE",
"299 728 QCURVE",
"312 728 OFFCURVE",
"339 719 OFFCURVE",
"361 703 OFFCURVE",
"375 681 OFFCURVE",
"375 668 QCURVE",
"375 657 OFFCURVE",
"371 649 QCURVE",
"356 601 OFFCURVE",
"315 488 OFFCURVE",
"279 374 OFFCURVE",
"254 265 OFFCURVE",
"254 220 QCURVE",
"254 213 OFFCURVE",
"258 190 OFFCURVE",
"264 169 OFFCURVE",
"274 154 OFFCURVE",
"280 154 QCURVE",
"306 154 OFFCURVE",
"370 212 OFFCURVE",
"408 263 QCURVE",
"441 298 OFFCURVE",
"500 393 OFFCURVE",
"553 493 OFFCURVE",
"602 590 OFFCURVE",
"649 667 OFFCURVE",
"695 714 OFFCURVE",
"719 714 QCURVE",
"760 714 OFFCURVE",
"794 661 OFFCURVE",
"794 624 QCURVE",
"794 582 OFFCURVE",
"767 512 OFFCURVE",
"721 437 OFFCURVE",
"658 346 OFFCURVE",
"621 283 QCURVE",
"637 262 OFFCURVE",
"671 262 QCURVE",
"707 262 OFFCURVE",
"784 280 OFFCURVE",
"860 313 OFFCURVE",
"935 360 OFFCURVE",
"970 388 QCURVE",
"985 397 OFFCURVE",
"998 397 QCURVE",
"1016 397 OFFCURVE",
"1039 365 OFFCURVE",
"1039 340 QCURVE",
"1039 313 OFFCURVE",
"1007 250 OFFCURVE",
"970 224 QCURVE"
);
}
);
width = 800;
}
);
unicode = 0076;
},
{
glyphname = w;
layers = (
{
layerId = "DC66AB0F-19FD-4F06-8C39-5D32AA939720";
paths = (
{
closed = 1;
nodes = (
"183 558 OFFCURVE",
"223 643 OFFCURVE",
"256 690 OFFCURVE",
"289 706 OFFCURVE",
"314 706 QCURVE",
"352 706 OFFCURVE",
"407 657 OFFCURVE",
"407 619 QCURVE",
"407 610 OFFCURVE",
"402 592 OFFCURVE",
"398 583 QCURVE",
"228 181 LINE",
"224 173 OFFCURVE",
"221 154 OFFCURVE",
"221 148 QCURVE",
"221 135 OFFCURVE",
"232 122 OFFCURVE",
"238 122 QCURVE",
"249 122 OFFCURVE",
"272 132 OFFCURVE",
"303 157 OFFCURVE",
"348 200 OFFCURVE",
"381 233 QCURVE",
"412 266 OFFCURVE",
"478 359 OFFCURVE",
"541 462 OFFCURVE",
"595 567 OFFCURVE",
"615 612 QCURVE",
"630 642 OFFCURVE",
"654 679 OFFCURVE",
"677 699 OFFCURVE",
"701 706 OFFCURVE",
"717 706 QCURVE",
"778 706 OFFCURVE",
"778 653 QCURVE",
"776 645 OFFCURVE",
"775 625 OFFCURVE",
"770 612 QCURVE",
"614 151 LINE",
"614 126 OFFCURVE",
"639 126 QCURVE",
"657 128 OFFCURVE",
"716 161 OFFCURVE",
"776 212 OFFCURVE",
"828 279 OFFCURVE",
"840 315 QCURVE",
"862 381 OFFCURVE",
"907 515 OFFCURVE",
"958 624 OFFCURVE",
"1017 695 OFFCURVE",
"1053 698 QCURVE",
"1085 698 OFFCURVE",
"1126 657 OFFCURVE",
"1126 624 QCURVE",
"1126 585 OFFCURVE",
"1105 495 OFFCURVE",
"1071 405 OFFCURVE",
"1024 321 OFFCURVE",
"999 287 QCURVE",
"1006 266 OFFCURVE",
"1028 266 QCURVE",
"1067 266 OFFCURVE",
"1136 278 OFFCURVE",
"1201 301 OFFCURVE",
"1266 333 OFFCURVE",
"1301 354 QCURVE",
"1317 365 OFFCURVE",
"1333 365 QCURVE",
"1353 365 OFFCURVE",
"1385 335 OFFCURVE",
"1385 311 QCURVE",
"1385 289 OFFCURVE",
"1346 243 OFFCURVE",
"1282 199 OFFCURVE",
"1201 161 OFFCURVE",
"1118 132 OFFCURVE",
"1041 115 OFFCURVE",
"1012 115 QCURVE",
"956 115 OFFCURVE",
"897 147 QCURVE",
"827 63 OFFCURVE",
"676 -25 OFFCURVE",
"598 -25 QCURVE",
"526 -25 OFFCURVE",
"463 50 OFFCURVE",
"463 122 QCURVE",
"388 46 OFFCURVE",
"257 -25 OFFCURVE",
"188 -25 QCURVE",
"144 -25 OFFCURVE",
"85 -4 OFFCURVE",
"49 34 OFFCURVE",
"34 85 OFFCURVE",
"34 115 QCURVE",
"34 164 OFFCURVE",
"62 273 OFFCURVE",
"101 375 OFFCURVE",
"140 462 OFFCURVE",
"152 489 QCURVE"
);
}
);
width = 1139;
}
);
unicode = 0077;
},
{
glyphname = x;
layers = (
{
layerId = "DC66AB0F-19FD-4F06-8C39-5D32AA939720";
paths = (
{
closed = 1;
nodes = (
"350 716 OFFCURVE",
"386 708 OFFCURVE",
"410 681 OFFCURVE",
"422 636 OFFCURVE",
"422 600 QCURVE",
"422 485 LINE",
"644 671 LINE",
"695 713 OFFCURVE",
"746 713 QCURVE",
"776 713 OFFCURVE",
"816 685 OFFCURVE",
"816 662 QCURVE",
"816 648 OFFCURVE",
"797 616 OFFCURVE",
"778 600 QCURVE",
"446 320 LINE",
"458 184 LINE",
"458 135 OFFCURVE",
"493 135 QCURVE",
"531 135 OFFCURVE",
"645 192 OFFCURVE",
"720 246 QCURVE",
"835 330 LINE",
"853 341 OFFCURVE",
"872 341 QCURVE",
"893 341 OFFCURVE",
"920 312 OFFCURVE",
"920 289 QCURVE",
"920 264 OFFCURVE",
"883 198 OFFCURVE",
"835 165 QCURVE",
"760 112 OFFCURVE",
"647 40 OFFCURVE",
"554 -5 OFFCURVE",
"475 -25 OFFCURVE",
"435 -25 QCURVE",
"345 -25 OFFCURVE",
"256 77 OFFCURVE",
"256 191 QCURVE",
"38 3 LINE",
"19 -12 OFFCURVE",
"-20 -25 OFFCURVE",
"-37 -25 QCURVE",
"-69 -25 OFFCURVE",
"-113 9 OFFCURVE",
"-113 34 QCURVE",
"-113 62 OFFCURVE",
"-77 89 QCURVE",
"231 357 LINE",
"231 600 LINE",
"231 645 OFFCURVE",
"259 693 OFFCURVE",
"293 714 OFFCURVE",
"323 716 OFFCURVE",
"325 716 QCURVE"
);
}
);
width = 723;
}
);
unicode = 0078;
},
{
glyphname = y;
layers = (
{
layerId = "DC66AB0F-19FD-4F06-8C39-5D32AA939720";
paths = (
{
closed = 1;
nodes = (
"709 634 LINE",
"737 656 OFFCURVE",
"776 679 OFFCURVE",
"804 690 OFFCURVE",
"827 692 OFFCURVE",
"839 692 QCURVE",
"860 692 OFFCURVE",
"878 661 OFFCURVE",
"878 644 QCURVE",
"878 630 OFFCURVE",
"873 618 QCURVE",
"649 151 LINE",
"697 187 OFFCURVE",
"822 256 OFFCURVE",
"937 311 OFFCURVE",
"1020 345 OFFCURVE",
"1026 345 QCURVE",
"1051 345 OFFCURVE",
"1089 307 OFFCURVE",
"1089 278 QCURVE",
"1089 252 OFFCURVE",
"1050 194 OFFCURVE",
"1001 167 QCURVE",
"931 128 OFFCURVE",
"827 73 OFFCURVE",
"747 29 OFFCURVE",
"685 -7 OFFCURVE",
"630 -45 OFFCURVE",
"577 -88 OFFCURVE",
"546 -117 QCURVE",
"523 -177 OFFCURVE",
"478 -287 OFFCURVE",
"441 -371 OFFCURVE",
"417 -423 OFFCURVE",
"416 -425 QCURVE",
"335 -593 OFFCURVE",
"238 -593 QCURVE",
"198 -593 OFFCURVE",
"148 -540 OFFCURVE",
"148 -495 QCURVE",
"148 -453 OFFCURVE",
"169 -370 OFFCURVE",
"222 -270 OFFCURVE",
"309 -147 OFFCURVE",
"375 -64 QCURVE",
"575 341 LINE",
"425 163 OFFCURVE",
"181 -25 OFFCURVE",
"75 -25 QCURVE",
"41 -25 OFFCURVE",
"-7 6 OFFCURVE",
"-7 42 QCURVE",
"-7 92 OFFCURVE",
"17 155 QCURVE",
"31 189 OFFCURVE",
"59 246 OFFCURVE",
"89 303 OFFCURVE",
"122 369 OFFCURVE",
"161 452 OFFCURVE",
"208 561 OFFCURVE",
"237 634 QCURVE",
"257 673 OFFCURVE",
"321 708 OFFCURVE",
"351 708 QCURVE",
"382 708 OFFCURVE",
"425 679 OFFCURVE",
"425 655 QCURVE",
"425 643 OFFCURVE",
"421 634 QCURVE",
"238 253 LINE",
"224 224 OFFCURVE",
"224 207 QCURVE",
"224 192 OFFCURVE",
"236 192 QCURVE",
"247 192 OFFCURVE",
"281 214 OFFCURVE",
"296 228 QCURVE"
);
}
);
width = 896;
}
);
unicode = 0079;
},
{
glyphname = z;
layers = (
{
layerId = "DC66AB0F-19FD-4F06-8C39-5D32AA939720";
paths = (
{
closed = 1;
nodes = (
"432 -76 OFFCURVE",
"432 -61 OFFCURVE",
"431 -53 QCURVE",
"361 -89 OFFCURVE",
"252 -153 OFFCURVE",
"177 -207 OFFCURVE",
"138 -250 OFFCURVE",
"138 -263 QCURVE",
"138 -289 OFFCURVE",
"177 -324 OFFCURVE",
"212 -324 QCURVE",
"239 -324 OFFCURVE",
"313 -279 OFFCURVE",
"381 -209 OFFCURVE",
"430 -124 OFFCURVE",
"432 -84 QCURVE"
);
},
{
closed = 1;
nodes = (
"1046 483 OFFCURVE",
"1063 486 OFFCURVE",
"1071 487 QCURVE",
"1094 487 OFFCURVE",
"1130 451 OFFCURVE",
"1130 430 QCURVE",
"1130 421 OFFCURVE",
"1123 407 OFFCURVE",
"1116 399 QCURVE",
"1084 363 OFFCURVE",
"995 289 OFFCURVE",
"874 205 OFFCURVE",
"716 107 OFFCURVE",
"614 47 QCURVE",
"614 41 OFFCURVE",
"615 28 OFFCURVE",
"615 21 QCURVE",
"615 -30 OFFCURVE",
"576 -138 OFFCURVE",
"509 -242 OFFCURVE",
"420 -335 OFFCURVE",
"321 -405 OFFCURVE",
"217 -446 OFFCURVE",
"121 -446 OFFCURVE",
"42 -423 OFFCURVE",
"-14 -380 OFFCURVE",
"-44 -321 OFFCURVE",
"-44 -285 QCURVE",
"-44 -252 OFFCURVE",
"4 -176 OFFCURVE",
"108 -89 OFFCURVE",
"272 12 OFFCURVE",
"387 71 QCURVE",
"370 78 OFFCURVE",
"333 80 OFFCURVE",
"316 80 QCURVE",
"293 80 OFFCURVE",
"233 78 OFFCURVE",
"202 78 QCURVE",
"178 78 OFFCURVE",
"134 80 OFFCURVE",
"99 86 OFFCURVE",
"79 99 OFFCURVE",
"79 110 QCURVE",
"79 131 OFFCURVE",
"101 176 OFFCURVE",
"160 239 OFFCURVE",
"261 328 OFFCURVE",
"340 392 QCURVE",
"553 549 LINE",
"546 549 OFFCURVE",
"342 543 OFFCURVE",
"159 543 QCURVE",
"133 543 OFFCURVE",
"109 571 OFFCURVE",
"109 584 QCURVE",
"110 599 OFFCURVE",
"121 635 OFFCURVE",
"141 666 OFFCURVE",
"170 688 OFFCURVE",
"189 688 QCURVE",
"209 688 OFFCURVE",
"299 689 OFFCURVE",
"413 689 OFFCURVE",
"537 691 OFFCURVE",
"645 691 OFFCURVE",
"723 692 OFFCURVE",
"735 692 QCURVE",
"753 692 OFFCURVE",
"775 680 OFFCURVE",
"787 662 OFFCURVE",
"791 641 OFFCURVE",
"791 632 QCURVE",
"791 614 OFFCURVE",
"776 578 OFFCURVE",
"743 538 OFFCURVE",
"689 493 OFFCURVE",
"651 465 QCURVE",
"644 460 OFFCURVE",
"609 434 OFFCURVE",
"561 399 OFFCURVE",
"504 357 OFFCURVE",
"476 336 QCURVE",
"409 287 OFFCURVE",
"329 228 QCURVE",
"350 228 LINE",
"414 228 OFFCURVE",
"526 192 OFFCURVE",
"564 161 QCURVE",
"649 208 OFFCURVE",
"790 292 OFFCURVE",
"905 369 OFFCURVE",
"999 441 OFFCURVE",
"1038 476 QCURVE"
);
}
);
width = 847;
}
);
unicode = 007A;
},
{
glyphname = fi;
layers = (
{
layerId = "DC66AB0F-19FD-4F06-8C39-5D32AA939720";
paths = (
{
closed = 1;
nodes = (
"1098 918 OFFCURVE",
"1081 854 OFFCURVE",
"1045 808 OFFCURVE",
"990 781 OFFCURVE",
"952 781 QCURVE",
"902 781 OFFCURVE",
"838 794 OFFCURVE",
"801 818 OFFCURVE",
"786 851 OFFCURVE",
"786 870 QCURVE",
"786 898 OFFCURVE",
"808 935 OFFCURVE",
"833 962 OFFCURVE",
"855 982 OFFCURVE",
"855 992 QCURVE",
"855 1000 OFFCURVE",
"841 1015 OFFCURVE",
"826 1015 QCURVE",
"793 1015 OFFCURVE",
"703 961 OFFCURVE",
"611 872 OFFCURVE",
"527 755 OFFCURVE",
"501 692 QCURVE",
"811 692 LINE",
"849 692 OFFCURVE",
"904 643 OFFCURVE",
"904 605 QCURVE",
"903 596 OFFCURVE",
"900 578 OFFCURVE",
"895 569 QCURVE",
"881 543 OFFCURVE",
"863 507 OFFCURVE",
"848 476 OFFCURVE",
"834 446 OFFCURVE",
"824 425 QCURVE",
"812 400 OFFCURVE",
"782 341 OFFCURVE",
"755 279 OFFCURVE",
"736 219 OFFCURVE",
"736 194 QCURVE",
"736 167 OFFCURVE",
"763 150 OFFCURVE",
"788 150 QCURVE",
"816 150 OFFCURVE",
"877 174 OFFCURVE",
"939 212 OFFCURVE",
"999 261 OFFCURVE",
"1052 311 OFFCURVE",
"1097 357 OFFCURVE",
"1112 375 QCURVE",
"1132 394 OFFCURVE",
"1152 394 QCURVE",
"1170 394 OFFCURVE",
"1193 362 OFFCURVE",
"1193 337 QCURVE",
"1193 314 OFFCURVE",
"1170 262 OFFCURVE",
"1144 239 QCURVE",
"1093 187 OFFCURVE",
"987 92 OFFCURVE",
"876 19 OFFCURVE",
"764 -25 OFFCURVE",
"707 -25 QCURVE",
"626 -25 OFFCURVE",
"533 58 OFFCURVE",
"533 146 QCURVE",
"533 177 OFFCURVE",
"546 245 OFFCURVE",
"568 316 OFFCURVE",
"596 385 OFFCURVE",
"611 417 QCURVE",
"645 491 OFFCURVE",
"690 565 QCURVE",
"641 564 OFFCURVE",
"593 564 QCURVE",
"552 563 OFFCURVE",
"464 563 OFFCURVE",
"432 563 QCURVE",
"406 512 OFFCURVE",
"341 377 OFFCURVE",
"270 229 OFFCURVE",
"199 78 OFFCURVE",
"135 -57 OFFCURVE",
"83 -166 OFFCURVE",
"67 -198 QCURVE",
"56 -221 OFFCURVE",
"24 -260 OFFCURVE",
"-14 -288 OFFCURVE",
"-54 -303 OFFCURVE",
"-71 -303 QCURVE",
"-95 -303 OFFCURVE",
"-133 -279 OFFCURVE",
"-133 -253 QCURVE",
"-133 -240 OFFCURVE",
"-121 -205 OFFCURVE",
"-110 -182 QCURVE",
"243 566 LINE",
"190 566 LINE",
"135 566 OFFCURVE",
"95 600 OFFCURVE",
"95 623 QCURVE",
"95 647 OFFCURVE",
"145 692 OFFCURVE",
"193 692 QCURVE",
"311 692 LINE",
"384 835 OFFCURVE",
"532 1021 OFFCURVE",
"676 1129 OFFCURVE",
"812 1171 OFFCURVE",
"874 1171 QCURVE",
"928 1171 OFFCURVE",
"1011 1131 OFFCURVE",
"1068 1068 OFFCURVE",
"1098 991 OFFCURVE",
"1098 954 QCURVE"
);
}
);
width = 986;
}
);
unicode = FB01;
},
{
glyphname = fl;
layers = (
{
layerId = "DC66AB0F-19FD-4F06-8C39-5D32AA939720";
paths = (
{
closed = 1;
nodes = (
"783 692 LINE",
"930 1006 LINE",
"865 1038 OFFCURVE",
"810 1038 QCURVE",
"756 1038 OFFCURVE",
"672 980 OFFCURVE",
"600 884 OFFCURVE",
"535 759 OFFCURVE",
"501 692 QCURVE",
"734 692 LINE"
);
},
{
closed = 1;
nodes = (
"768 266 OFFCURVE",
"747 205 OFFCURVE",
"747 181 QCURVE",
"747 166 OFFCURVE",
"759 148 OFFCURVE",
"776 148 QCURVE",
"797 148 OFFCURVE",
"860 173 OFFCURVE",
"933 214 OFFCURVE",
"1012 267 OFFCURVE",
"1090 324 OFFCURVE",
"1161 381 OFFCURVE",
"1189 405 QCURVE",
"1197 412 OFFCURVE",
"1219 418 OFFCURVE",
"1227 418 QCURVE",
"1247 418 OFFCURVE",
"1273 390 OFFCURVE",
"1273 367 QCURVE",
"1273 346 OFFCURVE",
"1245 294 OFFCURVE",
"1210 269 QCURVE",
"1146 210 OFFCURVE",
"1016 104 OFFCURVE",
"887 23 OFFCURVE",
"760 -25 OFFCURVE",
"700 -25 QCURVE",
"659 -25 OFFCURVE",
"604 -3 OFFCURVE",
"571 35 OFFCURVE",
"557 87 OFFCURVE",
"557 116 QCURVE",
"557 165 OFFCURVE",
"586 268 OFFCURVE",
"606 311 QCURVE",
"635 377 OFFCURVE",
"696 507 OFFCURVE",
"723 565 QCURVE",
"645 563 OFFCURVE",
"505 563 OFFCURVE",
"432 563 QCURVE",
"406 512 OFFCURVE",
"341 377 OFFCURVE",
"270 229 OFFCURVE",
"199 78 OFFCURVE",
"135 -57 OFFCURVE",
"83 -166 OFFCURVE",
"67 -198 QCURVE",
"56 -221 OFFCURVE",
"24 -260 OFFCURVE",
"-14 -288 OFFCURVE",
"-54 -303 OFFCURVE",
"-71 -303 QCURVE",
"-95 -303 OFFCURVE",
"-133 -279 OFFCURVE",
"-133 -253 QCURVE",
"-133 -240 OFFCURVE",
"-121 -205 OFFCURVE",
"-110 -182 QCURVE",
"243 566 LINE",
"190 566 LINE",
"135 566 OFFCURVE",
"95 600 OFFCURVE",
"95 623 QCURVE",
"95 647 OFFCURVE",
"145 692 OFFCURVE",
"193 692 QCURVE",
"311 692 LINE",
"382 828 OFFCURVE",
"514 1014 OFFCURVE",
"640 1130 OFFCURVE",
"759 1181 OFFCURVE",
"817 1181 QCURVE",
"862 1181 OFFCURVE",
"947 1155 OFFCURVE",
"990 1132 QCURVE",
"1046 1252 LINE",
"1064 1291 OFFCURVE",
"1125 1323 OFFCURVE",
"1187 1323 OFFCURVE",
"1238 1289 OFFCURVE",
"1238 1251 QCURVE",
"1238 1232 OFFCURVE",
"1221 1193 OFFCURVE",
"1208 1170 QCURVE",
"1183 1123 OFFCURVE",
"1114 987 OFFCURVE",
"1035 827 OFFCURVE",
"952 654 OFFCURVE",
"873 490 OFFCURVE",
"804 343 OFFCURVE",
"779 289 QCURVE"
);
}
);
width = 1034;
}
);
unicode = FB02;
},
{
glyphname = ordfeminine;
layers = (
{
layerId = "DC66AB0F-19FD-4F06-8C39-5D32AA939720";
paths = (
{
closed = 1;
nodes = (
"506 1172 OFFCURVE",
"431 1131 OFFCURVE",
"374 1065 OFFCURVE",
"340 983 OFFCURVE",
"340 941 QCURVE",
"340 924 OFFCURVE",
"344 888 OFFCURVE",
"359 857 OFFCURVE",
"387 837 OFFCURVE",
"411 837 QCURVE",
"430 837 OFFCURVE",
"480 870 OFFCURVE",
"533 921 OFFCURVE",
"585 984 OFFCURVE",
"626 1043 OFFCURVE",
"651 1091 OFFCURVE",
"651 1102 QCURVE",
"651 1118 OFFCURVE",
"629 1144 OFFCURVE",
"597 1162 OFFCURVE",
"560 1172 OFFCURVE",
"546 1172 QCURVE"
);
},
{
closed = 1;
nodes = (
"954 793 OFFCURVE",
"891 748 OFFCURVE",
"820 710 OFFCURVE",
"748 686 OFFCURVE",
"717 686 QCURVE",
"678 686 OFFCURVE",
"627 734 OFFCURVE",
"627 793 QCURVE",
"627 814 OFFCURVE",
"633 877 OFFCURVE",
"641 900 QCURVE",
"615 864 OFFCURVE",
"548 788 OFFCURVE",
"471 727 OFFCURVE",
"386 687 OFFCURVE",
"343 687 QCURVE",
"321 687 OFFCURVE",
"263 705 OFFCURVE",
"210 746 OFFCURVE",
"174 810 OFFCURVE",
"174 857 QCURVE",
"174 892 OFFCURVE",
"195 989 OFFCURVE",
"239 1093 OFFCURVE",
"306 1195 OFFCURVE",
"397 1276 OFFCURVE",
"515 1326 OFFCURVE",
"587 1326 QCURVE",
"624 1326 OFFCURVE",
"680 1307 OFFCURVE",
"700 1296 QCURVE",
"723 1283 OFFCURVE",
"739 1266 QCURVE",
"754 1274 OFFCURVE",
"769 1281 QCURVE",
"782 1286 OFFCURVE",
"809 1296 OFFCURVE",
"820 1296 QCURVE",
"852 1296 OFFCURVE",
"893 1260 OFFCURVE",
"893 1239 QCURVE",
"893 1233 OFFCURVE",
"892 1230 QCURVE",
"884 1206 OFFCURVE",
"852 1119 OFFCURVE",
"817 1022 OFFCURVE",
"784 929 OFFCURVE",
"774 901 QCURVE",
"765 872 OFFCURVE",
"765 854 QCURVE",
"765 822 OFFCURVE",
"792 822 QCURVE",
"812 822 OFFCURVE",
"878 858 OFFCURVE",
"926 896 QCURVE",
"933 902 OFFCURVE",
"947 907 OFFCURVE",
"952 907 QCURVE",
"969 907 OFFCURVE",
"992 874 OFFCURVE",
"992 854 QCURVE",
"992 830 OFFCURVE",
"976 814 QCURVE"
);
}
);
width = 870;
}
);
unicode = 00AA;
},
{
glyphname = ordmasculine;
layers = (
{
layerId = "DC66AB0F-19FD-4F06-8C39-5D32AA939720";
paths = (
{
closed = 1;
nodes = (
"550 1174 OFFCURVE",
"476 1134 OFFCURVE",
"420 1070 OFFCURVE",
"386 988 OFFCURVE",
"386 945 QCURVE",
"386 929 OFFCURVE",
"391 891 OFFCURVE",
"407 858 OFFCURVE",
"437 836 OFFCURVE",
"463 836 QCURVE",
"502 836 OFFCURVE",
"576 877 OFFCURVE",
"632 944 OFFCURVE",
"666 1028 OFFCURVE",
"666 1071 QCURVE",
"666 1088 OFFCURVE",
"662 1125 OFFCURVE",
"646 1155 OFFCURVE",
"615 1174 OFFCURVE",
"589 1174 QCURVE"
);
},
{
closed = 1;
nodes = (
"843 1057 OFFCURVE",
"773 889 OFFCURVE",
"651 763 OFFCURVE",
"485 688 OFFCURVE",
"389 688 QCURVE",
"366 688 OFFCURVE",
"303 707 OFFCURVE",
"247 750 OFFCURVE",
"208 819 OFFCURVE",
"208 869 QCURVE",
"208 903 OFFCURVE",
"230 997 OFFCURVE",
"274 1098 OFFCURVE",
"343 1197 OFFCURVE",
"438 1275 OFFCURVE",
"558 1323 OFFCURVE",
"633 1323 QCURVE",
"665 1323 OFFCURVE",
"739 1306 OFFCURVE",
"802 1266 OFFCURVE",
"843 1199 OFFCURVE",
"843 1150 QCURVE"
);
}
);
width = 848;
}
);
unicode = 00BA;
},
{
glyphname = zero;
layers = (
{
layerId = "DC66AB0F-19FD-4F06-8C39-5D32AA939720";
paths = (
{
closed = 1;
nodes = (
"769 672 OFFCURVE",
"717 734 OFFCURVE",
"676 734 QCURVE",
"611 734 OFFCURVE",
"490 661 OFFCURVE",
"396 540 OFFCURVE",
"339 384 OFFCURVE",
"339 302 QCURVE",
"339 270 OFFCURVE",
"349 208 OFFCURVE",
"374 158 OFFCURVE",
"417 128 OFFCURVE",
"451 128 QCURVE",
"503 128 OFFCURVE",
"591 175 OFFCURVE",
"662 253 OFFCURVE",
"715 353 OFFCURVE",
"751 458 OFFCURVE",
"769 560 OFFCURVE",
"769 601 QCURVE"
);
},
{
closed = 1;
nodes = (
"957 536 OFFCURVE",
"922 394 OFFCURVE",
"856 254 OFFCURVE",
"762 128 OFFCURVE",
"643 32 OFFCURVE",
"502 -25 OFFCURVE",
"423 -25 QCURVE",
"361 -25 OFFCURVE",
"262 21 OFFCURVE",
"192 104 OFFCURVE",
"154 222 OFFCURVE",
"154 294 QCURVE",
"154 357 OFFCURVE",
"190 497 OFFCURVE",
"257 632 OFFCURVE",
"352 756 OFFCURVE",
"470 849 OFFCURVE",
"609 905 OFFCURVE",
"686 905 QCURVE",
"746 905 OFFCURVE",
"846 860 OFFCURVE",
"918 780 OFFCURVE",
"957 668 OFFCURVE",
"957 601 QCURVE"
);
}
);
width = 896;
}
);
unicode = 0030;
},
{
glyphname = one;
layers = (
{
layerId = "DC66AB0F-19FD-4F06-8C39-5D32AA939720";
paths = (
{
closed = 1;
nodes = (
"286 142 OFFCURVE",
"332 225 OFFCURVE",
"373 303 OFFCURVE",
"412 378 OFFCURVE",
"433 416 QCURVE",
"570 665 LINE",
"557 660 OFFCURVE",
"496 636 OFFCURVE",
"427 609 OFFCURVE",
"366 585 OFFCURVE",
"354 581 QCURVE",
"351 579 OFFCURVE",
"342 578 OFFCURVE",
"340 578 QCURVE",
"324 578 OFFCURVE",
"299 605 OFFCURVE",
"299 627 QCURVE",
"299 646 OFFCURVE",
"323 692 OFFCURVE",
"354 717 QCURVE",
"421 762 OFFCURVE",
"488 798 QCURVE",
"516 813 OFFCURVE",
"578 842 OFFCURVE",
"639 865 OFFCURVE",
"698 879 OFFCURVE",
"723 879 QCURVE",
"752 879 OFFCURVE",
"795 848 OFFCURVE",
"795 810 QCURVE",
"795 798 OFFCURVE",
"791 767 OFFCURVE",
"783 750 QCURVE",
"768 719 OFFCURVE",
"725 622 OFFCURVE",
"675 507 OFFCURVE",
"620 379 OFFCURVE",
"565 255 OFFCURVE",
"513 142 OFFCURVE",
"492 99 QCURVE",
"477 69 OFFCURVE",
"436 23 OFFCURVE",
"391 -8 OFFCURVE",
"343 -24 OFFCURVE",
"322 -24 QCURVE",
"290 -24 OFFCURVE",
"245 9 OFFCURVE",
"245 42 QCURVE",
"245 53 OFFCURVE",
"249 83 OFFCURVE",
"258 97 QCURVE"
);
}
);
width = 736;
}
);
unicode = 0031;
},
{
glyphname = two;
layers = (
{
layerId = "DC66AB0F-19FD-4F06-8C39-5D32AA939720";
paths = (
{
closed = 1;
nodes = (
"863 168 OFFCURVE",
"869 169 OFFCURVE",
"872 169 QCURVE",
"893 169 OFFCURVE",
"921 137 OFFCURVE",
"921 114 QCURVE",
"921 81 OFFCURVE",
"874 29 OFFCURVE",
"802 -6 OFFCURVE",
"716 -24 OFFCURVE",
"677 -24 QCURVE",
"645 -24 OFFCURVE",
"583 -17 OFFCURVE",
"509 5 OFFCURVE",
"417 47 OFFCURVE",
"354 82 QCURVE",
"295 45 OFFCURVE",
"228 3 OFFCURVE",
"192 -17 OFFCURVE",
"178 -21 OFFCURVE",
"173 -21 QCURVE",
"161 -21 OFFCURVE",
"136 -6 OFFCURVE",
"114 18 OFFCURVE",
"100 49 OFFCURVE",
"100 66 QCURVE",
"100 80 OFFCURVE",
"113 108 OFFCURVE",
"129 119 QCURVE",
"195 155 OFFCURVE",
"331 236 OFFCURVE",
"457 325 OFFCURVE",
"567 419 OFFCURVE",
"649 514 OFFCURVE",
"696 609 OFFCURVE",
"696 655 QCURVE",
"696 700 OFFCURVE",
"652 737 OFFCURVE",
"616 737 QCURVE",
"587 737 OFFCURVE",
"520 717 OFFCURVE",
"452 686 OFFCURVE",
"385 651 OFFCURVE",
"328 620 OFFCURVE",
"284 600 OFFCURVE",
"272 600 QCURVE",
"256 600 OFFCURVE",
"228 614 OFFCURVE",
"208 637 OFFCURVE",
"197 665 OFFCURVE",
"197 680 QCURVE",
"197 705 OFFCURVE",
"243 758 OFFCURVE",
"319 808 OFFCURVE",
"417 852 OFFCURVE",
"520 886 OFFCURVE",
"621 905 OFFCURVE",
"663 905 QCURVE",
"712 905 OFFCURVE",
"799 880 OFFCURVE",
"863 825 OFFCURVE",
"900 735 OFFCURVE",
"900 670 QCURVE",
"900 615 OFFCURVE",
"865 505 OFFCURVE",
"773 388 OFFCURVE",
"616 264 OFFCURVE",
"494 195 QCURVE",
"537 176 OFFCURVE",
"635 150 OFFCURVE",
"674 150 QCURVE",
"703 150 OFFCURVE",
"749 152 OFFCURVE",
"791 157 OFFCURVE",
"833 163 OFFCURVE",
"859 167 QCURVE"
);
}
);
width = 896;
}
);
unicode = 0032;
},
{
glyphname = three;
layers = (
{
layerId = "DC66AB0F-19FD-4F06-8C39-5D32AA939720";
paths = (
{
closed = 1;
nodes = (
"552 262 OFFCURVE",
"543 307 OFFCURVE",
"513 340 OFFCURVE",
"457 360 OFFCURVE",
"410 360 QCURVE",
"394 360 OFFCURVE",
"359 355 OFFCURVE",
"339 355 QCURVE",
"311 355 OFFCURVE",
"285 389 OFFCURVE",
"285 409 QCURVE",
"285 435 OFFCURVE",
"336 476 OFFCURVE",
"384 484 QCURVE",
"453 495 OFFCURVE",
"553 545 OFFCURVE",
"618 602 OFFCURVE",
"649 655 OFFCURVE",
"649 670 QCURVE",
"649 699 OFFCURVE",
"608 736 OFFCURVE",
"579 736 QCURVE",
"529 736 OFFCURVE",
"451 720 OFFCURVE",
"385 702 OFFCURVE",
"329 686 OFFCURVE",
"302 686 QCURVE",
"273 686 OFFCURVE",
"229 723 OFFCURVE",
"229 750 QCURVE",
"229 772 OFFCURVE",
"248 797 QCURVE",
"276 818 OFFCURVE",
"355 856 OFFCURVE",
"445 885 OFFCURVE",
"542 903 OFFCURVE",
"636 903 OFFCURVE",
"720 882 OFFCURVE",
"783 834 OFFCURVE",
"820 757 OFFCURVE",
"820 700 QCURVE",
"820 622 OFFCURVE",
"690 483 OFFCURVE",
"568 441 QCURVE",
"619 429 OFFCURVE",
"685 387 OFFCURVE",
"724 336 OFFCURVE",
"739 279 OFFCURVE",
"739 253 QCURVE",
"739 174 OFFCURVE",
"691 45 OFFCURVE",
"609 -58 OFFCURVE",
"498 -138 OFFCURVE",
"370 -198 OFFCURVE",
"232 -240 OFFCURVE",
"165 -254 QCURVE",
"149 -257 OFFCURVE",
"125 -261 OFFCURVE",
"114 -261 QCURVE",
"76 -261 OFFCURVE",
"39 -229 OFFCURVE",
"39 -207 QCURVE",
"39 -184 OFFCURVE",
"79 -137 OFFCURVE",
"118 -126 QCURVE",
"160 -117 OFFCURVE",
"257 -84 OFFCURVE",
"353 -35 OFFCURVE",
"441 27 OFFCURVE",
"509 102 OFFCURVE",
"551 189 OFFCURVE",
"552 238 QCURVE"
);
}
);
width = 800;
}
);
unicode = 0033;
},
{
glyphname = four;
layers = (
{
layerId = "DC66AB0F-19FD-4F06-8C39-5D32AA939720";
paths = (
{
closed = 1;
nodes = (
"962 677 OFFCURVE",
"916 580 OFFCURVE",
"871 484 OFFCURVE",
"828 392 OFFCURVE",
"809 351 QCURVE",
"763 254 OFFCURVE",
"720 163 QCURVE",
"899 163 LINE",
"919 163 OFFCURVE",
"941 132 OFFCURVE",
"941 111 QCURVE",
"941 92 OFFCURVE",
"928 53 OFFCURVE",
"902 21 OFFCURVE",
"861 0 OFFCURVE",
"834 0 QCURVE",
"651 0 LINE",
"497 -341 LINE",
"479 -376 OFFCURVE",
"428 -406 OFFCURVE",
"402 -406 QCURVE",
"369 -406 OFFCURVE",
"322 -366 OFFCURVE",
"322 -335 QCURVE",
"322 -328 OFFCURVE",
"326 -314 OFFCURVE",
"329 -306 QCURVE",
"461 0 LINE",
"194 0 LINE",
"179 0 OFFCURVE",
"153 3 OFFCURVE",
"132 13 OFFCURVE",
"120 30 OFFCURVE",
"120 45 QCURVE",
"120 62 OFFCURVE",
"135 108 OFFCURVE",
"154 143 QCURVE",
"175 182 OFFCURVE",
"230 291 OFFCURVE",
"290 414 OFFCURVE",
"351 544 OFFCURVE",
"407 665 OFFCURVE",
"451 770 OFFCURVE",
"465 806 QCURVE",
"480 848 OFFCURVE",
"542 883 OFFCURVE",
"574 883 QCURVE",
"608 883 OFFCURVE",
"661 850 OFFCURVE",
"662 825 QCURVE",
"661 820 OFFCURVE",
"660 811 OFFCURVE",
"658 806 QCURVE",
"624 723 OFFCURVE",
"548 554 OFFCURVE",
"471 390 OFFCURVE",
"395 236 OFFCURVE",
"362 167 QCURVE",
"388 168 OFFCURVE",
"431 168 OFFCURVE",
"448 168 QCURVE",
"496 168 OFFCURVE",
"524 168 QCURVE",
"552 167 LINE",
"564 196 LINE",
"576 224 OFFCURVE",
"621 319 OFFCURVE",
"678 443 OFFCURVE",
"741 576 OFFCURVE",
"804 710 OFFCURVE",
"832 768 QCURVE",
"858 828 OFFCURVE",
"923 883 OFFCURVE",
"949 883 QCURVE",
"972 883 OFFCURVE",
"1004 845 OFFCURVE",
"1004 810 QCURVE",
"1004 791 OFFCURVE",
"994 747 OFFCURVE",
"983 723 QCURVE"
);
}
);
width = 976;
}
);
unicode = 0034;
},
{
glyphname = five;
layers = (
{
layerId = "DC66AB0F-19FD-4F06-8C39-5D32AA939720";
paths = (
{
closed = 1;
nodes = (
"846 190 OFFCURVE",
"798 59 OFFCURVE",
"716 -48 OFFCURVE",
"605 -132 OFFCURVE",
"477 -196 OFFCURVE",
"339 -240 OFFCURVE",
"272 -254 QCURVE",
"256 -257 OFFCURVE",
"232 -261 OFFCURVE",
"221 -261 QCURVE",
"183 -261 OFFCURVE",
"146 -229 OFFCURVE",
"146 -207 QCURVE",
"146 -184 OFFCURVE",
"186 -137 OFFCURVE",
"225 -126 QCURVE",
"266 -117 OFFCURVE",
"361 -82 OFFCURVE",
"454 -33 OFFCURVE",
"541 32 OFFCURVE",
"607 109 OFFCURVE",
"648 198 OFFCURVE",
"649 248 QCURVE",
"649 279 OFFCURVE",
"626 324 OFFCURVE",
"586 352 OFFCURVE",
"532 366 OFFCURVE",
"500 366 QCURVE",
"465 366 OFFCURVE",
"389 351 OFFCURVE",
"351 338 QCURVE",
"333 332 OFFCURVE",
"306 315 OFFCURVE",
"283 300 OFFCURVE",
"264 290 OFFCURVE",
"254 290 QCURVE",
"222 290 OFFCURVE",
"185 336 OFFCURVE",
"185 368 QCURVE",
"185 391 OFFCURVE",
"195 412 QCURVE",
"364 789 LINE",
"375 813 OFFCURVE",
"397 848 OFFCURVE",
"426 869 OFFCURVE",
"462 879 OFFCURVE",
"486 879 QCURVE",
"957 879 LINE",
"985 879 OFFCURVE",
"1016 834 OFFCURVE",
"1016 805 QCURVE",
"1016 787 OFFCURVE",
"1003 751 OFFCURVE",
"976 721 OFFCURVE",
"933 703 OFFCURVE",
"904 703 QCURVE",
"519 703 LINE",
"494 653 OFFCURVE",
"470 607 QCURVE",
"450 568 OFFCURVE",
"408 485 OFFCURVE",
"394 458 QCURVE",
"448 492 OFFCURVE",
"552 523 OFFCURVE",
"599 523 QCURVE",
"653 523 OFFCURVE",
"744 486 OFFCURVE",
"809 418 OFFCURVE",
"846 325 OFFCURVE",
"846 269 QCURVE"
);
}
);
width = 884;
}
);
unicode = 0035;
},
{
glyphname = six;
layers = (
{
layerId = "DC66AB0F-19FD-4F06-8C39-5D32AA939720";
paths = (
{
closed = 1;
nodes = (
"356 222 OFFCURVE",
"432 148 OFFCURVE",
"495 148 QCURVE",
"548 148 OFFCURVE",
"652 212 OFFCURVE",
"735 310 OFFCURVE",
"786 427 OFFCURVE",
"786 480 QCURVE",
"786 527 OFFCURVE",
"727 568 OFFCURVE",
"679 568 QCURVE",
"650 568 OFFCURVE",
"582 554 OFFCURVE",
"510 528 OFFCURVE",
"438 492 OFFCURVE",
"404 470 QCURVE",
"356 365 OFFCURVE",
"356 280 QCURVE"
);
},
{
closed = 1;
nodes = (
"171 347 OFFCURVE",
"203 480 OFFCURVE",
"272 638 OFFCURVE",
"378 812 OFFCURVE",
"526 988 OFFCURVE",
"717 1159 OFFCURVE",
"836 1234 QCURVE",
"850 1244 OFFCURVE",
"869 1244 QCURVE",
"885 1244 OFFCURVE",
"916 1230 OFFCURVE",
"941 1206 OFFCURVE",
"956 1175 OFFCURVE",
"956 1159 QCURVE",
"956 1142 OFFCURVE",
"939 1109 OFFCURVE",
"918 1095 QCURVE",
"824 1032 OFFCURVE",
"685 907 OFFCURVE",
"585 793 OFFCURVE",
"520 696 OFFCURVE",
"500 663 QCURVE",
"557 689 OFFCURVE",
"682 718 OFFCURVE",
"742 718 QCURVE",
"789 718 OFFCURVE",
"874 693 OFFCURVE",
"937 638 OFFCURVE",
"974 550 OFFCURVE",
"974 488 QCURVE",
"974 420 OFFCURVE",
"936 290 OFFCURVE",
"869 177 OFFCURVE",
"776 82 OFFCURVE",
"665 14 OFFCURVE",
"540 -24 OFFCURVE",
"474 -24 QCURVE",
"406 -24 OFFCURVE",
"294 25 OFFCURVE",
"214 112 OFFCURVE",
"171 230 OFFCURVE",
"171 300 QCURVE"
);
}
);
width = 980;
}
);
unicode = 0036;
},
{
glyphname = seven;
layers = (
{
layerId = "DC66AB0F-19FD-4F06-8C39-5D32AA939720";
paths = (
{
closed = 1;
nodes = (
"822 880 LINE",
"912 880 OFFCURVE",
"991 838 OFFCURVE",
"991 802 QCURVE",
"991 767 OFFCURVE",
"927 674 OFFCURVE",
"870 621 QCURVE",
"855 604 OFFCURVE",
"791 512 OFFCURVE",
"709 388 OFFCURVE",
"614 245 OFFCURVE",
"523 107 OFFCURVE",
"441 -11 OFFCURVE",
"412 -48 QCURVE",
"366 -107 OFFCURVE",
"288 -156 OFFCURVE",
"259 -156 QCURVE",
"223 -156 OFFCURVE",
"183 -111 OFFCURVE",
"183 -82 QCURVE",
"183 -51 OFFCURVE",
"206 -25 QCURVE",
"228 5 OFFCURVE",
"290 93 OFFCURVE",
"363 196 OFFCURVE",
"444 309 OFFCURVE",
"523 423 OFFCURVE",
"599 530 OFFCURVE",
"664 620 OFFCURVE",
"714 688 OFFCURVE",
"728 706 QCURVE",
"506 705 LINE",
"406 705 OFFCURVE",
"291 713 OFFCURVE",
"232 733 OFFCURVE",
"217 767 OFFCURVE",
"217 792 QCURVE",
"217 821 OFFCURVE",
"244 856 OFFCURVE",
"285 875 OFFCURVE",
"333 881 OFFCURVE",
"354 881 QCURVE",
"371 881 OFFCURVE",
"394 879 OFFCURVE",
"399 879 QCURVE"
);
}
);
width = 870;
}
);
unicode = 0037;
},
{
glyphname = eight;
layers = (
{
layerId = "DC66AB0F-19FD-4F06-8C39-5D32AA939720";
paths = (
{
closed = 1;
nodes = (
"698 336 OFFCURVE",
"646 426 OFFCURVE",
"600 467 QCURVE",
"544 423 OFFCURVE",
"448 350 OFFCURVE",
"378 288 OFFCURVE",
"338 236 OFFCURVE",
"338 215 QCURVE",
"338 172 OFFCURVE",
"419 120 OFFCURVE",
"487 120 QCURVE",
"530 120 OFFCURVE",
"607 144 OFFCURVE",
"664 186 OFFCURVE",
"698 246 OFFCURVE",
"698 282 QCURVE"
);
},
{
closed = 1;
nodes = (
"906 930 OFFCURVE",
"846 950 OFFCURVE",
"814 950 QCURVE",
"765 950 OFFCURVE",
"671 909 OFFCURVE",
"598 848 OFFCURVE",
"553 779 OFFCURVE",
"553 751 QCURVE",
"553 669 OFFCURVE",
"651 602 QCURVE",
"711 624 OFFCURVE",
"819 692 OFFCURVE",
"902 767 OFFCURVE",
"951 841 OFFCURVE",
"951 870 QCURVE",
"951 892 OFFCURVE",
"934 907 QCURVE"
);
},
{
closed = 1;
nodes = (
"973 1071 OFFCURVE",
"1062 1027 OFFCURVE",
"1117 976 OFFCURVE",
"1141 921 OFFCURVE",
"1141 893 QCURVE",
"1141 851 OFFCURVE",
"1097 766 OFFCURVE",
"1029 685 OFFCURVE",
"945 613 OFFCURVE",
"863 557 OFFCURVE",
"793 520 OFFCURVE",
"774 515 QCURVE",
"876 431 OFFCURVE",
"876 298 QCURVE",
"876 226 OFFCURVE",
"813 108 OFFCURVE",
"704 22 OFFCURVE",
"554 -25 OFFCURVE",
"467 -25 QCURVE",
"402 -25 OFFCURVE",
"290 8 OFFCURVE",
"208 68 OFFCURVE",
"160 151 OFFCURVE",
"160 200 QCURVE",
"160 288 OFFCURVE",
"229 362 QCURVE",
"262 397 OFFCURVE",
"487 540 QCURVE",
"430 592 OFFCURVE",
"373 704 OFFCURVE",
"373 761 QCURVE",
"373 805 OFFCURVE",
"404 890 OFFCURVE",
"459 966 OFFCURVE",
"536 1031 OFFCURVE",
"629 1078 OFFCURVE",
"734 1105 OFFCURVE",
"790 1105 QCURVE",
"851 1105 OFFCURVE",
"909 1089 QCURVE"
);
}
);
width = 964;
}
);
unicode = 0038;
},
{
glyphname = nine;
layers = (
{
layerId = "DC66AB0F-19FD-4F06-8C39-5D32AA939720";
paths = (
{
closed = 1;
nodes = (
"889 605 OFFCURVE",
"890 612 OFFCURVE",
"890 617 QCURVE",
"890 668 OFFCURVE",
"822 733 OFFCURVE",
"764 733 QCURVE",
"726 733 OFFCURVE",
"648 698 OFFCURVE",
"575 640 OFFCURVE",
"510 563 OFFCURVE",
"462 480 OFFCURVE",
"434 395 OFFCURVE",
"434 357 QCURVE",
"434 302 OFFCURVE",
"486 253 OFFCURVE",
"529 253 QCURVE",
"558 253 OFFCURVE",
"628 270 OFFCURVE",
"703 301 OFFCURVE",
"780 344 OFFCURVE",
"816 371 QCURVE",
"879 499 OFFCURVE",
"889 601 QCURVE"
);
},
{
closed = 1;
nodes = (
"1062 489 OFFCURVE",
"962 249 OFFCURVE",
"774 -11 OFFCURVE",
"494 -276 OFFCURVE",
"303 -393 QCURVE",
"295 -401 OFFCURVE",
"277 -403 OFFCURVE",
"269 -403 QCURVE",
"238 -403 OFFCURVE",
"190 -357 OFFCURVE",
"190 -326 QCURVE",
"190 -309 OFFCURVE",
"210 -269 OFFCURVE",
"235 -254 QCURVE",
"335 -194 OFFCURVE",
"488 -74 OFFCURVE",
"599 34 OFFCURVE",
"674 126 OFFCURVE",
"698 158 QCURVE",
"638 132 OFFCURVE",
"510 103 OFFCURVE",
"450 103 QCURVE",
"407 103 OFFCURVE",
"332 128 OFFCURVE",
"276 181 OFFCURVE",
"244 264 OFFCURVE",
"244 323 QCURVE",
"244 399 OFFCURVE",
"288 544 OFFCURVE",
"366 674 OFFCURVE",
"473 782 OFFCURVE",
"597 861 OFFCURVE",
"734 905 OFFCURVE",
"803 905 QCURVE",
"866 905 OFFCURVE",
"966 863 OFFCURVE",
"1036 789 OFFCURVE",
"1074 686 OFFCURVE",
"1074 625 QCURVE",
"1074 614 OFFCURVE",
"1073 592 OFFCURVE",
"1072 581 QCURVE"
);
}
);
width = 1037;
}
);
unicode = 0039;
},
{
glyphname = fraction;
layers = (
{
layerId = "DC66AB0F-19FD-4F06-8C39-5D32AA939720";
paths = (
{
closed = 1;
nodes = (
"1012 1072 OFFCURVE",
"539 264 OFFCURVE",
"302 -140 QCURVE",
"288 -165 OFFCURVE",
"248 -185 OFFCURVE",
"226 -185 QCURVE",
"197 -185 OFFCURVE",
"149 -155 OFFCURVE",
"149 -131 QCURVE",
"149 -126 OFFCURVE",
"151 -113 OFFCURVE",
"154 -109 QCURVE",
"389 298 OFFCURVE",
"853 1103 OFFCURVE",
"1088 1510 QCURVE",
"1102 1533 OFFCURVE",
"1145 1554 OFFCURVE",
"1169 1554 QCURVE",
"1207 1554 OFFCURVE",
"1250 1518 OFFCURVE",
"1250 1491 QCURVE",
"1250 1481 OFFCURVE",
"1249 1476 QCURVE"
);
}
);
width = 835;
}
);
unicode = 2044;
},
{
glyphname = period;
layers = (
{
layerId = "DC66AB0F-19FD-4F06-8C39-5D32AA939720";
paths = (
{
closed = 1;
nodes = (
"580 108 OFFCURVE",
"557 52 OFFCURVE",
"518 9 OFFCURVE",
"466 -16 OFFCURVE",
"437 -16 QCURVE",
"413 -16 OFFCURVE",
"371 3 OFFCURVE",
"340 35 OFFCURVE",
"322 78 OFFCURVE",
"322 102 QCURVE",
"322 132 OFFCURVE",
"345 187 OFFCURVE",
"385 229 OFFCURVE",
"439 254 OFFCURVE",
"470 254 QCURVE",
"519 254 OFFCURVE",
"580 188 OFFCURVE",
"580 139 QCURVE"
);
}
);
width = 732;
}
);
unicode = 002E;
},
{
glyphname = comma;
layers = (
{
layerId = "DC66AB0F-19FD-4F06-8C39-5D32AA939720";
paths = (
{
closed = 1;
nodes = (
"522 115 OFFCURVE",
"367 -111 OFFCURVE",
"288 -229 QCURVE",
"271 -253 OFFCURVE",
"233 -275 OFFCURVE",
"216 -275 QCURVE",
"201 -275 OFFCURVE",
"181 -260 OFFCURVE",
"181 -246 QCURVE",
"181 -236 OFFCURVE",
"185 -229 QCURVE",
"228 -111 OFFCURVE",
"309 115 OFFCURVE",
"352 233 QCURVE",
"360 255 OFFCURVE",
"393 287 OFFCURVE",
"434 308 OFFCURVE",
"481 318 OFFCURVE",
"504 318 QCURVE",
"546 318 OFFCURVE",
"609 287 OFFCURVE",
"609 259 QCURVE",
"609 246 OFFCURVE",
"602 233 QCURVE"
);
}
);
width = 737;
}
);
unicode = 002C;
},
{
glyphname = colon;
layers = (
{
layerId = "DC66AB0F-19FD-4F06-8C39-5D32AA939720";
paths = (
{
closed = 1;
nodes = (
"573 108 OFFCURVE",
"542 52 OFFCURVE",
"497 9 OFFCURVE",
"442 -16 OFFCURVE",
"412 -16 QCURVE",
"368 -16 OFFCURVE",
"316 40 OFFCURVE",
"316 82 QCURVE",
"316 115 OFFCURVE",
"346 177 OFFCURVE",
"394 225 OFFCURVE",
"456 254 OFFCURVE",
"489 254 QCURVE",
"534 254 OFFCURVE",
"581 205 OFFCURVE",
"581 164 QCURVE",
"581 158 OFFCURVE",
"580 145 OFFCURVE",
"579 139 QCURVE"
);
},
{
closed = 1;
nodes = (
"806 544 OFFCURVE",
"774 490 OFFCURVE",
"728 450 OFFCURVE",
"671 426 OFFCURVE",
"641 426 QCURVE",
"597 426 OFFCURVE",
"545 478 OFFCURVE",
"545 520 QCURVE",
"545 553 OFFCURVE",
"576 615 OFFCURVE",
"625 663 OFFCURVE",
"688 692 OFFCURVE",
"721 692 QCURVE",
"764 692 OFFCURVE",
"813 642 OFFCURVE",
"813 599 QCURVE",
"813 593 OFFCURVE",
"812 580 OFFCURVE",
"811 573 QCURVE"
);
}
);
width = 815;
}
);
unicode = 003A;
},
{
glyphname = semicolon;
layers = (
{
layerId = "DC66AB0F-19FD-4F06-8C39-5D32AA939720";
paths = (
{
closed = 1;
nodes = (
"579 233 LINE",
"176 -279 LINE",
"73 -279 LINE",
"329 233 LINE"
);
},
{
closed = 1;
nodes = (
"701 544 OFFCURVE",
"672 490 OFFCURVE",
"629 450 OFFCURVE",
"574 426 OFFCURVE",
"544 426 QCURVE",
"499 426 OFFCURVE",
"446 482 OFFCURVE",
"446 525 QCURVE",
"446 558 OFFCURVE",
"472 617 OFFCURVE",
"517 662 OFFCURVE",
"575 688 OFFCURVE",
"607 688 QCURVE",
"652 688 OFFCURVE",
"706 637 OFFCURVE",
"706 590 QCURVE",
"706 586 OFFCURVE",
"706 578 OFFCURVE",
"705 573 QCURVE"
);
}
);
width = 711;
}
);
unicode = 003B;
},
{
glyphname = ellipsis;
layers = (
{
layerId = "DC66AB0F-19FD-4F06-8C39-5D32AA939720";
paths = (
{
closed = 1;
nodes = (
"1439 108 OFFCURVE",
"1416 52 OFFCURVE",
"1377 9 OFFCURVE",
"1325 -16 OFFCURVE",
"1296 -16 QCURVE",
"1272 -16 OFFCURVE",
"1230 3 OFFCURVE",
"1199 35 OFFCURVE",
"1181 78 OFFCURVE",
"1181 102 QCURVE",
"1181 132 OFFCURVE",
"1204 187 OFFCURVE",
"1244 229 OFFCURVE",
"1298 254 OFFCURVE",
"1329 254 QCURVE",
"1378 254 OFFCURVE",
"1439 188 OFFCURVE",
"1439 139 QCURVE"
);
},
{
closed = 1;
nodes = (
"991 108 OFFCURVE",
"968 52 OFFCURVE",
"929 9 OFFCURVE",
"877 -16 OFFCURVE",
"848 -16 QCURVE",
"824 -16 OFFCURVE",
"782 3 OFFCURVE",
"751 35 OFFCURVE",
"733 78 OFFCURVE",
"733 102 QCURVE",
"733 132 OFFCURVE",
"756 187 OFFCURVE",
"796 229 OFFCURVE",
"850 254 OFFCURVE",
"881 254 QCURVE",
"930 254 OFFCURVE",
"991 188 OFFCURVE",
"991 139 QCURVE"
);
},
{
closed = 1;
nodes = (
"543 108 OFFCURVE",
"520 52 OFFCURVE",
"481 9 OFFCURVE",
"429 -16 OFFCURVE",
"400 -16 QCURVE",
"376 -16 OFFCURVE",
"334 3 OFFCURVE",
"303 35 OFFCURVE",
"285 78 OFFCURVE",
"285 102 QCURVE",
"285 132 OFFCURVE",
"308 187 OFFCURVE",
"348 229 OFFCURVE",
"402 254 OFFCURVE",
"433 254 QCURVE",
"482 254 OFFCURVE",
"543 188 OFFCURVE",
"543 139 QCURVE"
);
}
);
width = 1488;
}
);
unicode = 2026;
},
{
glyphname = exclam;
layers = (
{
layerId = "DC66AB0F-19FD-4F06-8C39-5D32AA939720";
paths = (
{
closed = 1;
nodes = (
"635 108 OFFCURVE",
"605 52 OFFCURVE",
"561 9 OFFCURVE",
"505 -16 OFFCURVE",
"475 -16 QCURVE",
"430 -16 OFFCURVE",
"376 43 OFFCURVE",
"376 86 QCURVE",
"376 119 OFFCURVE",
"404 179 OFFCURVE",
"451 226 OFFCURVE",
"511 254 OFFCURVE",
"543 254 QCURVE",
"588 254 OFFCURVE",
"640 198 OFFCURVE",
"640 155 QCURVE",
"640 151 OFFCURVE",
"640 144 OFFCURVE",
"639 139 QCURVE"
);
},
{
closed = 1;
nodes = (
"1055 1095 OFFCURVE",
"965 928 OFFCURVE",
"879 770 OFFCURVE",
"789 603 OFFCURVE",
"734 498 QCURVE",
"719 469 OFFCURVE",
"663 440 OFFCURVE",
"639 440 QCURVE",
"619 440 OFFCURVE",
"594 457 OFFCURVE",
"594 475 QCURVE",
"594 487 OFFCURVE",
"599 498 QCURVE",
"629 568 OFFCURVE",
"681 687 OFFCURVE",
"728 797 OFFCURVE",
"772 901 OFFCURVE",
"819 1010 OFFCURVE",
"871 1130 OFFCURVE",
"901 1200 QCURVE",
"909 1218 OFFCURVE",
"938 1246 OFFCURVE",
"976 1265 OFFCURVE",
"1018 1274 OFFCURVE",
"1039 1274 QCURVE",
"1071 1274 OFFCURVE",
"1116 1250 OFFCURVE",
"1116 1224 QCURVE",
"1116 1213 OFFCURVE",
"1110 1200 QCURVE"
);
}
);
width = 959;
}
);
unicode = 0021;
},
{
glyphname = exclamdown;
layers = (
{
layerId = "DC66AB0F-19FD-4F06-8C39-5D32AA939720";
paths = (
{
closed = 1;
nodes = (
"483 1150 OFFCURVE",
"518 1206 OFFCURVE",
"566 1249 OFFCURVE",
"624 1274 OFFCURVE",
"654 1274 QCURVE",
"696 1274 OFFCURVE",
"745 1222 OFFCURVE",
"745 1183 QCURVE",
"745 1148 OFFCURVE",
"712 1084 OFFCURVE",
"660 1034 OFFCURVE",
"594 1004 OFFCURVE",
"561 1004 QCURVE",
"519 1004 OFFCURVE",
"472 1052 OFFCURVE",
"472 1090 QCURVE",
"472 1097 OFFCURVE",
"474 1111 OFFCURVE",
"476 1119 QCURVE"
);
},
{
closed = 1;
nodes = (
"-32 163 OFFCURVE",
"74 330 OFFCURVE",
"175 488 OFFCURVE",
"281 655 OFFCURVE",
"347 760 QCURVE",
"364 789 OFFCURVE",
"421 818 OFFCURVE",
"447 818 QCURVE",
"465 818 OFFCURVE",
"488 802 OFFCURVE",
"488 786 QCURVE",
"488 781 OFFCURVE",
"486 767 OFFCURVE",
"482 760 QCURVE",
"426 655 OFFCURVE",
"338 488 OFFCURVE",
"256 330 OFFCURVE",
"168 163 OFFCURVE",
"112 58 QCURVE",
"103 40 OFFCURVE",
"71 12 OFFCURVE",
"32 -7 OFFCURVE",
"-11 -16 OFFCURVE",
"-31 -16 QCURVE",
"-62 -16 OFFCURVE",
"-104 6 OFFCURVE",
"-104 29 QCURVE",
"-104 37 OFFCURVE",
"-100 50 OFFCURVE",
"-96 58 QCURVE"
);
}
);
width = 545;
}
);
unicode = 00A1;
},
{
glyphname = question;
layers = (
{
layerId = "DC66AB0F-19FD-4F06-8C39-5D32AA939720";
paths = (
{
closed = 1;
nodes = (
"473 108 OFFCURVE",
"437 52 OFFCURVE",
"389 9 OFFCURVE",
"331 -16 OFFCURVE",
"302 -16 QCURVE",
"260 -16 OFFCURVE",
"214 33 OFFCURVE",
"214 71 QCURVE",
"214 105 OFFCURVE",
"247 171 OFFCURVE",
"300 223 OFFCURVE",
"367 254 OFFCURVE",
"400 254 QCURVE",
"442 254 OFFCURVE",
"485 208 OFFCURVE",
"485 173 QCURVE",
"485 155 OFFCURVE",
"481 139 QCURVE"
);
},
{
closed = 1;
nodes = (
"692 611 OFFCURVE",
"619 547 OFFCURVE",
"559 481 OFFCURVE",
"516 418 OFFCURVE",
"504 390 QCURVE",
"496 373 OFFCURVE",
"452 357 OFFCURVE",
"434 357 QCURVE",
"414 357 OFFCURVE",
"384 376 OFFCURVE",
"384 394 QCURVE",
"384 397 OFFCURVE",
"386 405 QCURVE",
"406 480 OFFCURVE",
"536 630 OFFCURVE",
"627 699 QCURVE",
"666 724 OFFCURVE",
"754 786 OFFCURVE",
"831 852 OFFCURVE",
"887 915 OFFCURVE",
"894 942 QCURVE",
"899 964 OFFCURVE",
"899 978 QCURVE",
"899 1009 OFFCURVE",
"865 1037 OFFCURVE",
"807 1037 OFFCURVE",
"728 1012 OFFCURVE",
"645 965 OFFCURVE",
"566 900 OFFCURVE",
"536 860 QCURVE",
"514 831 OFFCURVE",
"482 831 QCURVE",
"469 831 OFFCURVE",
"443 838 OFFCURVE",
"423 851 OFFCURVE",
"410 870 OFFCURVE",
"410 881 QCURVE",
"410 895 OFFCURVE",
"425 922 OFFCURVE",
"438 938 QCURVE",
"487 998 OFFCURVE",
"607 1091 OFFCURVE",
"733 1155 OFFCURVE",
"857 1188 OFFCURVE",
"911 1188 QCURVE",
"949 1188 OFFCURVE",
"1013 1170 OFFCURVE",
"1059 1134 OFFCURVE",
"1085 1079 OFFCURVE",
"1085 1041 QCURVE",
"1085 981 OFFCURVE",
"1046 886 OFFCURVE",
"961 796 OFFCURVE",
"827 700 OFFCURVE",
"733 640 QCURVE"
);
}
);
width = 903;
}
);
unicode = 003F;
},
{
glyphname = questiondown;
layers = (
{
layerId = "DC66AB0F-19FD-4F06-8C39-5D32AA939720";
paths = (
{
closed = 1;
nodes = (
"720 1055 OFFCURVE",
"753 1111 OFFCURVE",
"800 1154 OFFCURVE",
"856 1179 OFFCURVE",
"885 1179 QCURVE",
"927 1179 OFFCURVE",
"978 1126 OFFCURVE",
"978 1087 QCURVE",
"978 1053 OFFCURVE",
"947 989 OFFCURVE",
"897 939 OFFCURVE",
"833 909 OFFCURVE",
"800 909 QCURVE",
"757 909 OFFCURVE",
"710 958 OFFCURVE",
"710 996 QCURVE",
"710 1009 OFFCURVE",
"713 1024 QCURVE"
);
},
{
closed = 1;
nodes = (
"525 552 OFFCURVE",
"594 616 OFFCURVE",
"651 682 OFFCURVE",
"692 745 OFFCURVE",
"702 773 QCURVE",
"708 790 OFFCURVE",
"751 806 OFFCURVE",
"770 806 QCURVE",
"791 806 OFFCURVE",
"822 786 OFFCURVE",
"822 767 QCURVE",
"822 761 OFFCURVE",
"821 758 QCURVE",
"805 683 OFFCURVE",
"682 533 OFFCURVE",
"594 464 QCURVE",
"546 432 OFFCURVE",
"454 362 OFFCURVE",
"380 290 OFFCURVE",
"335 220 OFFCURVE",
"335 190 QCURVE",
"335 157 OFFCURVE",
"371 126 OFFCURVE",
"402 126 QCURVE",
"431 126 OFFCURVE",
"508 151 OFFCURVE",
"589 198 OFFCURVE",
"665 263 OFFCURVE",
"693 303 QCURVE",
"713 332 OFFCURVE",
"746 332 QCURVE",
"773 332 OFFCURVE",
"820 303 OFFCURVE",
"820 280 QCURVE",
"820 266 OFFCURVE",
"807 240 OFFCURVE",
"795 225 QCURVE",
"748 165 OFFCURVE",
"633 72 OFFCURVE",
"510 8 OFFCURVE",
"388 -25 OFFCURVE",
"334 -25 QCURVE",
"295 -25 OFFCURVE",
"228 -6 OFFCURVE",
"180 33 OFFCURVE",
"153 92 OFFCURVE",
"153 133 QCURVE",
"153 191 OFFCURVE",
"190 283 OFFCURVE",
"270 371 OFFCURVE",
"396 464 OFFCURVE",
"486 523 QCURVE"
);
}
);
width = 943;
}
);
unicode = 00BF;
},
{
glyphname = bullet;
layers = (
{
layerId = "DC66AB0F-19FD-4F06-8C39-5D32AA939720";
paths = (
{
closed = 1;
nodes = (
"586 358 OFFCURVE",
"459 410 OFFCURVE",
"366 500 OFFCURVE",
"312 622 OFFCURVE",
"312 762 OFFCURVE",
"366 885 OFFCURVE",
"459 976 OFFCURVE",
"586 1028 OFFCURVE",
"660 1028 QCURVE",
"733 1028 OFFCURVE",
"861 976 OFFCURVE",
"954 885 OFFCURVE",
"1008 762 OFFCURVE",
"1008 622 OFFCURVE",
"954 500 OFFCURVE",
"861 410 OFFCURVE",
"733 358 OFFCURVE",
"660 358 QCURVE"
);
}
);
width = 1083;
}
);
unicode = 2022;
},
{
glyphname = asterisk;
layers = (
{
layerId = "DC66AB0F-19FD-4F06-8C39-5D32AA939720";
paths = (
{
closed = 1;
nodes = (
"966 1053 LINE",
"681 995 LINE",
"761 791 LINE",
"611 721 LINE",
"570 950 LINE",
"337 721 LINE",
"265 823 LINE",
"523 1008 LINE",
"299 1077 LINE",
"412 1217 LINE",
"601 1106 LINE",
"699 1368 LINE",
"854 1368 LINE",
"698 1094 LINE",
"981 1192 LINE"
);
}
);
width = 696;
}
);
unicode = 002A;
},
{
glyphname = numbersign;
layers = (
{
layerId = "DC66AB0F-19FD-4F06-8C39-5D32AA939720";
paths = (
{
closed = 1;
nodes = (
"809 823 LINE",
"777 759 OFFCURVE",
"711 633 OFFCURVE",
"679 569 QCURVE",
"937 569 LINE",
"969 633 OFFCURVE",
"1035 759 OFFCURVE",
"1067 823 QCURVE"
);
},
{
closed = 1;
nodes = (
"1456 946 LINE",
"1469 946 OFFCURVE",
"1480 933 OFFCURVE",
"1480 922 QCURVE",
"1480 908 OFFCURVE",
"1465 873 OFFCURVE",
"1443 843 OFFCURVE",
"1417 823 OFFCURVE",
"1407 823 QCURVE",
"1189 823 LINE",
"1156 759 OFFCURVE",
"1089 633 OFFCURVE",
"1056 569 QCURVE",
"1260 569 LINE",
"1273 569 OFFCURVE",
"1284 555 OFFCURVE",
"1284 544 QCURVE",
"1284 530 OFFCURVE",
"1270 498 OFFCURVE",
"1250 470 OFFCURVE",
"1226 451 OFFCURVE",
"1216 451 QCURVE",
"995 451 LINE",
"966 395 OFFCURVE",
"905 275 OFFCURVE",
"845 158 OFFCURVE",
"787 47 OFFCURVE",
"760 0 QCURVE",
"752 -15 OFFCURVE",
"705 -31 OFFCURVE",
"682 -31 QCURVE",
"661 -31 OFFCURVE",
"636 -20 OFFCURVE",
"636 -8 QCURVE",
"636 -6 OFFCURVE",
"638 0 QCURVE",
"664 50 OFFCURVE",
"722 162 OFFCURVE",
"782 277 OFFCURVE",
"843 395 OFFCURVE",
"872 451 QCURVE",
"614 451 LINE",
"585 395 OFFCURVE",
"523 271 OFFCURVE",
"462 151 OFFCURVE",
"404 42 OFFCURVE",
"380 0 QCURVE",
"371 -15 OFFCURVE",
"328 -29 OFFCURVE",
"305 -29 QCURVE",
"284 -29 OFFCURVE",
"259 -19 OFFCURVE",
"259 -8 QCURVE",
"259 -6 OFFCURVE",
"261 0 QCURVE",
"282 44 OFFCURVE",
"339 154 OFFCURVE",
"402 273 OFFCURVE",
"466 395 OFFCURVE",
"495 451 QCURVE",
"270 451 LINE",
"254 451 OFFCURVE",
"254 471 QCURVE",
"254 482 OFFCURVE",
"266 516 OFFCURVE",
"284 547 OFFCURVE",
"307 569 OFFCURVE",
"318 569 QCURVE",
"556 569 LINE",
"590 633 OFFCURVE",
"656 759 OFFCURVE",
"690 823 QCURVE",
"469 823 LINE",
"455 823 OFFCURVE",
"444 838 OFFCURVE",
"444 849 QCURVE",
"444 863 OFFCURVE",
"458 897 OFFCURVE",
"479 926 OFFCURVE",
"503 946 OFFCURVE",
"514 946 QCURVE",
"751 946 LINE",
"779 999 OFFCURVE",
"837 1110 OFFCURVE",
"894 1220 OFFCURVE",
"948 1323 OFFCURVE",
"972 1368 QCURVE",
"980 1383 OFFCURVE",
"1026 1398 OFFCURVE",
"1049 1398 QCURVE",
"1070 1398 OFFCURVE",
"1096 1386 OFFCURVE",
"1096 1375 QCURVE",
"1096 1370 OFFCURVE",
"1095 1368 QCURVE",
"1075 1326 OFFCURVE",
"1022 1223 OFFCURVE",
"963 1112 OFFCURVE",
"902 999 OFFCURVE",
"874 946 QCURVE",
"1132 946 LINE",
"1159 999 OFFCURVE",
"1218 1114 OFFCURVE",
"1275 1226 OFFCURVE",
"1328 1328 OFFCURVE",
"1349 1368 QCURVE",
"1357 1383 OFFCURVE",
"1402 1399 OFFCURVE",
"1425 1399 QCURVE",
"1446 1399 OFFCURVE",
"1472 1387 OFFCURVE",
"1472 1375 QCURVE",
"1472 1371 OFFCURVE",
"1471 1368 QCURVE",
"1449 1325 OFFCURVE",
"1396 1222 OFFCURVE",
"1338 1112 OFFCURVE",
"1279 999 OFFCURVE",
"1251 946 QCURVE"
);
}
);
width = 1381;
}
);
unicode = 0023;
},
{
glyphname = slash;
layers = (
{
layerId = "DC66AB0F-19FD-4F06-8C39-5D32AA939720";
paths = (
{
closed = 1;
nodes = (
"1007 1072 OFFCURVE",
"534 264 OFFCURVE",
"297 -140 QCURVE",
"283 -165 OFFCURVE",
"243 -185 OFFCURVE",
"221 -185 QCURVE",
"192 -185 OFFCURVE",
"144 -155 OFFCURVE",
"144 -131 QCURVE",
"144 -126 OFFCURVE",
"146 -113 OFFCURVE",
"149 -109 QCURVE",
"384 298 OFFCURVE",
"848 1103 OFFCURVE",
"1083 1510 QCURVE",
"1097 1533 OFFCURVE",
"1140 1554 OFFCURVE",
"1164 1554 QCURVE",
"1202 1554 OFFCURVE",
"1245 1518 OFFCURVE",
"1245 1491 QCURVE",
"1245 1481 OFFCURVE",
"1244 1476 QCURVE"
);
}
);
width = 892;
}
);
unicode = 002F;
},
{
glyphname = backslash;
layers = (
{
layerId = "DC66AB0F-19FD-4F06-8C39-5D32AA939720";
paths = (
{
closed = 1;
nodes = (
"1007 1072 OFFCURVE",
"534 264 OFFCURVE",
"297 -140 QCURVE",
"283 -165 OFFCURVE",
"243 -185 OFFCURVE",
"221 -185 QCURVE",
"192 -185 OFFCURVE",
"144 -155 OFFCURVE",
"144 -131 QCURVE",
"144 -126 OFFCURVE",
"146 -113 OFFCURVE",
"149 -109 QCURVE",
"384 298 OFFCURVE",
"848 1103 OFFCURVE",
"1083 1510 QCURVE",
"1097 1533 OFFCURVE",
"1140 1554 OFFCURVE",
"1164 1554 QCURVE",
"1202 1554 OFFCURVE",
"1245 1518 OFFCURVE",
"1245 1491 QCURVE",
"1245 1481 OFFCURVE",
"1244 1476 QCURVE"
);
}
);
width = 892;
}
);
unicode = 005C;
},
{
glyphname = hyphen;
layers = (
{
layerId = "DC66AB0F-19FD-4F06-8C39-5D32AA939720";
paths = (
{
closed = 1;
nodes = (
"961 430 LINE",
"978 430 OFFCURVE",
"998 401 OFFCURVE",
"998 382 QCURVE",
"998 357 OFFCURVE",
"960 312 OFFCURVE",
"916 312 QCURVE",
"465 312 LINE",
"448 312 OFFCURVE",
"431 336 OFFCURVE",
"431 353 QCURVE",
"431 366 OFFCURVE",
"442 393 OFFCURVE",
"465 415 OFFCURVE",
"501 430 OFFCURVE",
"527 430 QCURVE"
);
}
);
width = 985;
}
);
unicode = 002D;
},
{
glyphname = endash;
layers = (
{
layerId = "DC66AB0F-19FD-4F06-8C39-5D32AA939720";
paths = (
{
closed = 1;
nodes = (
"297 699 LINE",
"767 699 LINE",
"767 555 LINE",
"297 555 LINE"
);
}
);
width = 889;
}
);
unicode = 2013;
},
{
glyphname = emdash;
layers = (
{
layerId = "DC66AB0F-19FD-4F06-8C39-5D32AA939720";
paths = (
{
closed = 1;
nodes = (
"345 699 LINE",
"1285 699 LINE",
"1285 555 LINE",
"345 555 LINE"
);
}
);
width = 1406;
}
);
unicode = 2014;
},
{
glyphname = underscore;
layers = (
{
layerId = "DC66AB0F-19FD-4F06-8C39-5D32AA939720";
paths = (
{
closed = 1;
nodes = (
"34 -143 LINE",
"11 -143 OFFCURVE",
"-9 -127 OFFCURVE",
"-9 -113 QCURVE",
"-9 -100 OFFCURVE",
"8 -71 OFFCURVE",
"38 -45 OFFCURVE",
"77 -28 OFFCURVE",
"98 -28 QCURVE",
"998 -28 LINE",
"1015 -28 OFFCURVE",
"1030 -45 OFFCURVE",
"1030 -71 OFFCURVE",
"1016 -101 OFFCURVE",
"990 -126 OFFCURVE",
"955 -143 OFFCURVE",
"934 -143 QCURVE"
);
}
);
width = 1024;
}
);
unicode = 005F;
},
{
glyphname = parenleft;
layers = (
{
layerId = "DC66AB0F-19FD-4F06-8C39-5D32AA939720";
paths = (
{
closed = 1;
nodes = (
"963 1577 OFFCURVE",
"1025 1609 OFFCURVE",
"1051 1609 QCURVE",
"1069 1609 OFFCURVE",
"1098 1597 OFFCURVE",
"1119 1580 OFFCURVE",
"1131 1559 OFFCURVE",
"1131 1541 OFFCURVE",
"1125 1535 QCURVE",
"996 1386 OFFCURVE",
"792 1072 OFFCURVE",
"650 743 OFFCURVE",
"574 397 OFFCURVE",
"574 216 QCURVE",
"574 160 OFFCURVE",
"577 76 OFFCURVE",
"584 2 OFFCURVE",
"599 -71 OFFCURVE",
"611 -115 QCURVE",
"612 -119 OFFCURVE",
"612 -127 QCURVE",
"612 -142 OFFCURVE",
"598 -167 OFFCURVE",
"575 -186 OFFCURVE",
"545 -196 OFFCURVE",
"529 -196 QCURVE",
"502 -196 OFFCURVE",
"449 -160 OFFCURVE",
"439 -115 QCURVE",
"430 -76 OFFCURVE",
"415 16 OFFCURVE",
"404 113 OFFCURVE",
"398 212 OFFCURVE",
"398 257 QCURVE",
"398 418 OFFCURVE",
"463 734 OFFCURVE",
"594 1049 OFFCURVE",
"794 1369 OFFCURVE",
"929 1535 QCURVE"
);
}
);
width = 914;
}
);
unicode = 0028;
},
{
glyphname = parenright;
layers = (
{
layerId = "DC66AB0F-19FD-4F06-8C39-5D32AA939720";
paths = (
{
closed = 1;
nodes = (
"310 -172 OFFCURVE",
"231 -217 OFFCURVE",
"203 -217 QCURVE",
"174 -217 OFFCURVE",
"144 -183 OFFCURVE",
"144 -161 QCURVE",
"144 -149 OFFCURVE",
"153 -125 OFFCURVE",
"164 -115 QCURVE",
"291 31 OFFCURVE",
"495 344 OFFCURVE",
"637 674 OFFCURVE",
"714 1018 OFFCURVE",
"714 1196 QCURVE",
"714 1364 OFFCURVE",
"678 1535 QCURVE",
"675 1545 OFFCURVE",
"675 1554 QCURVE",
"675 1587 OFFCURVE",
"723 1628 OFFCURVE",
"754 1628 QCURVE",
"783 1628 OFFCURVE",
"839 1585 OFFCURVE",
"850 1535 QCURVE",
"890 1339 OFFCURVE",
"890 1156 QCURVE",
"890 991 OFFCURVE",
"824 678 OFFCURVE",
"692 367 OFFCURVE",
"493 51 OFFCURVE",
"360 -115 QCURVE"
);
}
);
width = 680;
}
);
unicode = 0029;
},
{
glyphname = braceleft;
layers = (
{
layerId = "DC66AB0F-19FD-4F06-8C39-5D32AA939720";
paths = (
{
closed = 1;
nodes = (
"1405 1509 LINE",
"1419 1509 OFFCURVE",
"1434 1487 OFFCURVE",
"1434 1470 QCURVE",
"1434 1454 OFFCURVE",
"1420 1416 OFFCURVE",
"1393 1383 OFFCURVE",
"1351 1361 OFFCURVE",
"1323 1361 QCURVE",
"1254 1361 OFFCURVE",
"1168 1348 OFFCURVE",
"1109 1311 OFFCURVE",
"1065 1245 OFFCURVE",
"1037 1193 QCURVE",
"890 916 LINE",
"851 845 OFFCURVE",
"795 760 OFFCURVE",
"742 712 OFFCURVE",
"682 690 OFFCURVE",
"638 684 QCURVE",
"662 661 OFFCURVE",
"681 610 OFFCURVE",
"681 583 QCURVE",
"681 548 OFFCURVE",
"654 476 OFFCURVE",
"634 438 QCURVE",
"418 29 LINE",
"407 6 OFFCURVE",
"408 -3 QCURVE",
"408 -32 OFFCURVE",
"488 -57 OFFCURVE",
"566 -57 QCURVE",
"587 -57 OFFCURVE",
"607 -81 OFFCURVE",
"607 -115 OFFCURVE",
"590 -152 OFFCURVE",
"559 -184 OFFCURVE",
"513 -205 OFFCURVE",
"485 -205 QCURVE",
"361 -205 OFFCURVE",
"235 -132 OFFCURVE",
"235 -59 QCURVE",
"235 -48 OFFCURVE",
"238 -27 OFFCURVE",
"240 -16 QCURVE",
"243 -2 OFFCURVE",
"250 22 OFFCURVE",
"264 59 OFFCURVE",
"291 114 OFFCURVE",
"337 204 OFFCURVE",
"406 336 OFFCURVE",
"456 430 QCURVE",
"474 465 OFFCURVE",
"502 539 OFFCURVE",
"502 567 QCURVE",
"502 590 OFFCURVE",
"476 618 OFFCURVE",
"444 618 QCURVE",
"422 618 OFFCURVE",
"401 643 OFFCURVE",
"401 661 QCURVE",
"401 676 OFFCURVE",
"416 711 OFFCURVE",
"445 739 OFFCURVE",
"489 758 OFFCURVE",
"519 758 QCURVE",
"552 758 OFFCURVE",
"606 777 OFFCURVE",
"656 817 OFFCURVE",
"703 880 OFFCURVE",
"727 924 QCURVE",
"884 1226 LINE",
"931 1314 OFFCURVE",
"1012 1426 OFFCURVE",
"1108 1490 OFFCURVE",
"1235 1513 OFFCURVE",
"1328 1513 QCURVE"
);
}
);
width = 810;
}
);
unicode = 007B;
},
{
glyphname = braceright;
layers = (
{
layerId = "DC66AB0F-19FD-4F06-8C39-5D32AA939720";
paths = (
{
closed = 1;
nodes = (
"37 -201 LINE",
"22 -201 OFFCURVE",
"7 -179 OFFCURVE",
"7 -162 QCURVE",
"7 -146 OFFCURVE",
"21 -107 OFFCURVE",
"48 -75 OFFCURVE",
"89 -53 OFFCURVE",
"117 -53 QCURVE",
"185 -53 OFFCURVE",
"270 -40 OFFCURVE",
"329 -3 OFFCURVE",
"373 63 OFFCURVE",
"400 115 QCURVE",
"544 392 LINE",
"583 462 OFFCURVE",
"637 548 OFFCURVE",
"690 596 OFFCURVE",
"749 618 OFFCURVE",
"793 624 QCURVE",
"769 647 OFFCURVE",
"748 696 OFFCURVE",
"748 723 QCURVE",
"748 755 OFFCURVE",
"774 831 OFFCURVE",
"794 870 QCURVE",
"1006 1279 LINE",
"1015 1297 OFFCURVE",
"1015 1309 QCURVE",
"1015 1339 OFFCURVE",
"935 1365 OFFCURVE",
"856 1365 QCURVE",
"835 1365 OFFCURVE",
"815 1389 OFFCURVE",
"815 1423 OFFCURVE",
"831 1461 OFFCURVE",
"863 1492 OFFCURVE",
"907 1513 OFFCURVE",
"936 1513 QCURVE",
"1060 1513 OFFCURVE",
"1187 1439 OFFCURVE",
"1187 1365 QCURVE",
"1187 1343 OFFCURVE",
"1183 1324 QCURVE",
"1180 1310 OFFCURVE",
"1174 1286 OFFCURVE",
"1160 1250 OFFCURVE",
"1135 1194 OFFCURVE",
"1090 1104 OFFCURVE",
"1022 972 OFFCURVE",
"973 878 QCURVE",
"955 843 OFFCURVE",
"927 771 OFFCURVE",
"927 743 QCURVE",
"927 719 OFFCURVE",
"953 690 OFFCURVE",
"987 690 QCURVE",
"1009 690 OFFCURVE",
"1030 664 OFFCURVE",
"1030 645 QCURVE",
"1030 630 OFFCURVE",
"1015 596 OFFCURVE",
"986 568 OFFCURVE",
"942 550 OFFCURVE",
"913 550 QCURVE",
"848 550 OFFCURVE",
"755 472 OFFCURVE",
"707 384 QCURVE",
"553 82 LINE",
"508 -7 OFFCURVE",
"428 -119 OFFCURVE",
"332 -182 OFFCURVE",
"206 -205 OFFCURVE",
"114 -205 QCURVE"
);
}
);
width = 1018;
}
);
unicode = 007D;
},
{
glyphname = bracketleft;
layers = (
{
layerId = "DC66AB0F-19FD-4F06-8C39-5D32AA939720";
paths = (
{
closed = 1;
nodes = (
"1448 1573 LINE",
"1472 1573 OFFCURVE",
"1496 1546 OFFCURVE",
"1496 1526 QCURVE",
"1496 1511 OFFCURVE",
"1481 1478 OFFCURVE",
"1452 1451 OFFCURVE",
"1408 1434 OFFCURVE",
"1378 1434 QCURVE",
"1182 1434 LINE",
"990 1056 OFFCURVE",
"613 308 OFFCURVE",
"421 -70 QCURVE",
"618 -70 LINE",
"639 -70 OFFCURVE",
"659 -93 OFFCURVE",
"659 -110 QCURVE",
"659 -125 OFFCURVE",
"644 -158 OFFCURVE",
"615 -187 OFFCURVE",
"574 -205 OFFCURVE",
"548 -205 QCURVE",
"180 -205 LINE",
"405 240 OFFCURVE",
"854 1128 OFFCURVE",
"1080 1573 QCURVE"
);
}
);
width = 966;
}
);
unicode = 005B;
},
{
glyphname = bracketright;
layers = (
{
layerId = "DC66AB0F-19FD-4F06-8C39-5D32AA939720";
paths = (
{
closed = 1;
nodes = (
"1232 1573 LINE",
"1008 1128 OFFCURVE",
"558 240 OFFCURVE",
"334 -205 QCURVE",
"-38 -205 LINE",
"-64 -205 OFFCURVE",
"-88 -183 OFFCURVE",
"-88 -166 QCURVE",
"-88 -151 OFFCURVE",
"-70 -117 OFFCURVE",
"-38 -88 OFFCURVE",
"8 -70 OFFCURVE",
"36 -70 QCURVE",
"232 -70 LINE",
"611 684 OFFCURVE",
"990 1434 QCURVE",
"793 1434 LINE",
"762 1434 OFFCURVE",
"733 1461 OFFCURVE",
"733 1480 QCURVE",
"733 1495 OFFCURVE",
"750 1528 OFFCURVE",
"783 1555 OFFCURVE",
"832 1573 OFFCURVE",
"863 1573 QCURVE"
);
}
);
width = 784;
}
);
unicode = 005D;
},
{
glyphname = quotesinglbase;
layers = (
{
layerId = "DC66AB0F-19FD-4F06-8C39-5D32AA939720";
paths = (
{
closed = 1;
nodes = (
"647 -55 OFFCURVE",
"572 -162 OFFCURVE",
"497 -267 OFFCURVE",
"421 -375 OFFCURVE",
"381 -433 QCURVE",
"365 -456 OFFCURVE",
"331 -476 OFFCURVE",
"299 -476 OFFCURVE",
"279 -460 OFFCURVE",
"279 -447 QCURVE",
"279 -441 OFFCURVE",
"282 -433 QCURVE",
"304 -375 OFFCURVE",
"343 -267 OFFCURVE",
"381 -162 OFFCURVE",
"420 -55 OFFCURVE",
"442 4 QCURVE",
"449 25 OFFCURVE",
"481 56 OFFCURVE",
"523 75 OFFCURVE",
"571 85 OFFCURVE",
"594 85 QCURVE",
"615 85 OFFCURVE",
"652 78 OFFCURVE",
"680 64 OFFCURVE",
"697 44 OFFCURVE",
"697 31 QCURVE",
"697 19 OFFCURVE",
"688 4 QCURVE"
);
}
);
width = 872;
}
);
unicode = 201A;
},
{
glyphname = quotedblbase;
layers = (
{
layerId = "DC66AB0F-19FD-4F06-8C39-5D32AA939720";
paths = (
{
closed = 1;
nodes = (
"466 -55 OFFCURVE",
"391 -162 OFFCURVE",
"316 -267 OFFCURVE",
"240 -375 OFFCURVE",
"200 -433 QCURVE",
"184 -456 OFFCURVE",
"150 -476 OFFCURVE",
"118 -476 OFFCURVE",
"98 -460 OFFCURVE",
"98 -447 QCURVE",
"98 -441 OFFCURVE",
"101 -433 QCURVE",
"123 -375 OFFCURVE",
"162 -267 OFFCURVE",
"200 -162 OFFCURVE",
"239 -55 OFFCURVE",
"261 4 QCURVE",
"268 25 OFFCURVE",
"300 56 OFFCURVE",
"342 75 OFFCURVE",
"390 85 OFFCURVE",
"413 85 QCURVE",
"434 85 OFFCURVE",
"471 78 OFFCURVE",
"499 64 OFFCURVE",
"516 44 OFFCURVE",
"516 31 QCURVE",
"516 19 OFFCURVE",
"507 4 QCURVE"
);
},
{
closed = 1;
nodes = (
"845 -55 OFFCURVE",
"770 -162 OFFCURVE",
"695 -267 OFFCURVE",
"619 -375 OFFCURVE",
"579 -433 QCURVE",
"563 -456 OFFCURVE",
"529 -476 OFFCURVE",
"497 -476 OFFCURVE",
"477 -460 OFFCURVE",
"477 -447 QCURVE",
"477 -441 OFFCURVE",
"480 -433 QCURVE",
"502 -375 OFFCURVE",
"541 -267 OFFCURVE",
"579 -162 OFFCURVE",
"618 -55 OFFCURVE",
"640 4 QCURVE",
"647 25 OFFCURVE",
"679 56 OFFCURVE",
"721 75 OFFCURVE",
"769 85 OFFCURVE",
"792 85 QCURVE",
"813 85 OFFCURVE",
"850 78 OFFCURVE",
"878 64 OFFCURVE",
"895 44 OFFCURVE",
"895 31 QCURVE",
"895 19 OFFCURVE",
"886 4 QCURVE"
);
}
);
width = 1065;
}
);
unicode = 201E;
},
{
glyphname = quotedblleft;
layers = (
{
layerId = "DC66AB0F-19FD-4F06-8C39-5D32AA939720";
paths = (
{
closed = 1;
nodes = (
"368 1019 OFFCURVE",
"444 1127 OFFCURVE",
"519 1232 OFFCURVE",
"595 1339 OFFCURVE",
"635 1398 QCURVE",
"651 1421 OFFCURVE",
"685 1441 OFFCURVE",
"717 1441 OFFCURVE",
"737 1425 OFFCURVE",
"737 1412 QCURVE",
"737 1405 OFFCURVE",
"734 1398 QCURVE",
"712 1339 OFFCURVE",
"673 1232 OFFCURVE",
"635 1127 OFFCURVE",
"596 1019 OFFCURVE",
"574 961 QCURVE",
"567 940 OFFCURVE",
"535 909 OFFCURVE",
"493 890 OFFCURVE",
"445 880 OFFCURVE",
"422 880 QCURVE",
"401 880 OFFCURVE",
"364 887 OFFCURVE",
"336 901 OFFCURVE",
"319 921 OFFCURVE",
"319 934 QCURVE",
"319 946 OFFCURVE",
"328 961 QCURVE"
);
},
{
closed = 1;
nodes = (
"749 1019 OFFCURVE",
"825 1127 OFFCURVE",
"900 1232 OFFCURVE",
"976 1339 OFFCURVE",
"1016 1398 QCURVE",
"1032 1421 OFFCURVE",
"1066 1441 OFFCURVE",
"1098 1441 OFFCURVE",
"1118 1425 OFFCURVE",
"1118 1412 QCURVE",
"1118 1405 OFFCURVE",
"1115 1398 QCURVE",
"1093 1339 OFFCURVE",
"1054 1232 OFFCURVE",
"1016 1127 OFFCURVE",
"977 1019 OFFCURVE",
"955 961 QCURVE",
"948 940 OFFCURVE",
"916 909 OFFCURVE",
"874 890 OFFCURVE",
"826 880 OFFCURVE",
"803 880 QCURVE",
"782 880 OFFCURVE",
"745 887 OFFCURVE",
"717 901 OFFCURVE",
"700 921 OFFCURVE",
"700 934 QCURVE",
"700 946 OFFCURVE",
"709 961 QCURVE"
);
}
);
width = 867;
}
);
unicode = 201C;
},
{
glyphname = quotedblright;
layers = (
{
layerId = "DC66AB0F-19FD-4F06-8C39-5D32AA939720";
paths = (
{
closed = 1;
nodes = (
"714 1309 OFFCURVE",
"639 1202 OFFCURVE",
"564 1097 OFFCURVE",
"488 989 OFFCURVE",
"448 931 QCURVE",
"432 908 OFFCURVE",
"398 888 OFFCURVE",
"366 888 OFFCURVE",
"346 904 OFFCURVE",
"346 917 QCURVE",
"346 923 OFFCURVE",
"349 931 QCURVE",
"371 989 OFFCURVE",
"410 1097 OFFCURVE",
"448 1202 OFFCURVE",
"487 1309 OFFCURVE",
"509 1368 QCURVE",
"516 1389 OFFCURVE",
"548 1420 OFFCURVE",
"590 1439 OFFCURVE",
"638 1449 OFFCURVE",
"661 1449 QCURVE",
"682 1449 OFFCURVE",
"719 1442 OFFCURVE",
"747 1428 OFFCURVE",
"764 1408 OFFCURVE",
"764 1395 QCURVE",
"764 1383 OFFCURVE",
"755 1368 QCURVE"
);
},
{
closed = 1;
nodes = (
"1093 1309 OFFCURVE",
"1018 1202 OFFCURVE",
"943 1097 OFFCURVE",
"867 989 OFFCURVE",
"827 931 QCURVE",
"811 908 OFFCURVE",
"777 888 OFFCURVE",
"745 888 OFFCURVE",
"725 904 OFFCURVE",
"725 917 QCURVE",
"725 923 OFFCURVE",
"728 931 QCURVE",
"750 989 OFFCURVE",
"789 1097 OFFCURVE",
"827 1202 OFFCURVE",
"866 1309 OFFCURVE",
"888 1368 QCURVE",
"895 1389 OFFCURVE",
"927 1420 OFFCURVE",
"969 1439 OFFCURVE",
"1017 1449 OFFCURVE",
"1040 1449 QCURVE",
"1061 1449 OFFCURVE",
"1098 1442 OFFCURVE",
"1126 1428 OFFCURVE",
"1143 1408 OFFCURVE",
"1143 1395 QCURVE",
"1143 1383 OFFCURVE",
"1134 1368 QCURVE"
);
}
);
width = 939;
}
);
unicode = 201D;
},
{
glyphname = quoteleft;
layers = (
{
layerId = "DC66AB0F-19FD-4F06-8C39-5D32AA939720";
paths = (
{
closed = 1;
nodes = (
"410 1019 OFFCURVE",
"486 1127 OFFCURVE",
"561 1232 OFFCURVE",
"637 1339 OFFCURVE",
"677 1398 QCURVE",
"693 1421 OFFCURVE",
"727 1441 OFFCURVE",
"759 1441 OFFCURVE",
"779 1425 OFFCURVE",
"779 1412 QCURVE",
"779 1405 OFFCURVE",
"776 1398 QCURVE",
"754 1339 OFFCURVE",
"715 1232 OFFCURVE",
"677 1127 OFFCURVE",
"638 1019 OFFCURVE",
"616 961 QCURVE",
"609 940 OFFCURVE",
"577 909 OFFCURVE",
"535 890 OFFCURVE",
"487 880 OFFCURVE",
"464 880 QCURVE",
"443 880 OFFCURVE",
"406 887 OFFCURVE",
"378 901 OFFCURVE",
"361 921 OFFCURVE",
"361 934 QCURVE",
"361 946 OFFCURVE",
"370 961 QCURVE"
);
}
);
width = 529;
}
);
unicode = 2018;
},
{
glyphname = quoteright;
layers = (
{
layerId = "DC66AB0F-19FD-4F06-8C39-5D32AA939720";
paths = (
{
closed = 1;
nodes = (
"755 1309 OFFCURVE",
"680 1202 OFFCURVE",
"605 1097 OFFCURVE",
"529 989 OFFCURVE",
"489 931 QCURVE",
"473 908 OFFCURVE",
"439 888 OFFCURVE",
"407 888 OFFCURVE",
"387 904 OFFCURVE",
"387 917 QCURVE",
"387 923 OFFCURVE",
"390 931 QCURVE",
"412 989 OFFCURVE",
"451 1097 OFFCURVE",
"489 1202 OFFCURVE",
"528 1309 OFFCURVE",
"550 1368 QCURVE",
"557 1389 OFFCURVE",
"589 1420 OFFCURVE",
"631 1439 OFFCURVE",
"679 1449 OFFCURVE",
"702 1449 QCURVE",
"723 1449 OFFCURVE",
"760 1442 OFFCURVE",
"788 1428 OFFCURVE",
"805 1408 OFFCURVE",
"805 1395 QCURVE",
"805 1383 OFFCURVE",
"796 1368 QCURVE"
);
}
);
width = 612;
}
);
unicode = 2019;
},
{
glyphname = guillemotleft;
layers = (
{
layerId = "DC66AB0F-19FD-4F06-8C39-5D32AA939720";
paths = (
{
closed = 1;
nodes = (
"575 176 OFFCURVE",
"438 257 OFFCURVE",
"387 287 QCURVE",
"327 322 OFFCURVE",
"278 352 QCURVE",
"250 369 OFFCURVE",
"250 400 QCURVE",
"250 425 OFFCURVE",
"286 471 OFFCURVE",
"324 487 QCURVE",
"415 527 OFFCURVE",
"498 562 QCURVE",
"534 578 OFFCURVE",
"608 609 OFFCURVE",
"678 638 OFFCURVE",
"738 664 OFFCURVE",
"761 672 QCURVE",
"772 677 OFFCURVE",
"780 677 QCURVE",
"796 677 OFFCURVE",
"814 649 OFFCURVE",
"814 626 QCURVE",
"814 613 OFFCURVE",
"812 584 OFFCURVE",
"799 555 OFFCURVE",
"770 530 OFFCURVE",
"743 520 QCURVE",
"729 513 OFFCURVE",
"689 497 OFFCURVE",
"645 479 OFFCURVE",
"597 461 OFFCURVE",
"575 452 QCURVE",
"523 432 OFFCURVE",
"468 411 QCURVE",
"468 411 OFFCURVE",
"468 411 QCURVE",
"468 410 OFFCURVE",
"525 382 QCURVE",
"583 355 OFFCURVE",
"710 287 QCURVE",
"735 273 OFFCURVE",
"756 239 OFFCURVE",
"756 222 QCURVE",
"756 204 OFFCURVE",
"740 169 OFFCURVE",
"715 142 OFFCURVE",
"685 126 OFFCURVE",
"672 126 QCURVE",
"661 126 OFFCURVE",
"656 130 QCURVE"
);
},
{
closed = 1;
nodes = (
"1034 176 OFFCURVE",
"897 257 OFFCURVE",
"846 287 QCURVE",
"787 322 OFFCURVE",
"738 352 QCURVE",
"710 369 OFFCURVE",
"710 400 QCURVE",
"710 425 OFFCURVE",
"746 471 OFFCURVE",
"784 487 QCURVE",
"875 527 OFFCURVE",
"958 562 QCURVE",
"994 578 OFFCURVE",
"1068 609 OFFCURVE",
"1137 638 OFFCURVE",
"1198 664 OFFCURVE",
"1220 672 QCURVE",
"1232 677 OFFCURVE",
"1239 677 QCURVE",
"1256 677 OFFCURVE",
"1274 649 OFFCURVE",
"1274 626 QCURVE",
"1274 613 OFFCURVE",
"1271 584 OFFCURVE",
"1258 555 OFFCURVE",
"1230 530 OFFCURVE",
"1203 520 QCURVE",
"1188 513 OFFCURVE",
"1148 497 OFFCURVE",
"1104 479 OFFCURVE",
"1057 461 OFFCURVE",
"1035 452 QCURVE",
"983 432 OFFCURVE",
"928 411 QCURVE",
"928 411 OFFCURVE",
"928 411 QCURVE",
"928 410 OFFCURVE",
"985 382 QCURVE",
"1043 355 OFFCURVE",
"1169 287 QCURVE",
"1194 273 OFFCURVE",
"1216 239 OFFCURVE",
"1216 222 QCURVE",
"1216 204 OFFCURVE",
"1200 169 OFFCURVE",
"1174 142 OFFCURVE",
"1145 126 OFFCURVE",
"1132 126 QCURVE",
"1121 126 OFFCURVE",
"1116 130 QCURVE"
);
}
);
width = 1333;
}
);
unicode = 00AB;
},
{
glyphname = guillemotright;
layers = (
{
layerId = "DC66AB0F-19FD-4F06-8C39-5D32AA939720";
paths = (
{
closed = 1;
nodes = (
"460 128 OFFCURVE",
"449 128 QCURVE",
"430 128 OFFCURVE",
"403 161 OFFCURVE",
"403 211 OFFCURVE",
"440 267 OFFCURVE",
"491 288 QCURVE",
"570 322 OFFCURVE",
"685 368 OFFCURVE",
"758 398 OFFCURVE",
"776 405 QCURVE",
"793 412 LINE",
"767 424 LINE",
"741 436 OFFCURVE",
"670 471 OFFCURVE",
"596 508 OFFCURVE",
"572 520 QCURVE",
"552 531 OFFCURVE",
"535 554 OFFCURVE",
"535 568 QCURVE",
"535 586 OFFCURVE",
"550 624 OFFCURVE",
"573 655 OFFCURVE",
"601 676 OFFCURVE",
"614 676 QCURVE",
"621 676 OFFCURVE",
"630 672 QCURVE",
"648 663 OFFCURVE",
"696 638 OFFCURVE",
"751 609 OFFCURVE",
"810 578 OFFCURVE",
"838 562 QCURVE",
"903 527 OFFCURVE",
"974 487 QCURVE",
"994 477 OFFCURVE",
"1013 449 OFFCURVE",
"1013 432 QCURVE",
"1013 407 OFFCURVE",
"980 365 OFFCURVE",
"952 353 QCURVE",
"889 323 OFFCURVE",
"812 288 QCURVE",
"746 258 OFFCURVE",
"570 178 OFFCURVE",
"468 132 QCURVE"
);
},
{
closed = 1;
nodes = (
"914 128 OFFCURVE",
"902 128 QCURVE",
"883 128 OFFCURVE",
"857 161 OFFCURVE",
"857 211 OFFCURVE",
"894 267 OFFCURVE",
"945 288 QCURVE",
"1024 322 OFFCURVE",
"1138 368 OFFCURVE",
"1212 398 OFFCURVE",
"1229 405 QCURVE",
"1246 412 LINE",
"1220 424 LINE",
"1195 436 OFFCURVE",
"1124 471 OFFCURVE",
"1050 508 OFFCURVE",
"1026 520 QCURVE",
"1005 531 OFFCURVE",
"989 554 OFFCURVE",
"989 568 QCURVE",
"989 586 OFFCURVE",
"1003 624 OFFCURVE",
"1026 655 OFFCURVE",
"1054 676 OFFCURVE",
"1067 676 QCURVE",
"1075 676 OFFCURVE",
"1083 672 QCURVE",
"1101 663 OFFCURVE",
"1150 638 OFFCURVE",
"1205 609 OFFCURVE",
"1263 578 OFFCURVE",
"1291 562 QCURVE",
"1357 527 OFFCURVE",
"1427 487 QCURVE",
"1447 477 OFFCURVE",
"1466 449 OFFCURVE",
"1466 432 QCURVE",
"1466 407 OFFCURVE",
"1433 365 OFFCURVE",
"1406 353 QCURVE",
"1342 323 OFFCURVE",
"1265 288 QCURVE",
"1200 258 OFFCURVE",
"1024 178 OFFCURVE",
"921 132 QCURVE"
);
}
);
width = 1570;
}
);
unicode = 00BB;
},
{
glyphname = guilsinglleft;
layers = (
{
layerId = "DC66AB0F-19FD-4F06-8C39-5D32AA939720";
paths = (
{
closed = 1;
nodes = (
"737 407 OFFCURVE",
"579 500 OFFCURVE",
"520 535 QCURVE",
"451 575 OFFCURVE",
"395 610 QCURVE",
"362 630 OFFCURVE",
"362 665 QCURVE",
"362 694 OFFCURVE",
"404 748 OFFCURVE",
"448 766 QCURVE",
"553 812 OFFCURVE",
"649 853 QCURVE",
"690 871 OFFCURVE",
"776 907 OFFCURVE",
"856 941 OFFCURVE",
"926 970 OFFCURVE",
"952 980 QCURVE",
"965 985 OFFCURVE",
"974 985 QCURVE",
"993 985 OFFCURVE",
"1014 953 OFFCURVE",
"1014 927 QCURVE",
"1014 911 OFFCURVE",
"1011 878 OFFCURVE",
"996 845 OFFCURVE",
"963 816 OFFCURVE",
"932 804 QCURVE",
"915 796 OFFCURVE",
"869 778 OFFCURVE",
"818 757 OFFCURVE",
"763 736 OFFCURVE",
"738 726 QCURVE",
"678 702 OFFCURVE",
"614 678 QCURVE",
"614 678 OFFCURVE",
"614 678 OFFCURVE",
"614 678 OFFCURVE",
"614 678 QCURVE",
"614 677 OFFCURVE",
"680 645 QCURVE",
"747 613 OFFCURVE",
"893 535 QCURVE",
"922 519 OFFCURVE",
"947 480 OFFCURVE",
"947 460 QCURVE",
"947 439 OFFCURVE",
"928 399 OFFCURVE",
"899 368 OFFCURVE",
"865 349 OFFCURVE",
"850 349 QCURVE",
"837 349 OFFCURVE",
"831 354 QCURVE"
);
}
);
width = 1060;
}
);
unicode = 2039;
},
{
glyphname = guilsinglright;
layers = (
{
layerId = "DC66AB0F-19FD-4F06-8C39-5D32AA939720";
paths = (
{
closed = 1;
nodes = (
"551 349 OFFCURVE",
"538 349 QCURVE",
"516 349 OFFCURVE",
"485 387 OFFCURVE",
"485 445 OFFCURVE",
"528 510 OFFCURVE",
"587 535 QCURVE",
"679 574 OFFCURVE",
"812 628 OFFCURVE",
"897 662 OFFCURVE",
"917 670 QCURVE",
"937 678 LINE",
"907 692 LINE",
"877 706 OFFCURVE",
"795 747 OFFCURVE",
"709 790 OFFCURVE",
"681 804 QCURVE",
"657 816 OFFCURVE",
"638 843 OFFCURVE",
"638 860 QCURVE",
"638 880 OFFCURVE",
"655 924 OFFCURVE",
"682 961 OFFCURVE",
"714 985 OFFCURVE",
"729 985 QCURVE",
"738 985 OFFCURVE",
"748 980 QCURVE",
"769 970 OFFCURVE",
"825 941 OFFCURVE",
"889 907 OFFCURVE",
"957 871 OFFCURVE",
"989 853 QCURVE",
"1065 812 OFFCURVE",
"1147 766 QCURVE",
"1170 754 OFFCURVE",
"1192 721 OFFCURVE",
"1192 702 QCURVE",
"1192 673 OFFCURVE",
"1154 624 OFFCURVE",
"1122 610 QCURVE",
"1048 575 OFFCURVE",
"959 535 QCURVE",
"883 500 OFFCURVE",
"679 407 OFFCURVE",
"560 354 QCURVE"
);
}
);
width = 1173;
}
);
unicode = 203A;
},
{
glyphname = quotedbl;
layers = (
{
layerId = "DC66AB0F-19FD-4F06-8C39-5D32AA939720";
paths = (
{
closed = 1;
nodes = (
"1018 1297 OFFCURVE",
"926 1154 OFFCURVE",
"833 1012 OFFCURVE",
"742 874 OFFCURVE",
"700 809 QCURVE",
"683 783 OFFCURVE",
"632 755 OFFCURVE",
"609 755 QCURVE",
"592 755 OFFCURVE",
"570 770 OFFCURVE",
"570 785 QCURVE",
"570 791 OFFCURVE",
"575 802 OFFCURVE",
"577 809 QCURVE",
"614 884 OFFCURVE",
"689 1035 OFFCURVE",
"760 1178 OFFCURVE",
"824 1311 OFFCURVE",
"851 1368 QCURVE",
"859 1384 OFFCURVE",
"886 1408 OFFCURVE",
"920 1424 OFFCURVE",
"959 1431 OFFCURVE",
"978 1431 QCURVE",
"1013 1431 OFFCURVE",
"1065 1408 OFFCURVE",
"1065 1386 QCURVE",
"1065 1382 OFFCURVE",
"1063 1372 OFFCURVE",
"1059 1368 QCURVE"
);
},
{
closed = 1;
nodes = (
"721 1298 OFFCURVE",
"641 1155 OFFCURVE",
"558 1013 OFFCURVE",
"477 874 OFFCURVE",
"440 809 QCURVE",
"425 783 OFFCURVE",
"379 755 OFFCURVE",
"357 755 QCURVE",
"340 755 OFFCURVE",
"320 770 OFFCURVE",
"320 784 QCURVE",
"320 790 OFFCURVE",
"325 802 OFFCURVE",
"327 809 QCURVE",
"358 884 OFFCURVE",
"421 1035 OFFCURVE",
"481 1178 OFFCURVE",
"536 1311 OFFCURVE",
"559 1368 QCURVE",
"574 1401 OFFCURVE",
"640 1431 OFFCURVE",
"678 1431 QCURVE",
"713 1431 OFFCURVE",
"765 1408 OFFCURVE",
"765 1386 QCURVE",
"765 1382 OFFCURVE",
"763 1372 OFFCURVE",
"759 1368 QCURVE"
);
}
);
width = 852;
}
);
unicode = 0022;
},
{
glyphname = quotesingle;
layers = (
{
layerId = "DC66AB0F-19FD-4F06-8C39-5D32AA939720";
paths = (
{
closed = 1;
nodes = (
"821 1298 OFFCURVE",
"740 1155 OFFCURVE",
"656 1013 OFFCURVE",
"575 874 OFFCURVE",
"538 809 QCURVE",
"523 783 OFFCURVE",
"474 755 OFFCURVE",
"451 755 QCURVE",
"433 755 OFFCURVE",
"410 772 OFFCURVE",
"410 789 QCURVE",
"410 794 OFFCURVE",
"412 804 OFFCURVE",
"415 809 QCURVE",
"447 884 OFFCURVE",
"511 1035 OFFCURVE",
"571 1178 OFFCURVE",
"627 1311 OFFCURVE",
"650 1368 QCURVE",
"657 1384 OFFCURVE",
"682 1408 OFFCURVE",
"715 1424 OFFCURVE",
"753 1431 OFFCURVE",
"772 1431 QCURVE",
"808 1431 OFFCURVE",
"863 1407 OFFCURVE",
"863 1385 QCURVE",
"863 1381 OFFCURVE",
"861 1371 OFFCURVE",
"858 1368 QCURVE"
);
}
);
width = 671;
}
);
unicode = 0027;
},
{
glyphname = florin;
layers = (
{
layerId = "DC66AB0F-19FD-4F06-8C39-5D32AA939720";
paths = (
{
closed = 1;
nodes = (
"1142 1062 LINE SMOOTH",
"1171 1062 OFFCURVE",
"1177 1039 OFFCURVE",
"1168 1015 CURVE SMOOTH",
"1158 987 OFFCURVE",
"1129 957 OFFCURVE",
"1094 957 CURVE SMOOTH",
"787 957 LINE",
"452 216 LINE",
"313 -88 OFFCURVE",
"127 -245 OFFCURVE",
"-53 -245 CURVE SMOOTH",
"-115 -245 OFFCURVE",
"-179 -232 OFFCURVE",
"-242 -207 CURVE",
"-283 -179 LINE",
"-299 -165 LINE SMOOTH",
"-320 -147 OFFCURVE",
"-324 -127 OFFCURVE",
"-315 -105 CURVE",
"-301 -66 OFFCURVE",
"-252 -28 OFFCURVE",
"-213 -28 CURVE SMOOTH",
"-200 -28 OFFCURVE",
"-190 -32 OFFCURVE",
"-180 -40 CURVE SMOOTH",
"-153 -62 LINE SMOOTH",
"-116 -93 OFFCURVE",
"-75 -109 OFFCURVE",
"-32 -109 CURVE SMOOTH",
"54 -109 OFFCURVE",
"146 -42 OFFCURVE",
"210 98 CURVE SMOOTH",
"597 957 LINE",
"364 957 LINE SMOOTH",
"334 957 OFFCURVE",
"328 981 OFFCURVE",
"337 1006 CURVE SMOOTH",
"347 1033 OFFCURVE",
"375 1062 OFFCURVE",
"412 1062 CURVE SMOOTH",
"645 1062 LINE",
"782 1436 OFFCURVE",
"1016 1669 OFFCURVE",
"1235 1669 CURVE SMOOTH",
"1299 1669 OFFCURVE",
"1361 1650 OFFCURVE",
"1419 1608 CURVE SMOOTH",
"1460 1579 LINE",
"1475 1567 OFFCURVE",
"1476 1544 OFFCURVE",
"1469 1526 CURVE SMOOTH",
"1456 1489 OFFCURVE",
"1415 1450 OFFCURVE",
"1376 1450 CURVE SMOOTH",
"1366 1450 OFFCURVE",
"1357 1453 OFFCURVE",
"1349 1458 CURVE SMOOTH",
"1333 1468 LINE SMOOTH",
"1283 1500 OFFCURVE",
"1237 1517 OFFCURVE",
"1194 1517 CURVE SMOOTH",
"1065 1517 OFFCURVE",
"958 1372 OFFCURVE",
"835 1062 CURVE"
);
}
);
width = 566;
}
);
unicode = 0192;
},
{
glyphname = at;
layers = (
{
layerId = "DC66AB0F-19FD-4F06-8C39-5D32AA939720";
paths = (
{
closed = 1;
nodes = (
"1190 1008 OFFCURVE",
"1015 945 OFFCURVE",
"861 831 OFFCURVE",
"741 670 OFFCURVE",
"711 573 QCURVE",
"635 330 OFFCURVE",
"860 330 QCURVE",
"946 330 OFFCURVE",
"1109 405 OFFCURVE",
"1258 565 OFFCURVE",
"1389 813 OFFCURVE",
"1443 987 QCURVE",
"1428 990 LINE",
"1412 994 OFFCURVE",
"1363 1001 OFFCURVE",
"1302 1008 OFFCURVE",
"1274 1008 QCURVE"
);
},
{
closed = 1;
nodes = (
"605 -155 OFFCURVE",
"325 -37 OFFCURVE",
"185 164 OFFCURVE",
"171 430 OFFCURVE",
"217 578 QCURVE",
"261 720 OFFCURVE",
"403 960 OFFCURVE",
"581 1155 OFFCURVE",
"790 1304 OFFCURVE",
"1010 1405 OFFCURVE",
"1235 1456 OFFCURVE",
"1342 1456 QCURVE",
"1450 1456 OFFCURVE",
"1643 1419 OFFCURVE",
"1799 1342 OFFCURVE",
"1913 1227 OFFCURVE",
"1972 1072 OFFCURVE",
"1970 875 OFFCURVE",
"1933 756 QCURVE",
"1900 649 OFFCURVE",
"1807 483 OFFCURVE",
"1697 359 OFFCURVE",
"1580 274 OFFCURVE",
"1466 222 OFFCURVE",
"1361 199 OFFCURVE",
"1319 199 QCURVE",
"1284 199 OFFCURVE",
"1251 218 OFFCURVE",
"1240 250 OFFCURVE",
"1248 292 OFFCURVE",
"1256 316 QCURVE",
"1328 548 LINE",
"1298 489 OFFCURVE",
"1198 366 OFFCURVE",
"1065 264 OFFCURVE",
"899 199 OFFCURVE",
"803 199 QCURVE",
"717 199 OFFCURVE",
"599 254 OFFCURVE",
"537 356 OFFCURVE",
"533 500 OFFCURVE",
"561 590 QCURVE",
"581 655 OFFCURVE",
"660 785 OFFCURVE",
"769 905 OFFCURVE",
"903 1008 OFFCURVE",
"1052 1084 OFFCURVE",
"1214 1128 OFFCURVE",
"1295 1128 QCURVE",
"1311 1128 OFFCURVE",
"1368 1124 OFFCURVE",
"1432 1117 OFFCURVE",
"1496 1108 OFFCURVE",
"1518 1104 QCURVE",
"1547 1099 OFFCURVE",
"1573 1077 OFFCURVE",
"1584 1046 OFFCURVE",
"1587 1008 OFFCURVE",
"1591 987 QCURVE",
"1383 317 LINE",
"1444 317 OFFCURVE",
"1554 366 OFFCURVE",
"1652 473 OFFCURVE",
"1737 640 OFFCURVE",
"1774 758 QCURVE",
"1809 869 OFFCURVE",
"1809 1038 OFFCURVE",
"1756 1162 OFFCURVE",
"1657 1245 OFFCURVE",
"1530 1296 OFFCURVE",
"1382 1317 OFFCURVE",
"1305 1317 QCURVE",
"1154 1317 OFFCURVE",
"867 1217 OFFCURVE",
"621 1027 OFFCURVE",
"430 752 OFFCURVE",
"376 578 QCURVE",
"333 440 OFFCURVE",
"353 219 OFFCURVE",
"478 66 OFFCURVE",
"709 -16 OFFCURVE",
"878 -16 QCURVE",
"965 -16 OFFCURVE",
"1113 6 OFFCURVE",
"1231 39 OFFCURVE",
"1276 58 QCURVE",
"1322 78 OFFCURVE",
"1380 110 OFFCURVE",
"1396 122 QCURVE",
"1411 134 LINE",
"1474 42 LINE",
"1419 -3 OFFCURVE",
"1276 -76 OFFCURVE",
"1109 -127 OFFCURVE",
"923 -155 OFFCURVE",
"825 -155 QCURVE"
);
}
);
width = 1856;
}
);
unicode = 0040;
},
{
glyphname = ampersand;
layers = (
{
layerId = "DC66AB0F-19FD-4F06-8C39-5D32AA939720";
paths = (
{
closed = 1;
nodes = (
"356 260 OFFCURVE",
"356 207 QCURVE",
"356 178 OFFCURVE",
"402 155 OFFCURVE",
"432 155 QCURVE",
"482 155 OFFCURVE",
"534 181 QCURVE",
"551 189 OFFCURVE",
"627 239 OFFCURVE",
"687 282 QCURVE",
"566 442 LINE",
"524 399 OFFCURVE",
"479 361 QCURVE"
);
},
{
closed = 1;
nodes = (
"951 687 OFFCURVE",
"918 676 OFFCURVE",
"902 676 QCURVE",
"884 676 OFFCURVE",
"851 689 OFFCURVE",
"826 710 OFFCURVE",
"812 736 OFFCURVE",
"812 750 QCURVE",
"812 762 OFFCURVE",
"844 801 OFFCURVE",
"881 848 OFFCURVE",
"913 901 OFFCURVE",
"913 927 QCURVE",
"913 957 OFFCURVE",
"870 994 OFFCURVE",
"839 994 QCURVE",
"799 994 OFFCURVE",
"706 950 OFFCURVE",
"627 881 OFFCURVE",
"574 797 OFFCURVE",
"574 757 QCURVE",
"574 685 OFFCURVE",
"633 613 QCURVE",
"802 406 LINE",
"826 436 OFFCURVE",
"865 497 OFFCURVE",
"879 521 QCURVE",
"1053 521 LINE",
"1026 456 OFFCURVE",
"948 329 OFFCURVE",
"895 266 QCURVE",
"911 241 OFFCURVE",
"939 199 OFFCURVE",
"969 154 OFFCURVE",
"1006 102 OFFCURVE",
"1032 68 QCURVE",
"1040 57 OFFCURVE",
"1048 33 OFFCURVE",
"1048 23 QCURVE",
"1048 -9 OFFCURVE",
"1003 -54 OFFCURVE",
"971 -54 QCURVE",
"949 -54 OFFCURVE",
"902 -28 OFFCURVE",
"879 2 QCURVE",
"776 142 LINE",
"666 60 OFFCURVE",
"613 30 QCURVE",
"509 -28 OFFCURVE",
"423 -28 QCURVE",
"371 -28 OFFCURVE",
"280 3 OFFCURVE",
"212 60 OFFCURVE",
"173 142 OFFCURVE",
"173 193 QCURVE",
"173 230 OFFCURVE",
"224 329 OFFCURVE",
"305 430 OFFCURVE",
"403 522 OFFCURVE",
"451 553 QCURVE",
"464 561 OFFCURVE",
"464 566 QCURVE",
"430 619 OFFCURVE",
"399 719 OFFCURVE",
"399 767 QCURVE",
"399 820 OFFCURVE",
"439 918 OFFCURVE",
"509 1002 OFFCURVE",
"602 1071 OFFCURVE",
"706 1120 OFFCURVE",
"816 1146 OFFCURVE",
"869 1146 QCURVE",
"945 1146 OFFCURVE",
"1069 1085 OFFCURVE",
"1101 1017 QCURVE",
"1114 990 OFFCURVE",
"1114 958 QCURVE",
"1114 922 OFFCURVE",
"1084 850 OFFCURVE",
"1040 783 OFFCURVE",
"989 723 OFFCURVE",
"967 700 QCURVE"
);
}
);
width = 1119;
}
);
unicode = 0026;
},
